<?xml version="1.0" encoding="UTF-8" standalone="no"?>
<!DOCTYPE svg PUBLIC "-//W3C//DTD SVG 1.1//EN" "http://www.w3.org/Graphics/SVG/1.1/DTD/svg11.dtd">
<svg width="129.60" height="129.60" viewBox="0.00 0.00 2160.00 2160.00" xmlns="http://www.w3.org/2000/svg" xmlns:xlink="http://www.w3.org/1999/xlink">
<g stroke-linecap="round" id="Fill">
<path d="M1074.93,157.30 C1074.93,157.30 1075.48,157.02 1075.48,157.02" fill="none" stroke="rgb(0, 0, 0)" stroke-width="15.00" stroke-opacity="1.00" stroke-linejoin="round"/>
<path d="M1085.07,157.30 C1085.07,157.30 1084.52,157.02 1084.52,157.02" fill="none" stroke="rgb(0, 0, 0)" stroke-width="15.00" stroke-opacity="1.00" stroke-linejoin="round"/>
<path d="M1075.48,157.02 L562.41,157.29" fill="none" stroke="rgb(0, 0, 0)" stroke-width="15.00" stroke-opacity="1.00" stroke-linejoin="round"/>
<path d="M562.41,157.29" fill="none" stroke="rgb(0, 0, 0)" stroke-width="15.00" stroke-opacity="1.00" stroke-linejoin="round"/>
<path d="M1084.52,157.02 L1597.59,157.29" fill="none" stroke="rgb(0, 0, 0)" stroke-width="15.00" stroke-opacity="1.00" stroke-linejoin="round"/>
<path d="M1597.59,157.29" fill="none" stroke="rgb(0, 0, 0)" stroke-width="15.00" stroke-opacity="1.00" stroke-linejoin="round"/>
<path d="M562.41,157.29 L509.37,70.42" fill="none" stroke="rgb(0, 0, 0)" stroke-width="15.00" stroke-opacity="1.00" stroke-linejoin="round"/>
<path d="M509.37,70.42" fill="none" stroke="rgb(0, 0, 0)" stroke-width="15.00" stroke-opacity="1.00" stroke-linejoin="round"/>
<path d="M1597.59,157.29 L1650.63,70.42" fill="none" stroke="rgb(0, 0, 0)" stroke-width="15.00" stroke-opacity="1.00" stroke-linejoin="round"/>
<path d="M1650.63,70.42" fill="none" stroke="rgb(0, 0, 0)" stroke-width="15.00" stroke-opacity="1.00" stroke-linejoin="round"/>
<path d="M509.37,70.42 L1078.19,68.59" fill="none" stroke="rgb(0, 0, 0)" stroke-width="15.00" stroke-opacity="1.00" stroke-linejoin="round"/>
<path d="M1078.19,68.59" fill="none" stroke="rgb(0, 0, 0)" stroke-width="15.00" stroke-opacity="1.00" stroke-linejoin="round"/>
<path d="M1650.63,70.42 L1081.81,68.59" fill="none" stroke="rgb(0, 0, 0)" stroke-width="15.00" stroke-opacity="1.00" stroke-linejoin="round"/>
<path d="M1081.81,68.59" fill="none" stroke="rgb(0, 0, 0)" stroke-width="15.00" stroke-opacity="1.00" stroke-linejoin="round"/>
<path d="M1078.19,68.59 L1078.18,148.18" fill="none" stroke="rgb(0, 0, 0)" stroke-width="15.00" stroke-opacity="1.00" stroke-linejoin="round"/>
<path d="M1078.18,148.18" fill="none" stroke="rgb(0, 0, 0)" stroke-width="15.00" stroke-opacity="1.00" stroke-linejoin="round"/>
<path d="M1081.81,68.59 L1081.82,148.18" fill="none" stroke="rgb(0, 0, 0)" stroke-width="15.00" stroke-opacity="1.00" stroke-linejoin="round"/>
<path d="M1081.82,148.18" fill="none" stroke="rgb(0, 0, 0)" stroke-width="15.00" stroke-opacity="1.00" stroke-linejoin="round"/>
<path d="M1078.18,148.18 L567.90,148.97" fill="none" stroke="rgb(0, 0, 0)" stroke-width="30.00" stroke-opacity="1.00" stroke-linejoin="round"/>
<path d="M567.90,148.97" fill="none" stroke="rgb(0, 0, 0)" stroke-width="30.00" stroke-opacity="1.00" stroke-linejoin="round"/>
<path d="M1081.82,148.18 L1592.10,148.97" fill="none" stroke="rgb(0, 0, 0)" stroke-width="30.00" stroke-opacity="1.00" stroke-linejoin="round"/>
<path d="M1592.10,148.97" fill="none" stroke="rgb(0, 0, 0)" stroke-width="30.00" stroke-opacity="1.00" stroke-linejoin="round"/>
<path d="M567.90,148.97 L524.28,82.30" fill="none" stroke="rgb(0, 0, 0)" stroke-width="30.00" stroke-opacity="1.00" stroke-linejoin="round"/>
<path d="M524.28,82.30" fill="none" stroke="rgb(0, 0, 0)" stroke-width="30.00" stroke-opacity="1.00" stroke-linejoin="round"/>
<path d="M1592.10,148.97 L1635.72,82.30" fill="none" stroke="rgb(0, 0, 0)" stroke-width="30.00" stroke-opacity="1.00" stroke-linejoin="round"/>
<path d="M1635.72,82.30" fill="none" stroke="rgb(0, 0, 0)" stroke-width="30.00" stroke-opacity="1.00" stroke-linejoin="round"/>
<path d="M524.28,82.30 L1073.25,83.95" fill="none" stroke="rgb(0, 0, 0)" stroke-width="30.00" stroke-opacity="1.00" stroke-linejoin="round"/>
<path d="M1073.25,83.95" fill="none" stroke="rgb(0, 0, 0)" stroke-width="30.00" stroke-opacity="1.00" stroke-linejoin="round"/>
<path d="M1635.72,82.30 L1086.75,83.95" fill="none" stroke="rgb(0, 0, 0)" stroke-width="30.00" stroke-opacity="1.00" stroke-linejoin="round"/>
<path d="M1086.75,83.95" fill="none" stroke="rgb(0, 0, 0)" stroke-width="30.00" stroke-opacity="1.00" stroke-linejoin="round"/>
<path d="M1073.25,83.95 L1065.02,131.69" fill="none" stroke="rgb(0, 0, 0)" stroke-width="30.00" stroke-opacity="1.00" stroke-linejoin="round"/>
<path d="M1065.02,131.69" fill="none" stroke="rgb(0, 0, 0)" stroke-width="30.00" stroke-opacity="1.00" stroke-linejoin="round"/>
<path d="M1086.75,83.95 L1094.98,131.69" fill="none" stroke="rgb(0, 0, 0)" stroke-width="30.00" stroke-opacity="1.00" stroke-linejoin="round"/>
<path d="M1094.98,131.69" fill="none" stroke="rgb(0, 0, 0)" stroke-width="30.00" stroke-opacity="1.00" stroke-linejoin="round"/>
<path d="M1065.02,131.69 L581.07,132.51" fill="none" stroke="rgb(0, 0, 0)" stroke-width="30.00" stroke-opacity="1.00" stroke-linejoin="round"/>
<path d="M581.07,132.51" fill="none" stroke="rgb(0, 0, 0)" stroke-width="30.00" stroke-opacity="1.00" stroke-linejoin="round"/>
<path d="M1094.98,131.69 L1578.93,132.51" fill="none" stroke="rgb(0, 0, 0)" stroke-width="30.00" stroke-opacity="1.00" stroke-linejoin="round"/>
<path d="M1578.93,132.51" fill="none" stroke="rgb(0, 0, 0)" stroke-width="30.00" stroke-opacity="1.00" stroke-linejoin="round"/>
<path d="M581.07,132.51 L560.49,102.88" fill="none" stroke="rgb(0, 0, 0)" stroke-width="30.00" stroke-opacity="1.00" stroke-linejoin="round"/>
<path d="M560.49,102.88" fill="none" stroke="rgb(0, 0, 0)" stroke-width="30.00" stroke-opacity="1.00" stroke-linejoin="round"/>
<path d="M1578.93,132.51 L1599.51,102.88" fill="none" stroke="rgb(0, 0, 0)" stroke-width="30.00" stroke-opacity="1.00" stroke-linejoin="round"/>
<path d="M1599.51,102.88" fill="none" stroke="rgb(0, 0, 0)" stroke-width="30.00" stroke-opacity="1.00" stroke-linejoin="round"/>
<path d="M560.49,102.88 L1062.55,101.23" fill="none" stroke="rgb(0, 0, 0)" stroke-width="30.00" stroke-opacity="1.00" stroke-linejoin="round"/>
<path d="M1062.55,101.23 C1062.55,101.23 1062.55,100.41 1062.55,100.41" fill="none" stroke="rgb(0, 0, 0)" stroke-width="30.00" stroke-opacity="1.00" stroke-linejoin="round"/>
<path d="M1599.51,102.88 L1097.45,101.23" fill="none" stroke="rgb(0, 0, 0)" stroke-width="30.00" stroke-opacity="1.00" stroke-linejoin="round"/>
<path d="M1097.45,101.23 C1097.45,101.23 1097.45,100.41 1097.45,100.41" fill="none" stroke="rgb(0, 0, 0)" stroke-width="30.00" stroke-opacity="1.00" stroke-linejoin="round"/>
<path d="M1049.38,115.23 C1049.38,115.23 1050.21,115.23 1050.21,115.23" fill="none" stroke="rgb(0, 0, 0)" stroke-width="30.00" stroke-opacity="1.00" stroke-linejoin="round"/>
<path d="M1110.62,115.23 C1110.62,115.23 1109.79,115.23 1109.79,115.23" fill="none" stroke="rgb(0, 0, 0)" stroke-width="30.00" stroke-opacity="1.00" stroke-linejoin="round"/>
<path d="M1050.21,115.23 L590.12,120.16" fill="none" stroke="rgb(0, 0, 0)" stroke-width="30.00" stroke-opacity="1.00" stroke-linejoin="round"/>
<path d="M590.12,120.16" fill="none" stroke="rgb(0, 0, 0)" stroke-width="30.00" stroke-opacity="1.00" stroke-linejoin="round"/>
<path d="M1109.79,115.23 L1569.88,120.16" fill="none" stroke="rgb(0, 0, 0)" stroke-width="30.00" stroke-opacity="1.00" stroke-linejoin="round"/>
<path d="M1569.88,120.16" fill="none" stroke="rgb(0, 0, 0)" stroke-width="30.00" stroke-opacity="1.00" stroke-linejoin="round"/>
<path d="M570.89,226.71 C570.89,226.71 570.89,225.96 570.89,225.96" fill="none" stroke="rgb(0, 0, 0)" stroke-width="20.00" stroke-opacity="1.00" stroke-linejoin="round"/>
<path d="M1589.11,226.71 C1589.11,226.71 1589.11,225.96 1589.11,225.96" fill="none" stroke="rgb(0, 0, 0)" stroke-width="20.00" stroke-opacity="1.00" stroke-linejoin="round"/>
<path d="M570.89,225.96 L1078.94,225.96" fill="none" stroke="rgb(0, 0, 0)" stroke-width="20.00" stroke-opacity="1.00" stroke-linejoin="round"/>
<path d="M1078.94,225.96" fill="none" stroke="rgb(0, 0, 0)" stroke-width="20.00" stroke-opacity="1.00" stroke-linejoin="round"/>
<path d="M1589.11,225.96 L1081.06,225.96" fill="none" stroke="rgb(0, 0, 0)" stroke-width="20.00" stroke-opacity="1.00" stroke-linejoin="round"/>
<path d="M1081.06,225.96" fill="none" stroke="rgb(0, 0, 0)" stroke-width="20.00" stroke-opacity="1.00" stroke-linejoin="round"/>
<path d="M1078.94,225.96 L1073.70,276.84" fill="none" stroke="rgb(0, 0, 0)" stroke-width="20.00" stroke-opacity="1.00" stroke-linejoin="round"/>
<path d="M1073.70,276.84" fill="none" stroke="rgb(0, 0, 0)" stroke-width="20.00" stroke-opacity="1.00" stroke-linejoin="round"/>
<path d="M1081.06,225.96 L1086.30,276.84" fill="none" stroke="rgb(0, 0, 0)" stroke-width="20.00" stroke-opacity="1.00" stroke-linejoin="round"/>
<path d="M1086.30,276.84" fill="none" stroke="rgb(0, 0, 0)" stroke-width="20.00" stroke-opacity="1.00" stroke-linejoin="round"/>
<path d="M1073.70,276.84 L601.57,282.08" fill="none" stroke="rgb(0, 0, 0)" stroke-width="20.00" stroke-opacity="1.00" stroke-linejoin="round"/>
<path d="M601.57,282.08" fill="none" stroke="rgb(0, 0, 0)" stroke-width="20.00" stroke-opacity="1.00" stroke-linejoin="round"/>
<path d="M1086.30,276.84 L1558.43,282.08" fill="none" stroke="rgb(0, 0, 0)" stroke-width="20.00" stroke-opacity="1.00" stroke-linejoin="round"/>
<path d="M1558.43,282.08" fill="none" stroke="rgb(0, 0, 0)" stroke-width="20.00" stroke-opacity="1.00" stroke-linejoin="round"/>
<path d="M601.57,282.08 L582.12,238.68" fill="none" stroke="rgb(0, 0, 0)" stroke-width="20.00" stroke-opacity="1.00" stroke-linejoin="round"/>
<path d="M582.12,238.31 C582.12,238.31 582.87,237.94 582.87,237.94" fill="none" stroke="rgb(0, 0, 0)" stroke-width="20.00" stroke-opacity="1.00" stroke-linejoin="round"/>
<path d="M1558.43,282.08 L1577.88,238.68" fill="none" stroke="rgb(0, 0, 0)" stroke-width="20.00" stroke-opacity="1.00" stroke-linejoin="round"/>
<path d="M1577.88,238.31 C1577.88,238.31 1577.13,237.94 1577.13,237.94" fill="none" stroke="rgb(0, 0, 0)" stroke-width="20.00" stroke-opacity="1.00" stroke-linejoin="round"/>
<path d="M582.87,237.94 L1063.97,236.44" fill="none" stroke="rgb(0, 0, 0)" stroke-width="20.00" stroke-opacity="1.00" stroke-linejoin="round"/>
<path d="M1063.97,236.44" fill="none" stroke="rgb(0, 0, 0)" stroke-width="20.00" stroke-opacity="1.00" stroke-linejoin="round"/>
<path d="M1577.13,237.94 L1096.03,236.44" fill="none" stroke="rgb(0, 0, 0)" stroke-width="20.00" stroke-opacity="1.00" stroke-linejoin="round"/>
<path d="M1096.03,236.44" fill="none" stroke="rgb(0, 0, 0)" stroke-width="20.00" stroke-opacity="1.00" stroke-linejoin="round"/>
<path d="M1063.97,236.44 L1063.97,263.37" fill="none" stroke="rgb(0, 0, 0)" stroke-width="20.00" stroke-opacity="1.00" stroke-linejoin="round"/>
<path d="M1063.97,263.37" fill="none" stroke="rgb(0, 0, 0)" stroke-width="20.00" stroke-opacity="1.00" stroke-linejoin="round"/>
<path d="M1096.03,236.44 L1096.03,263.37" fill="none" stroke="rgb(0, 0, 0)" stroke-width="20.00" stroke-opacity="1.00" stroke-linejoin="round"/>
<path d="M1096.03,263.37" fill="none" stroke="rgb(0, 0, 0)" stroke-width="20.00" stroke-opacity="1.00" stroke-linejoin="round"/>
<path d="M1063.97,263.37 L606.81,268.61" fill="none" stroke="rgb(0, 0, 0)" stroke-width="20.00" stroke-opacity="1.00" stroke-linejoin="round"/>
<path d="M606.81,268.61" fill="none" stroke="rgb(0, 0, 0)" stroke-width="20.00" stroke-opacity="1.00" stroke-linejoin="round"/>
<path d="M1096.03,263.37 L1553.19,268.61" fill="none" stroke="rgb(0, 0, 0)" stroke-width="20.00" stroke-opacity="1.00" stroke-linejoin="round"/>
<path d="M1553.19,268.61" fill="none" stroke="rgb(0, 0, 0)" stroke-width="20.00" stroke-opacity="1.00" stroke-linejoin="round"/>
<path d="M606.81,268.61 L604.56,246.91" fill="none" stroke="rgb(0, 0, 0)" stroke-width="20.00" stroke-opacity="1.00" stroke-linejoin="round"/>
<path d="M604.56,246.91" fill="none" stroke="rgb(0, 0, 0)" stroke-width="20.00" stroke-opacity="1.00" stroke-linejoin="round"/>
<path d="M1553.19,268.61 L1555.44,246.91" fill="none" stroke="rgb(0, 0, 0)" stroke-width="20.00" stroke-opacity="1.00" stroke-linejoin="round"/>
<path d="M1555.44,246.91" fill="none" stroke="rgb(0, 0, 0)" stroke-width="20.00" stroke-opacity="1.00" stroke-linejoin="round"/>
<path d="M604.56,246.91 L1055.74,246.91" fill="none" stroke="rgb(0, 0, 0)" stroke-width="20.00" stroke-opacity="1.00" stroke-linejoin="round"/>
<path d="M1055.74,246.91" fill="none" stroke="rgb(0, 0, 0)" stroke-width="20.00" stroke-opacity="1.00" stroke-linejoin="round"/>
<path d="M1555.44,246.91 L1104.26,246.91" fill="none" stroke="rgb(0, 0, 0)" stroke-width="20.00" stroke-opacity="1.00" stroke-linejoin="round"/>
<path d="M1104.26,246.91" fill="none" stroke="rgb(0, 0, 0)" stroke-width="20.00" stroke-opacity="1.00" stroke-linejoin="round"/>
<path d="M1055.74,246.91 L620.28,255.14" fill="none" stroke="rgb(0, 0, 0)" stroke-width="20.00" stroke-opacity="1.00" stroke-linejoin="round"/>
<path d="M620.28,255.14" fill="none" stroke="rgb(0, 0, 0)" stroke-width="20.00" stroke-opacity="1.00" stroke-linejoin="round"/>
<path d="M1104.26,246.91 L1539.72,255.14" fill="none" stroke="rgb(0, 0, 0)" stroke-width="20.00" stroke-opacity="1.00" stroke-linejoin="round"/>
<path d="M1539.72,255.14" fill="none" stroke="rgb(0, 0, 0)" stroke-width="20.00" stroke-opacity="1.00" stroke-linejoin="round"/>
<path d="M513.03,2061.21 C513.03,2061.21 513.33,2060.61 513.33,2060.61" fill="none" stroke="rgb(0, 0, 0)" stroke-width="20.00" stroke-opacity="1.00" stroke-linejoin="round"/>
<path d="M1646.97,2061.21 C1646.97,2061.21 1646.67,2060.61 1646.67,2060.61" fill="none" stroke="rgb(0, 0, 0)" stroke-width="20.00" stroke-opacity="1.00" stroke-linejoin="round"/>
<path d="M513.33,2060.61 L1075.76,2060.61" fill="none" stroke="rgb(0, 0, 0)" stroke-width="20.00" stroke-opacity="1.00" stroke-linejoin="round"/>
<path d="M1075.76,2060.61 C1075.76,2060.61 1075.76,2059.39 1075.76,2059.39" fill="none" stroke="rgb(0, 0, 0)" stroke-width="20.00" stroke-opacity="1.00" stroke-linejoin="round"/>
<path d="M1646.67,2060.61 L1084.24,2060.61" fill="none" stroke="rgb(0, 0, 0)" stroke-width="20.00" stroke-opacity="1.00" stroke-linejoin="round"/>
<path d="M1084.24,2060.61 C1084.24,2060.61 1084.24,2059.39 1084.24,2059.39" fill="none" stroke="rgb(0, 0, 0)" stroke-width="20.00" stroke-opacity="1.00" stroke-linejoin="round"/>
<path d="M1075.76,2059.39 L1076.97,1978.18" fill="none" stroke="rgb(0, 0, 0)" stroke-width="20.00" stroke-opacity="1.00" stroke-linejoin="round"/>
<path d="M1076.97,1978.18" fill="none" stroke="rgb(0, 0, 0)" stroke-width="20.00" stroke-opacity="1.00" stroke-linejoin="round"/>
<path d="M1084.24,2059.39 L1083.03,1978.18" fill="none" stroke="rgb(0, 0, 0)" stroke-width="20.00" stroke-opacity="1.00" stroke-linejoin="round"/>
<path d="M1083.03,1978.18" fill="none" stroke="rgb(0, 0, 0)" stroke-width="20.00" stroke-opacity="1.00" stroke-linejoin="round"/>
<path d="M1076.97,1978.18 L566.67,1980.00" fill="none" stroke="rgb(0, 0, 0)" stroke-width="20.00" stroke-opacity="1.00" stroke-linejoin="round"/>
<path d="M566.67,1980.00" fill="none" stroke="rgb(0, 0, 0)" stroke-width="20.00" stroke-opacity="1.00" stroke-linejoin="round"/>
<path d="M1083.03,1978.18 L1593.33,1980.00" fill="none" stroke="rgb(0, 0, 0)" stroke-width="20.00" stroke-opacity="1.00" stroke-linejoin="round"/>
<path d="M1593.33,1980.00" fill="none" stroke="rgb(0, 0, 0)" stroke-width="20.00" stroke-opacity="1.00" stroke-linejoin="round"/>
<path d="M566.67,1980.00 L524.24,2049.09" fill="none" stroke="rgb(0, 0, 0)" stroke-width="20.00" stroke-opacity="1.00" stroke-linejoin="round"/>
<path d="M524.24,2049.09" fill="none" stroke="rgb(0, 0, 0)" stroke-width="20.00" stroke-opacity="1.00" stroke-linejoin="round"/>
<path d="M1593.33,1980.00 L1635.76,2049.09" fill="none" stroke="rgb(0, 0, 0)" stroke-width="20.00" stroke-opacity="1.00" stroke-linejoin="round"/>
<path d="M1635.76,2049.09" fill="none" stroke="rgb(0, 0, 0)" stroke-width="20.00" stroke-opacity="1.00" stroke-linejoin="round"/>
<path d="M524.24,2049.09 L1061.21,2046.06" fill="none" stroke="rgb(0, 0, 0)" stroke-width="20.00" stroke-opacity="1.00" stroke-linejoin="round"/>
<path d="M1061.21,2046.06 C1061.21,2046.06 1061.21,2044.24 1061.21,2044.24" fill="none" stroke="rgb(0, 0, 0)" stroke-width="20.00" stroke-opacity="1.00" stroke-linejoin="round"/>
<path d="M1635.76,2049.09 L1098.79,2046.06" fill="none" stroke="rgb(0, 0, 0)" stroke-width="20.00" stroke-opacity="1.00" stroke-linejoin="round"/>
<path d="M1098.79,2046.06 C1098.79,2046.06 1098.79,2044.24 1098.79,2044.24" fill="none" stroke="rgb(0, 0, 0)" stroke-width="20.00" stroke-opacity="1.00" stroke-linejoin="round"/>
<path d="M1061.21,2044.24 L1062.42,1992.12" fill="none" stroke="rgb(0, 0, 0)" stroke-width="20.00" stroke-opacity="1.00" stroke-linejoin="round"/>
<path d="M1062.42,1992.12" fill="none" stroke="rgb(0, 0, 0)" stroke-width="20.00" stroke-opacity="1.00" stroke-linejoin="round"/>
<path d="M1098.79,2044.24 L1097.58,1992.12" fill="none" stroke="rgb(0, 0, 0)" stroke-width="20.00" stroke-opacity="1.00" stroke-linejoin="round"/>
<path d="M1097.58,1992.12" fill="none" stroke="rgb(0, 0, 0)" stroke-width="20.00" stroke-opacity="1.00" stroke-linejoin="round"/>
<path d="M1062.42,1992.12 L576.97,1993.94" fill="none" stroke="rgb(0, 0, 0)" stroke-width="20.00" stroke-opacity="1.00" stroke-linejoin="round"/>
<path d="M576.97,1993.94" fill="none" stroke="rgb(0, 0, 0)" stroke-width="20.00" stroke-opacity="1.00" stroke-linejoin="round"/>
<path d="M1097.58,1992.12 L1583.03,1993.94" fill="none" stroke="rgb(0, 0, 0)" stroke-width="20.00" stroke-opacity="1.00" stroke-linejoin="round"/>
<path d="M1583.03,1993.94" fill="none" stroke="rgb(0, 0, 0)" stroke-width="20.00" stroke-opacity="1.00" stroke-linejoin="round"/>
<path d="M576.97,1993.94 L547.27,2039.39" fill="none" stroke="rgb(0, 0, 0)" stroke-width="20.00" stroke-opacity="1.00" stroke-linejoin="round"/>
<path d="M547.27,2039.39 C547.27,2039.39 547.27,2038.79 547.27,2038.79" fill="none" stroke="rgb(0, 0, 0)" stroke-width="20.00" stroke-opacity="1.00" stroke-linejoin="round"/>
<path d="M1583.03,1993.94 L1612.73,2039.39" fill="none" stroke="rgb(0, 0, 0)" stroke-width="20.00" stroke-opacity="1.00" stroke-linejoin="round"/>
<path d="M1612.73,2039.39 C1612.73,2039.39 1612.73,2038.79 1612.73,2038.79" fill="none" stroke="rgb(0, 0, 0)" stroke-width="20.00" stroke-opacity="1.00" stroke-linejoin="round"/>
<path d="M547.27,2038.79 L1050.30,2030.30" fill="none" stroke="rgb(0, 0, 0)" stroke-width="20.00" stroke-opacity="1.00" stroke-linejoin="round"/>
<path d="M1050.30,2030.30" fill="none" stroke="rgb(0, 0, 0)" stroke-width="20.00" stroke-opacity="1.00" stroke-linejoin="round"/>
<path d="M1612.73,2038.79 L1109.70,2030.30" fill="none" stroke="rgb(0, 0, 0)" stroke-width="20.00" stroke-opacity="1.00" stroke-linejoin="round"/>
<path d="M1109.70,2030.30" fill="none" stroke="rgb(0, 0, 0)" stroke-width="20.00" stroke-opacity="1.00" stroke-linejoin="round"/>
<path d="M1050.30,2030.30 L1050.30,2004.85" fill="none" stroke="rgb(0, 0, 0)" stroke-width="20.00" stroke-opacity="1.00" stroke-linejoin="round"/>
<path d="M1050.30,2004.85" fill="none" stroke="rgb(0, 0, 0)" stroke-width="20.00" stroke-opacity="1.00" stroke-linejoin="round"/>
<path d="M1109.70,2030.30 L1109.70,2004.85" fill="none" stroke="rgb(0, 0, 0)" stroke-width="20.00" stroke-opacity="1.00" stroke-linejoin="round"/>
<path d="M1109.70,2004.85" fill="none" stroke="rgb(0, 0, 0)" stroke-width="20.00" stroke-opacity="1.00" stroke-linejoin="round"/>
<path d="M1050.30,2004.85 L585.45,2010.30" fill="none" stroke="rgb(0, 0, 0)" stroke-width="20.00" stroke-opacity="1.00" stroke-linejoin="round"/>
<path d="M585.45,2010.30" fill="none" stroke="rgb(0, 0, 0)" stroke-width="20.00" stroke-opacity="1.00" stroke-linejoin="round"/>
<path d="M1109.70,2004.85 L1574.55,2010.30" fill="none" stroke="rgb(0, 0, 0)" stroke-width="20.00" stroke-opacity="1.00" stroke-linejoin="round"/>
<path d="M1574.55,2010.30" fill="none" stroke="rgb(0, 0, 0)" stroke-width="20.00" stroke-opacity="1.00" stroke-linejoin="round"/>
<path d="M585.45,2010.30 L572.73,2028.48" fill="none" stroke="rgb(0, 0, 0)" stroke-width="20.00" stroke-opacity="1.00" stroke-linejoin="round"/>
<path d="M572.73,2028.48" fill="none" stroke="rgb(0, 0, 0)" stroke-width="20.00" stroke-opacity="1.00" stroke-linejoin="round"/>
<path d="M1574.55,2010.30 L1587.27,2028.48" fill="none" stroke="rgb(0, 0, 0)" stroke-width="20.00" stroke-opacity="1.00" stroke-linejoin="round"/>
<path d="M1587.27,2028.48" fill="none" stroke="rgb(0, 0, 0)" stroke-width="20.00" stroke-opacity="1.00" stroke-linejoin="round"/>
<path d="M572.73,2028.48 L1044.85,2019.39" fill="none" stroke="rgb(0, 0, 0)" stroke-width="20.00" stroke-opacity="1.00" stroke-linejoin="round"/>
<path d="M1044.85,2019.39" fill="none" stroke="rgb(0, 0, 0)" stroke-width="20.00" stroke-opacity="1.00" stroke-linejoin="round"/>
<path d="M1587.27,2028.48 L1115.15,2019.39" fill="none" stroke="rgb(0, 0, 0)" stroke-width="20.00" stroke-opacity="1.00" stroke-linejoin="round"/>
<path d="M1115.15,2019.39" fill="none" stroke="rgb(0, 0, 0)" stroke-width="20.00" stroke-opacity="1.00" stroke-linejoin="round"/>
<path d="M574.55,1906.36" fill="none" stroke="rgb(0, 0, 0)" stroke-width="20.00" stroke-opacity="1.00" stroke-linejoin="round"/>
<path d="M1585.45,1906.36" fill="none" stroke="rgb(0, 0, 0)" stroke-width="20.00" stroke-opacity="1.00" stroke-linejoin="round"/>
<path d="M574.55,1906.36 L1078.18,1908.18" fill="none" stroke="rgb(0, 0, 0)" stroke-width="20.00" stroke-opacity="1.00" stroke-linejoin="round"/>
<path d="M1078.18,1908.18" fill="none" stroke="rgb(0, 0, 0)" stroke-width="20.00" stroke-opacity="1.00" stroke-linejoin="round"/>
<path d="M1585.45,1906.36 L1081.82,1908.18" fill="none" stroke="rgb(0, 0, 0)" stroke-width="20.00" stroke-opacity="1.00" stroke-linejoin="round"/>
<path d="M1081.82,1908.18" fill="none" stroke="rgb(0, 0, 0)" stroke-width="20.00" stroke-opacity="1.00" stroke-linejoin="round"/>
<path d="M1078.18,1908.18 L1080.00,1371.82" fill="none" stroke="rgb(0, 0, 0)" stroke-width="20.00" stroke-opacity="1.00" stroke-linejoin="round"/>
<path d="M1080.00,1371.82" fill="none" stroke="rgb(0, 0, 0)" stroke-width="20.00" stroke-opacity="1.00" stroke-linejoin="round"/>
<path d="M1081.82,1908.18 L1080.00,1371.82" fill="none" stroke="rgb(0, 0, 0)" stroke-width="20.00" stroke-opacity="1.00" stroke-linejoin="round"/>
<path d="M1080.00,1371.82" fill="none" stroke="rgb(0, 0, 0)" stroke-width="20.00" stroke-opacity="1.00" stroke-linejoin="round"/>
<path d="M580.00,1893.64" fill="none" stroke="rgb(0, 0, 0)" stroke-width="20.00" stroke-opacity="1.00" stroke-linejoin="round"/>
<path d="M1580.00,1893.64" fill="none" stroke="rgb(0, 0, 0)" stroke-width="20.00" stroke-opacity="1.00" stroke-linejoin="round"/>
<path d="M580.00,1893.64 L1069.09,1892.73" fill="none" stroke="rgb(0, 0, 0)" stroke-width="20.00" stroke-opacity="1.00" stroke-linejoin="round"/>
<path d="M1069.09,1892.73" fill="none" stroke="rgb(0, 0, 0)" stroke-width="20.00" stroke-opacity="1.00" stroke-linejoin="round"/>
<path d="M1580.00,1893.64 L1090.91,1892.73" fill="none" stroke="rgb(0, 0, 0)" stroke-width="20.00" stroke-opacity="1.00" stroke-linejoin="round"/>
<path d="M1090.91,1892.73" fill="none" stroke="rgb(0, 0, 0)" stroke-width="20.00" stroke-opacity="1.00" stroke-linejoin="round"/>
<path d="M587.75,1879.00 C587.75,1879.00 588.00,1878.50 588.00,1878.50" fill="none" stroke="rgb(0, 0, 0)" stroke-width="20.00" stroke-opacity="1.00" stroke-linejoin="round"/>
<path d="M1572.25,1879.00 C1572.25,1879.00 1572.00,1878.50 1572.00,1878.50" fill="none" stroke="rgb(0, 0, 0)" stroke-width="20.00" stroke-opacity="1.00" stroke-linejoin="round"/>
<path d="M588.00,1878.50 L1069.00,1876.00" fill="none" stroke="rgb(0, 0, 0)" stroke-width="20.00" stroke-opacity="1.00" stroke-linejoin="round"/>
<path d="M1069.00,1876.00" fill="none" stroke="rgb(0, 0, 0)" stroke-width="20.00" stroke-opacity="1.00" stroke-linejoin="round"/>
<path d="M1572.00,1878.50 L1091.00,1876.00" fill="none" stroke="rgb(0, 0, 0)" stroke-width="20.00" stroke-opacity="1.00" stroke-linejoin="round"/>
<path d="M1091.00,1876.00" fill="none" stroke="rgb(0, 0, 0)" stroke-width="20.00" stroke-opacity="1.00" stroke-linejoin="round"/>
<path d="M591.50,1864.50" fill="none" stroke="rgb(0, 0, 0)" stroke-width="20.00" stroke-opacity="1.00" stroke-linejoin="round"/>
<path d="M1568.50,1864.50" fill="none" stroke="rgb(0, 0, 0)" stroke-width="20.00" stroke-opacity="1.00" stroke-linejoin="round"/>
<path d="M591.50,1864.50 L1064.50,1859.50" fill="none" stroke="rgb(0, 0, 0)" stroke-width="20.00" stroke-opacity="1.00" stroke-linejoin="round"/>
<path d="M1064.50,1859.50" fill="none" stroke="rgb(0, 0, 0)" stroke-width="20.00" stroke-opacity="1.00" stroke-linejoin="round"/>
<path d="M1568.50,1864.50 L1095.50,1859.50" fill="none" stroke="rgb(0, 0, 0)" stroke-width="20.00" stroke-opacity="1.00" stroke-linejoin="round"/>
<path d="M1095.50,1859.50" fill="none" stroke="rgb(0, 0, 0)" stroke-width="20.00" stroke-opacity="1.00" stroke-linejoin="round"/>
<path d="M598.75,1854.50 C598.75,1854.50 600.00,1854.00 600.00,1854.00" fill="none" stroke="rgb(0, 0, 0)" stroke-width="20.00" stroke-opacity="1.00" stroke-linejoin="round"/>
<path d="M1561.25,1854.50 C1561.25,1854.50 1560.00,1854.00 1560.00,1854.00" fill="none" stroke="rgb(0, 0, 0)" stroke-width="20.00" stroke-opacity="1.00" stroke-linejoin="round"/>
<path d="M600.00,1854.00 L1067.50,1847.00" fill="none" stroke="rgb(0, 0, 0)" stroke-width="20.00" stroke-opacity="1.00" stroke-linejoin="round"/>
<path d="M1067.50,1847.00" fill="none" stroke="rgb(0, 0, 0)" stroke-width="20.00" stroke-opacity="1.00" stroke-linejoin="round"/>
<path d="M1560.00,1854.00 L1092.50,1847.00" fill="none" stroke="rgb(0, 0, 0)" stroke-width="20.00" stroke-opacity="1.00" stroke-linejoin="round"/>
<path d="M1092.50,1847.00" fill="none" stroke="rgb(0, 0, 0)" stroke-width="20.00" stroke-opacity="1.00" stroke-linejoin="round"/>
<path d="M862.87,1843.48 C862.87,1843.48 862.12,1844.11 862.12,1844.11 C861.48,1844.23 860.54,1843.08 859.50,1840.72 C858.54,1838.52 857.00,1821.56 857.17,1814.24 C857.56,1799.19 859.94,1783.42 860.61,1781.27 C859.51,1816.68 854.89,1843.02 854.46,1845.47 C854.17,1837.57 855.24,1803.24 856.42,1787.69 C857.09,1780.21 858.95,1766.68 860.06,1759.25 C861.97,1748.25 864.37,1737.87 866.78,1729.01 C870.11,1717.27 879.63,1690.09 884.85,1675.54 C890.87,1659.06 902.52,1627.73 908.14,1612.88 C917.11,1590.61 928.72,1565.54 933.09,1556.67 C938.54,1546.42 950.56,1525.14 961.31,1507.92 C971.65,1492.00 986.28,1471.73 995.83,1459.43 C1003.58,1449.73 1023.99,1427.77 1034.99,1416.00 C1046.65,1403.40 1067.71,1380.40 1071.30,1375.78 C1070.67,1375.96 1058.05,1387.91 1052.36,1393.61 C1041.52,1405.16 1020.14,1428.39 1009.89,1440.13 C999.51,1452.41 980.14,1476.61 971.55,1488.09 C967.28,1494.01 960.13,1504.44 955.16,1512.30 C947.11,1525.62 933.17,1553.27 926.29,1567.34 C919.83,1581.21 907.54,1608.23 901.30,1623.43 C895.73,1637.91 884.99,1667.46 879.72,1682.04 C875.97,1691.77 872.18,1700.56 871.24,1702.16 C870.63,1698.72 871.47,1693.43 872.19,1690.39 C873.27,1685.83 883.82,1648.35 888.83,1633.86 C895.86,1615.20 907.80,1586.78 912.14,1577.46 C919.20,1563.24 933.91,1534.32 942.10,1519.47 C949.73,1506.28 965.59,1480.49 974.21,1468.74 C978.63,1462.87 989.17,1449.54 991.71,1446.62 C995.63,1442.17 1005.05,1432.88 1011.41,1427.45 C1018.85,1421.04 1030.01,1409.01 1030.78,1408.42 C1033.34,1406.47 1035.01,1406.74 1035.42,1407.08" fill="none" stroke="rgb(0, 0, 0)" stroke-width="20.00" stroke-opacity="1.00" stroke-linejoin="round"/>
<path d="M1297.13,1843.48 C1297.13,1843.48 1297.88,1844.11 1297.88,1844.11 C1298.52,1844.23 1299.46,1843.08 1300.50,1840.72 C1301.46,1838.52 1303.00,1821.56 1302.83,1814.24 C1302.44,1799.19 1300.06,1783.42 1299.39,1781.27 C1300.49,1816.68 1305.11,1843.02 1305.54,1845.47 C1305.83,1837.57 1304.76,1803.24 1303.58,1787.69 C1302.91,1780.21 1301.05,1766.68 1299.94,1759.25 C1298.03,1748.25 1295.63,1737.87 1293.22,1729.01 C1289.89,1717.27 1280.37,1690.09 1275.15,1675.54 C1269.13,1659.06 1257.48,1627.73 1251.86,1612.88 C1242.89,1590.61 1231.28,1565.54 1226.91,1556.67 C1221.46,1546.42 1209.44,1525.14 1198.69,1507.92 C1188.35,1492.00 1173.72,1471.73 1164.17,1459.43 C1156.42,1449.73 1136.01,1427.77 1125.01,1416.00 C1113.35,1403.40 1092.29,1380.40 1088.70,1375.78 C1089.33,1375.96 1101.95,1387.91 1107.64,1393.61 C1118.48,1405.16 1139.86,1428.39 1150.11,1440.13 C1160.49,1452.41 1179.86,1476.61 1188.45,1488.09 C1192.72,1494.01 1199.87,1504.44 1204.84,1512.30 C1212.89,1525.62 1226.83,1553.27 1233.71,1567.34 C1240.17,1581.21 1252.46,1608.23 1258.70,1623.43 C1264.27,1637.91 1275.01,1667.46 1280.28,1682.04 C1284.03,1691.77 1287.82,1700.56 1288.76,1702.16 C1289.37,1698.72 1288.53,1693.43 1287.81,1690.39 C1286.73,1685.83 1276.18,1648.35 1271.17,1633.86 C1264.14,1615.20 1252.20,1586.78 1247.86,1577.46 C1240.80,1563.24 1226.09,1534.32 1217.90,1519.47 C1210.27,1506.28 1194.41,1480.49 1185.79,1468.74 C1181.37,1462.87 1170.83,1449.54 1168.29,1446.62 C1164.37,1442.17 1154.95,1432.88 1148.59,1427.45 C1141.15,1421.04 1129.99,1409.01 1129.22,1408.42 C1126.66,1406.47 1124.99,1406.74 1124.58,1407.08" fill="none" stroke="rgb(0, 0, 0)" stroke-width="20.00" stroke-opacity="1.00" stroke-linejoin="round"/>
<path d="M1070.38,1382.98 C1069.67,1382.98 1069.18,1382.98 1068.91,1382.97 C1068.64,1382.96 1068.21,1382.92 1067.62,1382.86 C1067.38,1382.79 1067.97,1399.28 1067.88,1405.11 C1067.66,1417.89 1062.60,1494.57 1060.59,1523.29 C1058.99,1556.17 1056.45,1621.18 1055.50,1653.30 C1055.32,1671.22 1055.20,1702.89 1055.25,1716.64 C1055.42,1726.02 1057.11,1757.61 1057.97,1772.72 C1059.39,1791.61 1063.23,1818.71 1064.37,1831.41 C1064.88,1836.98 1065.60,1839.31 1066.38,1840.47 C1067.19,1839.90 1067.45,1836.45 1067.43,1831.05 C1066.65,1800.89 1065.42,1736.68 1064.97,1702.64 C1064.80,1685.55 1064.57,1653.47 1064.51,1638.47 C1064.65,1620.67 1068.41,1548.23 1070.01,1516.74 C1070.52,1508.85 1071.47,1493.78 1071.59,1489.02 C1071.07,1490.31 1070.76,1491.49 1070.47,1493.55 C1070.17,1495.61 1070.04,1497.07 1069.93,1499.06" fill="none" stroke="rgb(0, 0, 0)" stroke-width="20.00" stroke-opacity="1.00" stroke-linejoin="round"/>
<path d="M1089.62,1382.98 C1090.33,1382.98 1090.82,1382.98 1091.09,1382.97 C1091.36,1382.96 1091.79,1382.92 1092.38,1382.86 C1092.62,1382.79 1092.03,1399.28 1092.12,1405.11 C1092.34,1417.89 1097.40,1494.57 1099.41,1523.29 C1101.01,1556.17 1103.55,1621.18 1104.50,1653.30 C1104.68,1671.22 1104.80,1702.89 1104.75,1716.64 C1104.58,1726.02 1102.89,1757.61 1102.03,1772.72 C1100.61,1791.61 1096.77,1818.71 1095.63,1831.41 C1095.12,1836.98 1094.40,1839.31 1093.62,1840.47 C1092.81,1839.90 1092.55,1836.45 1092.57,1831.05 C1093.35,1800.89 1094.58,1736.68 1095.03,1702.64 C1095.20,1685.55 1095.43,1653.47 1095.49,1638.47 C1095.35,1620.67 1091.59,1548.23 1089.99,1516.74 C1089.48,1508.85 1088.53,1493.78 1088.41,1489.02 C1088.93,1490.31 1089.24,1491.49 1089.53,1493.55 C1089.83,1495.61 1089.96,1497.07 1090.07,1499.06" fill="none" stroke="rgb(0, 0, 0)" stroke-width="20.00" stroke-opacity="1.00" stroke-linejoin="round"/>
<path d="M1061.64,1396.68 C1061.64,1396.67 1061.64,1402.69 1061.61,1405.13 C1061.41,1418.73 1058.89,1449.17 1057.35,1465.89 C1054.11,1497.95 1048.02,1560.90 1046.05,1587.64 C1045.09,1603.70 1043.59,1635.27 1043.03,1650.78 C1042.82,1665.51 1042.61,1694.93 1042.63,1709.62 C1042.94,1725.06 1043.74,1755.97 1044.45,1771.34 C1045.57,1788.06 1048.70,1823.81 1048.49,1831.36 C1048.40,1835.23 1048.25,1843.15 1048.78,1847.37 C1049.06,1849.57 1049.54,1850.63 1050.02,1850.72 C1051.39,1848.12 1053.47,1830.94 1054.39,1823.27 C1054.90,1819.25 1056.09,1814.22 1057.16,1812.98 C1058.01,1813.14 1059.43,1817.82 1060.10,1821.06 C1060.84,1824.80 1060.65,1828.51 1060.41,1828.69 C1060.41,1828.69 1057.08,1824.57 1057.08,1824.57" fill="none" stroke="rgb(0, 0, 0)" stroke-width="20.00" stroke-opacity="1.00" stroke-linejoin="round"/>
<path d="M1098.36,1396.68 C1098.36,1396.67 1098.36,1402.69 1098.39,1405.13 C1098.59,1418.73 1101.11,1449.17 1102.65,1465.89 C1105.89,1497.95 1111.98,1560.90 1113.95,1587.64 C1114.91,1603.70 1116.41,1635.27 1116.97,1650.78 C1117.18,1665.51 1117.39,1694.93 1117.37,1709.62 C1117.06,1725.06 1116.26,1755.97 1115.55,1771.34 C1114.43,1788.06 1111.30,1823.81 1111.51,1831.36 C1111.60,1835.23 1111.75,1843.15 1111.22,1847.37 C1110.94,1849.57 1110.46,1850.63 1109.98,1850.72 C1108.61,1848.12 1106.53,1830.94 1105.61,1823.27 C1105.10,1819.25 1103.91,1814.22 1102.84,1812.98 C1101.99,1813.14 1100.57,1817.82 1099.90,1821.06 C1099.16,1824.80 1099.35,1828.51 1099.59,1828.69 C1099.59,1828.69 1102.92,1824.57 1102.92,1824.57" fill="none" stroke="rgb(0, 0, 0)" stroke-width="20.00" stroke-opacity="1.00" stroke-linejoin="round"/>
<path d="M1053.97,1408.30 C1053.97,1408.30 1053.11,1405.37 1053.11,1405.37 C1051.86,1417.31 1047.52,1449.65 1045.26,1465.22 C1043.32,1479.93 1039.66,1509.33 1037.93,1524.00 C1036.34,1539.09 1033.34,1569.60 1031.94,1585.03 C1030.74,1601.06 1028.59,1631.94 1027.64,1646.79 C1026.44,1668.24 1024.33,1748.48 1024.47,1772.88 C1024.84,1785.88 1025.99,1816.33 1027.36,1829.64 C1027.75,1833.02 1028.50,1839.30 1029.09,1842.02 C1029.32,1843.07 1029.60,1844.13 1029.70,1844.40" fill="none" stroke="rgb(0, 0, 0)" stroke-width="20.00" stroke-opacity="1.00" stroke-linejoin="round"/>
<path d="M1106.03,1408.30 C1106.03,1408.30 1106.89,1405.37 1106.89,1405.37 C1108.14,1417.31 1112.48,1449.65 1114.74,1465.22 C1116.68,1479.93 1120.34,1509.33 1122.07,1524.00 C1123.66,1539.09 1126.66,1569.60 1128.06,1585.03 C1129.26,1601.06 1131.41,1631.94 1132.36,1646.79 C1133.56,1668.24 1135.67,1748.48 1135.53,1772.88 C1135.16,1785.88 1134.01,1816.33 1132.64,1829.64 C1132.25,1833.02 1131.50,1839.30 1130.91,1842.02 C1130.68,1843.07 1130.40,1844.13 1130.30,1844.40" fill="none" stroke="rgb(0, 0, 0)" stroke-width="20.00" stroke-opacity="1.00" stroke-linejoin="round"/>
<path d="M1041.93,1845.82 C1041.93,1845.82 1041.60,1847.13 1041.60,1847.13 C1041.37,1842.22 1036.64,1802.02 1035.26,1786.80 C1034.20,1771.14 1032.43,1739.78 1031.96,1724.19 C1031.66,1709.56 1031.75,1677.84 1032.26,1662.51 C1033.10,1647.07 1037.00,1604.02 1037.00,1603.57 C1036.95,1600.03 1035.94,1597.65 1035.12,1596.18" fill="none" stroke="rgb(0, 0, 0)" stroke-width="20.00" stroke-opacity="1.00" stroke-linejoin="round"/>
<path d="M1118.07,1845.82 C1118.07,1845.82 1118.40,1847.13 1118.40,1847.13 C1118.63,1842.22 1123.36,1802.02 1124.74,1786.80 C1125.80,1771.14 1127.57,1739.78 1128.04,1724.19 C1128.34,1709.56 1128.25,1677.84 1127.74,1662.51 C1126.90,1647.07 1123.00,1604.02 1123.00,1603.57 C1123.05,1600.03 1124.06,1597.65 1124.88,1596.18" fill="none" stroke="rgb(0, 0, 0)" stroke-width="20.00" stroke-opacity="1.00" stroke-linejoin="round"/>
<path d="M871.33,1849.32 C871.33,1849.34 871.12,1848.61 870.93,1847.51 C870.46,1844.82 869.84,1825.86 869.83,1819.22 C870.16,1801.95 871.98,1773.96 873.77,1760.12 C875.53,1747.76 883.70,1715.19 886.32,1706.49 C888.38,1699.92 902.52,1661.81 908.54,1646.74 C914.54,1632.82 926.75,1605.25 932.97,1591.59 C939.42,1578.19 952.80,1551.17 960.05,1537.53 C967.29,1524.58 982.56,1498.87 991.22,1485.30 C995.67,1478.67 1004.55,1465.69 1008.97,1459.35 C1014.08,1452.30 1024.64,1438.53 1028.30,1434.85 C1030.87,1432.28 1034.76,1429.19 1038.44,1426.87 C1040.01,1425.88 1040.83,1425.67 1041.93,1425.82 C1042.92,1428.00 1042.78,1432.31 1042.41,1435.37 C1038.26,1465.73 1030.40,1526.87 1027.05,1559.18 C1025.64,1574.25 1022.96,1604.75 1022.29,1617.00 C1021.71,1631.52 1020.78,1661.73 1020.42,1677.43 C1020.42,1692.09 1020.72,1722.15 1021.01,1737.56 C1021.75,1754.23 1023.35,1785.70 1024.22,1800.50 C1025.08,1815.77 1023.54,1828.64 1023.06,1829.96 C1022.25,1832.08 1020.36,1833.73 1018.19,1834.19 C1017.53,1834.32 1000.50,1835.31 993.23,1836.84 C985.95,1838.47 967.75,1842.51 964.03,1843.12 C954.49,1844.64 942.67,1845.57 936.93,1845.05 C933.18,1844.68 919.82,1842.00 908.60,1840.30 C904.57,1839.75 894.99,1838.40 894.91,1838.37 C893.29,1837.81 891.71,1836.57 891.09,1835.36 C889.80,1832.68 888.79,1827.88 888.55,1825.08 C888.10,1819.47 888.58,1806.52 889.41,1796.10 C890.64,1784.84 896.26,1751.32 899.33,1736.55 C902.84,1721.22 910.71,1691.39 915.02,1676.51 C919.57,1661.82 929.64,1632.28 935.44,1617.07 C943.01,1598.25 953.98,1574.01 960.44,1560.73 C968.77,1544.33 980.36,1524.08 991.16,1506.95 C995.35,1500.59 1004.17,1487.47 1009.18,1480.51 C1019.31,1467.33 1028.60,1457.29 1030.97,1455.53 C1030.79,1457.08 1021.94,1495.25 1018.57,1511.55 C1015.54,1527.94 1009.74,1563.67 1008.34,1574.33 C1006.77,1588.76 1003.89,1617.77 1002.82,1632.69 C1002.10,1647.66 1000.89,1678.67 1000.65,1695.04 C1000.64,1710.79 1000.83,1740.99 1001.04,1755.44 C1002.55,1795.28 1004.20,1819.78 1004.40,1823.68 C1003.67,1824.17 981.99,1825.76 965.94,1828.91 C958.09,1830.51 941.16,1833.81 934.08,1834.05 C930.50,1834.13 926.31,1833.12 922.58,1831.20 C919.35,1829.49 916.35,1826.92 914.37,1824.37 C911.71,1820.86 908.88,1816.09 907.97,1813.06 C906.98,1809.62 906.30,1803.60 906.54,1799.06 C906.91,1792.74 911.95,1757.48 915.04,1742.07 C918.14,1727.99 924.90,1698.97 928.73,1684.31 C932.89,1669.30 941.76,1639.75 946.13,1625.62 C949.86,1614.18 961.47,1584.08 967.45,1569.53 C975.24,1551.86 988.12,1525.85 994.41,1516.02 C998.61,1509.47 1003.38,1503.40 1005.59,1500.97 C1006.34,1501.56 1004.90,1508.10 1004.32,1510.47 C1000.25,1526.78 991.38,1563.53 988.79,1576.23 C986.45,1589.52 981.54,1619.66 980.29,1629.79 C978.69,1644.18 976.76,1668.07 975.99,1685.21 C975.69,1699.55 975.98,1725.66 977.17,1745.77 C980.95,1789.07 984.38,1810.62 984.54,1812.70 C984.63,1814.08 984.28,1814.95 983.44,1815.91 C982.35,1815.96 975.77,1815.82 972.87,1815.97 C968.68,1816.21 948.84,1820.73 945.44,1821.15 C940.51,1821.72 933.68,1820.87 931.34,1819.73 C929.15,1818.59 926.33,1815.23 925.54,1812.79 C924.36,1808.85 924.09,1796.09 924.70,1787.61 C925.73,1776.11 929.91,1743.80 931.98,1728.87 C934.32,1714.19 939.89,1684.39 942.83,1669.69 C946.16,1654.83 955.21,1619.63 958.22,1610.18 C964.38,1591.79 968.99,1581.61 970.71,1578.50 C971.21,1579.81 968.82,1592.92 967.70,1598.92 C961.43,1632.50 950.14,1695.17 945.90,1723.19 C943.51,1741.75 940.51,1778.57 940.33,1786.30 C940.16,1793.46 941.50,1808.26 943.04,1814.18 C945.13,1822.03 946.96,1823.91 947.78,1824.18 C949.19,1822.42 950.27,1810.20 950.78,1799.73 C951.46,1783.04 952.93,1749.71 953.73,1733.08 C954.88,1713.96 957.76,1687.71 958.88,1684.70 C959.65,1685.63 960.08,1689.02 960.26,1692.04 C962.23,1724.72 966.13,1783.01 967.35,1792.75 C968.28,1800.07 971.55,1813.71 972.45,1815.25 C973.93,1812.93 974.50,1811.77 974.80,1810.19 C976.17,1803.63 979.47,1769.20 980.70,1752.08 C981.66,1736.38 983.49,1705.38 984.35,1690.07 C985.20,1672.80 987.00,1635.93 986.57,1630.67 C986.27,1627.30 983.93,1620.57 982.66,1620.16 C982.47,1620.11 982.11,1620.10 981.58,1620.12" fill="none" stroke="rgb(0, 0, 0)" stroke-width="30.00" stroke-opacity="1.00" stroke-linejoin="round"/>
<path d="M1288.67,1849.32 C1288.67,1849.34 1288.88,1848.61 1289.07,1847.51 C1289.54,1844.82 1290.16,1825.86 1290.17,1819.22 C1289.84,1801.95 1288.02,1773.96 1286.23,1760.12 C1284.47,1747.76 1276.30,1715.19 1273.68,1706.49 C1271.62,1699.92 1257.48,1661.81 1251.46,1646.74 C1245.46,1632.82 1233.25,1605.25 1227.03,1591.59 C1220.58,1578.19 1207.20,1551.17 1199.95,1537.53 C1192.71,1524.58 1177.44,1498.87 1168.78,1485.30 C1164.33,1478.67 1155.45,1465.69 1151.03,1459.35 C1145.92,1452.30 1135.36,1438.53 1131.70,1434.85 C1129.13,1432.28 1125.24,1429.19 1121.56,1426.87 C1119.99,1425.88 1119.17,1425.67 1118.07,1425.82 C1117.08,1428.00 1117.22,1432.31 1117.59,1435.37 C1121.74,1465.73 1129.60,1526.87 1132.95,1559.18 C1134.36,1574.25 1137.04,1604.75 1137.71,1617.00 C1138.29,1631.52 1139.22,1661.73 1139.58,1677.43 C1139.58,1692.09 1139.28,1722.15 1138.99,1737.56 C1138.25,1754.23 1136.65,1785.70 1135.78,1800.50 C1134.92,1815.77 1136.46,1828.64 1136.94,1829.96 C1137.75,1832.08 1139.64,1833.73 1141.81,1834.19 C1142.47,1834.32 1159.50,1835.31 1166.77,1836.84 C1174.05,1838.47 1192.25,1842.51 1195.97,1843.12 C1205.51,1844.64 1217.33,1845.57 1223.07,1845.05 C1226.82,1844.68 1240.18,1842.00 1251.40,1840.30 C1255.43,1839.75 1265.01,1838.40 1265.09,1838.37 C1266.71,1837.81 1268.29,1836.57 1268.91,1835.36 C1270.20,1832.68 1271.21,1827.88 1271.45,1825.08 C1271.90,1819.47 1271.42,1806.52 1270.59,1796.10 C1269.36,1784.84 1263.74,1751.32 1260.67,1736.55 C1257.16,1721.22 1249.29,1691.39 1244.98,1676.51 C1240.43,1661.82 1230.36,1632.28 1224.56,1617.07 C1216.99,1598.25 1206.02,1574.01 1199.56,1560.73 C1191.23,1544.33 1179.64,1524.08 1168.84,1506.95 C1164.65,1500.59 1155.83,1487.47 1150.82,1480.51 C1140.69,1467.33 1131.40,1457.29 1129.03,1455.53 C1129.21,1457.08 1138.06,1495.25 1141.43,1511.55 C1144.46,1527.94 1150.26,1563.67 1151.66,1574.33 C1153.23,1588.76 1156.11,1617.77 1157.18,1632.69 C1157.90,1647.66 1159.11,1678.67 1159.35,1695.04 C1159.36,1710.79 1159.17,1740.99 1158.96,1755.44 C1157.45,1795.28 1155.80,1819.78 1155.60,1823.68 C1156.33,1824.17 1178.01,1825.76 1194.06,1828.91 C1201.91,1830.51 1218.84,1833.81 1225.92,1834.05 C1229.50,1834.13 1233.69,1833.12 1237.42,1831.20 C1240.65,1829.49 1243.65,1826.92 1245.63,1824.37 C1248.29,1820.86 1251.12,1816.09 1252.03,1813.06 C1253.02,1809.62 1253.70,1803.60 1253.46,1799.06 C1253.09,1792.74 1248.05,1757.48 1244.96,1742.07 C1241.86,1727.99 1235.10,1698.97 1231.27,1684.31 C1227.11,1669.30 1218.24,1639.75 1213.87,1625.62 C1210.14,1614.18 1198.53,1584.08 1192.55,1569.53 C1184.76,1551.86 1171.88,1525.85 1165.59,1516.02 C1161.39,1509.47 1156.62,1503.40 1154.41,1500.97 C1153.66,1501.56 1155.10,1508.10 1155.68,1510.47 C1159.75,1526.78 1168.62,1563.53 1171.21,1576.23 C1173.55,1589.52 1178.46,1619.66 1179.71,1629.79 C1181.31,1644.18 1183.24,1668.07 1184.01,1685.21 C1184.31,1699.55 1184.02,1725.66 1182.83,1745.77 C1179.05,1789.07 1175.62,1810.62 1175.46,1812.70 C1175.37,1814.08 1175.72,1814.95 1176.56,1815.91 C1177.65,1815.96 1184.23,1815.82 1187.13,1815.97 C1191.32,1816.21 1211.16,1820.73 1214.56,1821.15 C1219.49,1821.72 1226.32,1820.87 1228.66,1819.73 C1230.85,1818.59 1233.67,1815.23 1234.46,1812.79 C1235.64,1808.85 1235.91,1796.09 1235.30,1787.61 C1234.27,1776.11 1230.09,1743.80 1228.02,1728.87 C1225.68,1714.19 1220.11,1684.39 1217.17,1669.69 C1213.84,1654.83 1204.79,1619.63 1201.78,1610.18 C1195.62,1591.79 1191.01,1581.61 1189.29,1578.50 C1188.79,1579.81 1191.18,1592.92 1192.30,1598.92 C1198.57,1632.50 1209.86,1695.17 1214.10,1723.19 C1216.49,1741.75 1219.49,1778.57 1219.67,1786.30 C1219.84,1793.46 1218.50,1808.26 1216.96,1814.18 C1214.87,1822.03 1213.04,1823.91 1212.22,1824.18 C1210.81,1822.42 1209.73,1810.20 1209.22,1799.73 C1208.54,1783.04 1207.07,1749.71 1206.27,1733.08 C1205.12,1713.96 1202.24,1687.71 1201.12,1684.70 C1200.35,1685.63 1199.92,1689.02 1199.74,1692.04 C1197.77,1724.72 1193.87,1783.01 1192.65,1792.75 C1191.72,1800.07 1188.45,1813.71 1187.55,1815.25 C1186.07,1812.93 1185.50,1811.77 1185.20,1810.19 C1183.83,1803.63 1180.53,1769.20 1179.30,1752.08 C1178.34,1736.38 1176.51,1705.38 1175.65,1690.07 C1174.80,1672.80 1173.00,1635.93 1173.43,1630.67 C1173.73,1627.30 1176.07,1620.57 1177.34,1620.16 C1177.53,1620.11 1177.89,1620.10 1178.42,1620.12" fill="none" stroke="rgb(0, 0, 0)" stroke-width="30.00" stroke-opacity="1.00" stroke-linejoin="round"/>
<path d="M720.00,728.67" fill="none" stroke="rgb(0, 0, 0)" stroke-width="50.00" stroke-opacity="1.00" stroke-linejoin="round"/>
<path d="M1440.00,728.67" fill="none" stroke="rgb(0, 0, 0)" stroke-width="50.00" stroke-opacity="1.00" stroke-linejoin="round"/>
<path d="M720.00,728.67 L695.33,528.00" fill="none" stroke="rgb(0, 0, 0)" stroke-width="50.00" stroke-opacity="1.00" stroke-linejoin="round"/>
<path d="M695.33,528.00" fill="none" stroke="rgb(0, 0, 0)" stroke-width="50.00" stroke-opacity="1.00" stroke-linejoin="round"/>
<path d="M1440.00,728.67 L1464.67,528.00" fill="none" stroke="rgb(0, 0, 0)" stroke-width="50.00" stroke-opacity="1.00" stroke-linejoin="round"/>
<path d="M1464.67,528.00" fill="none" stroke="rgb(0, 0, 0)" stroke-width="50.00" stroke-opacity="1.00" stroke-linejoin="round"/>
<path d="M695.33,528.00 L683.33,287.33" fill="none" stroke="rgb(0, 0, 0)" stroke-width="50.00" stroke-opacity="1.00" stroke-linejoin="round"/>
<path d="M683.33,287.33" fill="none" stroke="rgb(0, 0, 0)" stroke-width="50.00" stroke-opacity="1.00" stroke-linejoin="round"/>
<path d="M1464.67,528.00 L1476.67,287.33" fill="none" stroke="rgb(0, 0, 0)" stroke-width="50.00" stroke-opacity="1.00" stroke-linejoin="round"/>
<path d="M1476.67,287.33" fill="none" stroke="rgb(0, 0, 0)" stroke-width="50.00" stroke-opacity="1.00" stroke-linejoin="round"/>
<path d="M683.33,287.33 L618.67,296.00" fill="none" stroke="rgb(0, 0, 0)" stroke-width="50.00" stroke-opacity="1.00" stroke-linejoin="round"/>
<path d="M618.67,296.00" fill="none" stroke="rgb(0, 0, 0)" stroke-width="50.00" stroke-opacity="1.00" stroke-linejoin="round"/>
<path d="M1476.67,287.33 L1541.33,296.00" fill="none" stroke="rgb(0, 0, 0)" stroke-width="50.00" stroke-opacity="1.00" stroke-linejoin="round"/>
<path d="M1541.33,296.00" fill="none" stroke="rgb(0, 0, 0)" stroke-width="50.00" stroke-opacity="1.00" stroke-linejoin="round"/>
<path d="M618.67,296.00 L651.33,754.00" fill="none" stroke="rgb(0, 0, 0)" stroke-width="50.00" stroke-opacity="1.00" stroke-linejoin="round"/>
<path d="M651.33,754.00" fill="none" stroke="rgb(0, 0, 0)" stroke-width="50.00" stroke-opacity="1.00" stroke-linejoin="round"/>
<path d="M1541.33,296.00 L1508.67,754.00" fill="none" stroke="rgb(0, 0, 0)" stroke-width="50.00" stroke-opacity="1.00" stroke-linejoin="round"/>
<path d="M1508.67,754.00" fill="none" stroke="rgb(0, 0, 0)" stroke-width="50.00" stroke-opacity="1.00" stroke-linejoin="round"/>
<path d="M653.09,307.41" fill="none" stroke="rgb(0, 0, 0)" stroke-width="50.00" stroke-opacity="1.00" stroke-linejoin="round"/>
<path d="M1506.91,307.41" fill="none" stroke="rgb(0, 0, 0)" stroke-width="50.00" stroke-opacity="1.00" stroke-linejoin="round"/>
<path d="M653.09,307.41 L685.19,749.38" fill="none" stroke="rgb(0, 0, 0)" stroke-width="50.00" stroke-opacity="1.00" stroke-linejoin="round"/>
<path d="M685.19,749.38" fill="none" stroke="rgb(0, 0, 0)" stroke-width="50.00" stroke-opacity="1.00" stroke-linejoin="round"/>
<path d="M1506.91,307.41 L1474.81,749.38" fill="none" stroke="rgb(0, 0, 0)" stroke-width="50.00" stroke-opacity="1.00" stroke-linejoin="round"/>
<path d="M1474.81,749.38" fill="none" stroke="rgb(0, 0, 0)" stroke-width="50.00" stroke-opacity="1.00" stroke-linejoin="round"/>
<path d="M692.73,1830.30" fill="none" stroke="rgb(0, 0, 0)" stroke-width="50.00" stroke-opacity="1.00" stroke-linejoin="round"/>
<path d="M1467.27,1830.30" fill="none" stroke="rgb(0, 0, 0)" stroke-width="50.00" stroke-opacity="1.00" stroke-linejoin="round"/>
<path d="M692.73,1830.30 L718.18,1395.76" fill="none" stroke="rgb(0, 0, 0)" stroke-width="50.00" stroke-opacity="1.00" stroke-linejoin="round"/>
<path d="M718.18,1395.76" fill="none" stroke="rgb(0, 0, 0)" stroke-width="50.00" stroke-opacity="1.00" stroke-linejoin="round"/>
<path d="M1467.27,1830.30 L1441.82,1395.76" fill="none" stroke="rgb(0, 0, 0)" stroke-width="50.00" stroke-opacity="1.00" stroke-linejoin="round"/>
<path d="M1441.82,1395.76" fill="none" stroke="rgb(0, 0, 0)" stroke-width="50.00" stroke-opacity="1.00" stroke-linejoin="round"/>
<path d="M718.18,1395.76 L664.85,1840.00" fill="none" stroke="rgb(0, 0, 0)" stroke-width="50.00" stroke-opacity="1.00" stroke-linejoin="round"/>
<path d="M664.85,1839.70" fill="none" stroke="rgb(0, 0, 0)" stroke-width="50.00" stroke-opacity="1.00" stroke-linejoin="round"/>
<path d="M1441.82,1395.76 L1495.15,1840.00" fill="none" stroke="rgb(0, 0, 0)" stroke-width="50.00" stroke-opacity="1.00" stroke-linejoin="round"/>
<path d="M1495.15,1839.70" fill="none" stroke="rgb(0, 0, 0)" stroke-width="50.00" stroke-opacity="1.00" stroke-linejoin="round"/>
<path d="M664.24,1839.39 L621.21,1835.76" fill="none" stroke="rgb(0, 0, 0)" stroke-width="50.00" stroke-opacity="1.00" stroke-linejoin="round"/>
<path d="M621.21,1835.76" fill="none" stroke="rgb(0, 0, 0)" stroke-width="50.00" stroke-opacity="1.00" stroke-linejoin="round"/>
<path d="M1495.76,1839.39 L1538.79,1835.76" fill="none" stroke="rgb(0, 0, 0)" stroke-width="50.00" stroke-opacity="1.00" stroke-linejoin="round"/>
<path d="M1538.79,1835.76" fill="none" stroke="rgb(0, 0, 0)" stroke-width="50.00" stroke-opacity="1.00" stroke-linejoin="round"/>
<path d="M621.21,1835.76 L652.73,1373.33" fill="none" stroke="rgb(0, 0, 0)" stroke-width="50.00" stroke-opacity="1.00" stroke-linejoin="round"/>
<path d="M652.73,1373.33" fill="none" stroke="rgb(0, 0, 0)" stroke-width="50.00" stroke-opacity="1.00" stroke-linejoin="round"/>
<path d="M1538.79,1835.76 L1507.27,1373.33" fill="none" stroke="rgb(0, 0, 0)" stroke-width="50.00" stroke-opacity="1.00" stroke-linejoin="round"/>
<path d="M1507.27,1373.33" fill="none" stroke="rgb(0, 0, 0)" stroke-width="50.00" stroke-opacity="1.00" stroke-linejoin="round"/>
<path d="M652.73,1373.33 L692.73,1377.58" fill="none" stroke="rgb(0, 0, 0)" stroke-width="50.00" stroke-opacity="1.00" stroke-linejoin="round"/>
<path d="M692.73,1377.58" fill="none" stroke="rgb(0, 0, 0)" stroke-width="50.00" stroke-opacity="1.00" stroke-linejoin="round"/>
<path d="M1507.27,1373.33 L1467.27,1377.58" fill="none" stroke="rgb(0, 0, 0)" stroke-width="50.00" stroke-opacity="1.00" stroke-linejoin="round"/>
<path d="M1467.27,1377.58" fill="none" stroke="rgb(0, 0, 0)" stroke-width="50.00" stroke-opacity="1.00" stroke-linejoin="round"/>
<path d="M692.73,1377.58 L650.91,1770.91" fill="none" stroke="rgb(0, 0, 0)" stroke-width="50.00" stroke-opacity="1.00" stroke-linejoin="round"/>
<path d="M650.91,1770.91" fill="none" stroke="rgb(0, 0, 0)" stroke-width="50.00" stroke-opacity="1.00" stroke-linejoin="round"/>
<path d="M1467.27,1377.58 L1509.09,1770.91" fill="none" stroke="rgb(0, 0, 0)" stroke-width="50.00" stroke-opacity="1.00" stroke-linejoin="round"/>
<path d="M1509.09,1770.91" fill="none" stroke="rgb(0, 0, 0)" stroke-width="50.00" stroke-opacity="1.00" stroke-linejoin="round"/>
<path d="M711.33,1392.58 C710.74,1391.44 712.76,1385.54 714.21,1382.10 C717.17,1375.23 723.64,1362.41 727.09,1356.82 C730.67,1351.06 737.27,1343.66 744.70,1335.70 C772.36,1306.68 808.95,1265.90 831.33,1240.73 C839.84,1230.58 857.61,1208.99 866.87,1197.55 C875.60,1186.40 893.35,1163.11 902.36,1150.97 C922.37,1122.85 950.39,1081.21 951.66,1079.71" fill="none" stroke="rgb(0, 0, 0)" stroke-width="50.00" stroke-opacity="1.00" stroke-linejoin="round"/>
<path d="M1448.67,1392.58 C1449.26,1391.44 1447.24,1385.54 1445.79,1382.10 C1442.83,1375.23 1436.36,1362.41 1432.91,1356.82 C1429.33,1351.06 1422.73,1343.66 1415.30,1335.70 C1387.64,1306.68 1351.05,1265.90 1328.67,1240.73 C1320.16,1230.58 1302.39,1208.99 1293.13,1197.55 C1284.40,1186.40 1266.65,1163.11 1257.64,1150.97 C1237.63,1122.85 1209.61,1081.21 1208.34,1079.71" fill="none" stroke="rgb(0, 0, 0)" stroke-width="50.00" stroke-opacity="1.00" stroke-linejoin="round"/>
<path d="M734.62,1385.55 C734.79,1385.19 734.97,1384.82 735.14,1384.45 C738.15,1378.21 743.74,1366.81 749.37,1356.51 C756.71,1343.79 765.22,1329.12 766.39,1327.17" fill="none" stroke="rgb(0, 0, 0)" stroke-width="50.00" stroke-opacity="1.00" stroke-linejoin="round"/>
<path d="M1425.38,1385.55 C1425.21,1385.19 1425.03,1384.82 1424.86,1384.45 C1421.85,1378.21 1416.26,1366.81 1410.63,1356.51 C1403.29,1343.79 1394.78,1329.12 1393.61,1327.17" fill="none" stroke="rgb(0, 0, 0)" stroke-width="50.00" stroke-opacity="1.00" stroke-linejoin="round"/>
<path d="M738.55,1375.77 C740.69,1373.43 746.73,1367.83 749.37,1365.71 C751.61,1363.91 766.18,1353.79 772.17,1349.54 C776.60,1346.27 804.72,1320.51 816.95,1309.69 C834.73,1294.57 849.45,1280.63 857.41,1271.51 C862.10,1266.05 884.12,1236.61 892.24,1224.93 C900.61,1212.39 917.48,1186.67 925.82,1173.31 C933.59,1160.40 948.64,1134.69 955.92,1121.89 C959.26,1115.68 967.02,1100.72 969.81,1094.70 C974.23,1084.93 975.14,1082.07 975.11,1081.72" fill="none" stroke="rgb(0, 0, 0)" stroke-width="50.00" stroke-opacity="1.00" stroke-linejoin="round"/>
<path d="M1421.45,1375.77 C1419.31,1373.43 1413.27,1367.83 1410.63,1365.71 C1408.39,1363.91 1393.82,1353.79 1387.83,1349.54 C1383.40,1346.27 1355.28,1320.51 1343.05,1309.69 C1325.27,1294.57 1310.55,1280.63 1302.59,1271.51 C1297.90,1266.05 1275.88,1236.61 1267.76,1224.93 C1259.39,1212.39 1242.52,1186.67 1234.18,1173.31 C1226.41,1160.40 1211.36,1134.69 1204.08,1121.89 C1200.74,1115.68 1192.98,1100.72 1190.19,1094.70 C1185.77,1084.93 1184.86,1082.07 1184.89,1081.72" fill="none" stroke="rgb(0, 0, 0)" stroke-width="50.00" stroke-opacity="1.00" stroke-linejoin="round"/>
<path d="M677.57,1359.83 C678.75,1359.78 680.49,1359.51 681.71,1359.12 C686.59,1357.51 698.11,1351.34 706.82,1346.11 C718.87,1338.60 743.61,1322.35 759.39,1310.94 C767.37,1304.99 786.61,1289.58 802.82,1274.97 C817.19,1261.59 835.82,1242.53 845.67,1231.88 C850.97,1225.91 860.94,1214.50 865.61,1209.07 C872.52,1200.75 885.88,1183.07 887.49,1180.92" fill="none" stroke="rgb(0, 0, 0)" stroke-width="50.00" stroke-opacity="1.00" stroke-linejoin="round"/>
<path d="M1482.43,1359.83 C1481.25,1359.78 1479.51,1359.51 1478.29,1359.12 C1473.41,1357.51 1461.89,1351.34 1453.18,1346.11 C1441.13,1338.60 1416.39,1322.35 1400.61,1310.94 C1392.63,1304.99 1373.39,1289.58 1357.18,1274.97 C1342.81,1261.59 1324.18,1242.53 1314.33,1231.88 C1309.03,1225.91 1299.06,1214.50 1294.39,1209.07 C1287.48,1200.75 1274.12,1183.07 1272.51,1180.92" fill="none" stroke="rgb(0, 0, 0)" stroke-width="50.00" stroke-opacity="1.00" stroke-linejoin="round"/>
<path d="M813.84,1335.14 C813.39,1335.91 813.08,1336.44 812.90,1336.73 C812.72,1337.03 812.41,1337.51 811.98,1338.17 C817.55,1333.91 844.19,1310.52 857.53,1298.73 C873.68,1283.95 891.77,1265.67 898.86,1257.86 C910.17,1244.91 926.66,1223.64 934.49,1212.03 C940.67,1202.43 956.95,1173.94 962.04,1163.90 C965.52,1156.76 971.80,1142.77 974.81,1135.86 C977.65,1129.00 982.62,1114.81 984.78,1107.41 C986.77,1100.02 990.01,1085.77 991.23,1079.30 C992.30,1072.74 993.97,1060.21 994.28,1059.12 C994.61,1060.14 994.81,1060.80 994.90,1061.09 C994.98,1061.38 995.07,1061.69 995.16,1062.04" fill="none" stroke="rgb(0, 0, 0)" stroke-width="30.00" stroke-opacity="1.00" stroke-linejoin="round"/>
<path d="M1346.16,1335.14 C1346.61,1335.91 1346.92,1336.44 1347.10,1336.73 C1347.28,1337.03 1347.59,1337.51 1348.02,1338.17 C1342.45,1333.91 1315.81,1310.52 1302.47,1298.73 C1286.32,1283.95 1268.23,1265.67 1261.14,1257.86 C1249.83,1244.91 1233.34,1223.64 1225.51,1212.03 C1219.33,1202.43 1203.05,1173.94 1197.96,1163.90 C1194.48,1156.76 1188.20,1142.77 1185.19,1135.86 C1182.35,1129.00 1177.38,1114.81 1175.22,1107.41 C1173.23,1100.02 1169.99,1085.77 1168.77,1079.30 C1167.70,1072.74 1166.03,1060.21 1165.72,1059.12 C1165.39,1060.14 1165.19,1060.80 1165.10,1061.09 C1165.02,1061.38 1164.93,1061.69 1164.84,1062.04" fill="none" stroke="rgb(0, 0, 0)" stroke-width="30.00" stroke-opacity="1.00" stroke-linejoin="round"/>
<path d="M997.90,1065.23 C998.04,1067.87 997.96,1072.22 997.59,1075.47 C996.88,1081.40 993.71,1094.60 990.92,1102.25 C989.78,1105.33 982.33,1123.63 979.36,1130.78 C975.35,1139.84 955.35,1176.15 951.61,1183.18 C950.05,1186.18 948.10,1190.68 947.51,1192.22" fill="none" stroke="rgb(0, 0, 0)" stroke-width="30.00" stroke-opacity="1.00" stroke-linejoin="round"/>
<path d="M1162.10,1065.23 C1161.96,1067.87 1162.04,1072.22 1162.41,1075.47 C1163.12,1081.40 1166.29,1094.60 1169.08,1102.25 C1170.22,1105.33 1177.67,1123.63 1180.64,1130.78 C1184.65,1139.84 1204.65,1176.15 1208.39,1183.18 C1209.95,1186.18 1211.90,1190.68 1212.49,1192.22" fill="none" stroke="rgb(0, 0, 0)" stroke-width="30.00" stroke-opacity="1.00" stroke-linejoin="round"/>
<path d="M955.71,1185.94 C955.79,1185.65 956.32,1184.67 957.29,1183.07 C963.05,1173.81 967.40,1166.37 972.03,1156.94 C981.90,1135.49 984.55,1128.75 984.86,1127.93" fill="none" stroke="rgb(0, 0, 0)" stroke-width="30.00" stroke-opacity="1.00" stroke-linejoin="round"/>
<path d="M1204.29,1185.94 C1204.21,1185.65 1203.68,1184.67 1202.71,1183.07 C1196.95,1173.81 1192.60,1166.37 1187.97,1156.94 C1178.10,1135.49 1175.45,1128.75 1175.14,1127.93" fill="none" stroke="rgb(0, 0, 0)" stroke-width="30.00" stroke-opacity="1.00" stroke-linejoin="round"/>
<path d="M655.20,1350.43 C657.04,1349.54 661.02,1348.20 665.25,1345.81 C666.53,1345.08 683.44,1334.64 689.31,1331.00 C690.77,1330.08 703.81,1320.03 709.78,1315.19 C715.55,1310.25 726.85,1300.39 732.48,1295.76 C743.40,1287.19 769.28,1269.15 776.15,1263.70 C780.91,1259.75 790.48,1251.18 795.24,1246.38 C805.00,1236.33 821.36,1216.43 833.03,1201.42 C843.17,1188.13 862.58,1162.63 871.85,1150.42 C878.50,1141.55 892.34,1120.88 903.73,1102.19 C912.54,1087.37 926.09,1064.51 930.83,1056.47 C931.66,1055.06 931.94,1054.51 932.08,1054.05" fill="none" stroke="rgb(0, 0, 0)" stroke-width="30.00" stroke-opacity="1.00" stroke-linejoin="round"/>
<path d="M1504.80,1350.43 C1502.96,1349.54 1498.98,1348.20 1494.75,1345.81 C1493.47,1345.08 1476.56,1334.64 1470.69,1331.00 C1469.23,1330.08 1456.19,1320.03 1450.22,1315.19 C1444.45,1310.25 1433.15,1300.39 1427.52,1295.76 C1416.60,1287.19 1390.72,1269.15 1383.85,1263.70 C1379.09,1259.75 1369.52,1251.18 1364.76,1246.38 C1355.00,1236.33 1338.64,1216.43 1326.97,1201.42 C1316.83,1188.13 1297.42,1162.63 1288.15,1150.42 C1281.50,1141.55 1267.66,1120.88 1256.27,1102.19 C1247.46,1087.37 1233.91,1064.51 1229.17,1056.47 C1228.34,1055.06 1228.06,1054.51 1227.92,1054.05" fill="none" stroke="rgb(0, 0, 0)" stroke-width="30.00" stroke-opacity="1.00" stroke-linejoin="round"/>
<path d="M880.67,1124.42 C881.65,1121.85 891.62,1102.93 893.32,1098.86 C899.15,1084.60 904.28,1065.58 906.08,1058.67 C907.72,1051.64 909.56,1043.79 909.75,1042.98" fill="none" stroke="rgb(0, 0, 0)" stroke-width="30.00" stroke-opacity="1.00" stroke-linejoin="round"/>
<path d="M1279.33,1124.42 C1278.35,1121.85 1268.38,1102.93 1266.68,1098.86 C1260.85,1084.60 1255.72,1065.58 1253.92,1058.67 C1252.28,1051.64 1250.44,1043.79 1250.25,1042.98" fill="none" stroke="rgb(0, 0, 0)" stroke-width="30.00" stroke-opacity="1.00" stroke-linejoin="round"/>
<path d="M942.25,1043.38 C942.25,1043.38 940.63,1041.46 940.63,1041.46 C940.25,1042.11 941.15,1048.62 942.06,1051.83 C942.97,1054.95 945.37,1059.95 946.84,1061.68 C947.22,1062.11 949.29,1063.89 949.98,1064.15 C951.74,1064.76 954.77,1064.80 956.89,1064.15 C959.60,1063.28 966.45,1059.45 969.87,1057.55 C973.03,1055.77 976.79,1055.17 978.50,1055.93 C981.35,1057.28 984.64,1062.18 985.10,1063.70 C985.18,1063.98 985.23,1064.45 985.26,1065.11" fill="none" stroke="rgb(0, 0, 0)" stroke-width="30.00" stroke-opacity="1.00" stroke-linejoin="round"/>
<path d="M1217.75,1043.38 C1217.75,1043.38 1219.37,1041.46 1219.37,1041.46 C1219.75,1042.11 1218.85,1048.62 1217.94,1051.83 C1217.03,1054.95 1214.63,1059.95 1213.16,1061.68 C1212.78,1062.11 1210.71,1063.89 1210.02,1064.15 C1208.26,1064.76 1205.23,1064.80 1203.11,1064.15 C1200.40,1063.28 1193.55,1059.45 1190.13,1057.55 C1186.97,1055.77 1183.21,1055.17 1181.50,1055.93 C1178.65,1057.28 1175.36,1062.18 1174.90,1063.70 C1174.82,1063.98 1174.77,1064.45 1174.74,1065.11" fill="none" stroke="rgb(0, 0, 0)" stroke-width="30.00" stroke-opacity="1.00" stroke-linejoin="round"/>
<path d="M651.51,776.92 C651.51,776.92 651.31,775.51 651.31,775.51 C654.50,776.46 669.17,783.62 675.19,786.76 C679.81,789.28 693.28,797.31 699.26,801.13 C713.39,810.73 728.32,822.10 742.22,833.82 C750.81,841.35 774.75,864.18 784.93,874.11 C792.92,882.21 819.81,911.69 827.83,921.42 C837.21,933.41 854.54,956.79 863.13,969.17 C874.28,985.73 886.45,1005.21 894.28,1021.16 C898.33,1029.63 901.46,1036.86 904.11,1045.26 C906.05,1051.86 909.16,1062.70 910.06,1066.46 C910.48,1068.22 910.95,1069.82 911.82,1072.61" fill="none" stroke="rgb(0, 0, 0)" stroke-width="30.00" stroke-opacity="1.00" stroke-linejoin="round"/>
<path d="M1508.49,776.92 C1508.49,776.92 1508.69,775.51 1508.69,775.51 C1505.50,776.46 1490.83,783.62 1484.81,786.76 C1480.19,789.28 1466.72,797.31 1460.74,801.13 C1446.61,810.73 1431.68,822.10 1417.78,833.82 C1409.19,841.35 1385.25,864.18 1375.07,874.11 C1367.08,882.21 1340.19,911.69 1332.17,921.42 C1322.79,933.41 1305.46,956.79 1296.87,969.17 C1285.72,985.73 1273.55,1005.21 1265.72,1021.16 C1261.67,1029.63 1258.54,1036.86 1255.89,1045.26 C1253.95,1051.86 1250.84,1062.70 1249.94,1066.46 C1249.52,1068.22 1249.05,1069.82 1248.18,1072.61" fill="none" stroke="rgb(0, 0, 0)" stroke-width="30.00" stroke-opacity="1.00" stroke-linejoin="round"/>
<path d="M663.73,791.94 C665.68,792.85 680.63,802.04 688.12,806.85 C698.30,813.65 725.59,833.84 738.01,843.76 C749.90,853.58 773.46,873.94 784.52,884.75 C795.40,895.89 813.82,915.15 824.31,927.82 C833.97,939.83 845.07,953.68 846.52,955.51" fill="none" stroke="rgb(0, 0, 0)" stroke-width="30.00" stroke-opacity="1.00" stroke-linejoin="round"/>
<path d="M1496.27,791.94 C1494.32,792.85 1479.37,802.04 1471.88,806.85 C1461.70,813.65 1434.41,833.84 1421.99,843.76 C1410.10,853.58 1386.54,873.94 1375.48,884.75 C1364.60,895.89 1346.18,915.15 1335.69,927.82 C1326.03,939.83 1314.93,953.68 1313.48,955.51" fill="none" stroke="rgb(0, 0, 0)" stroke-width="30.00" stroke-opacity="1.00" stroke-linejoin="round"/>
<path d="M664.04,772.79 C664.42,771.66 664.68,770.92 664.84,770.56 C664.99,770.19 665.25,769.70 665.62,769.07 C668.68,769.86 682.61,777.40 692.46,783.45 C701.65,789.33 721.34,803.68 737.92,817.37 C750.57,828.16 772.82,848.66 783.61,859.19 C794.55,870.23 816.38,893.46 827.02,905.59 C837.24,917.63 856.81,942.04 865.33,953.29 C873.53,964.70 889.48,988.19 896.84,1000.44 C905.09,1014.40 918.34,1040.31 922.44,1050.46 C925.28,1057.76 930.42,1071.22 932.73,1077.36 C933.70,1079.92 935.65,1084.30 936.70,1084.44 C937.59,1083.80 937.20,1077.87 936.04,1073.10 C934.49,1066.87 928.25,1051.06 926.35,1046.87 C921.86,1037.06 905.56,1007.83 898.07,995.52 C889.89,982.73 872.91,957.90 863.95,945.71 C854.71,933.68 836.52,910.55 827.38,899.59 C817.12,887.74 796.67,865.70 787.11,856.01 C777.26,846.37 753.68,825.64 741.37,815.30 C732.13,807.88 704.46,787.53 691.13,777.86 C687.80,775.48 686.08,773.39 685.58,772.24 C685.58,772.24 686.04,771.10 686.04,771.10 C688.62,770.71 693.29,771.93 696.02,772.95 C700.88,774.80 714.82,781.98 720.93,785.76 C727.28,789.78 737.87,796.84 744.46,801.59 C752.63,807.79 776.70,827.95 789.37,839.61 C799.72,849.53 821.17,871.16 831.90,882.54 C842.40,894.05 862.54,917.39 871.73,928.64 C879.03,937.92 902.27,970.10 907.71,978.95 C911.32,985.01 917.96,997.24 921.19,1003.37 C924.60,1010.41 930.94,1023.91 933.56,1029.99 C939.48,1044.42 944.30,1061.85 944.82,1065.92 C940.55,1052.74 929.45,1025.71 923.37,1010.68 C917.56,998.17 911.54,985.18 910.93,983.52" fill="none" stroke="rgb(0, 0, 0)" stroke-width="30.00" stroke-opacity="1.00" stroke-linejoin="round"/>
<path d="M1495.96,772.79 C1495.58,771.66 1495.32,770.92 1495.16,770.56 C1495.01,770.19 1494.75,769.70 1494.38,769.07 C1491.32,769.86 1477.39,777.40 1467.54,783.45 C1458.35,789.33 1438.66,803.68 1422.08,817.37 C1409.43,828.16 1387.18,848.66 1376.39,859.19 C1365.45,870.23 1343.62,893.46 1332.98,905.59 C1322.76,917.63 1303.19,942.04 1294.67,953.29 C1286.47,964.70 1270.52,988.19 1263.16,1000.44 C1254.91,1014.40 1241.66,1040.31 1237.56,1050.46 C1234.72,1057.76 1229.58,1071.22 1227.27,1077.36 C1226.30,1079.92 1224.35,1084.30 1223.30,1084.44 C1222.41,1083.80 1222.80,1077.87 1223.96,1073.10 C1225.51,1066.87 1231.75,1051.06 1233.65,1046.87 C1238.14,1037.06 1254.44,1007.83 1261.93,995.52 C1270.11,982.73 1287.09,957.90 1296.05,945.71 C1305.29,933.68 1323.48,910.55 1332.62,899.59 C1342.88,887.74 1363.33,865.70 1372.89,856.01 C1382.74,846.37 1406.32,825.64 1418.63,815.30 C1427.87,807.88 1455.54,787.53 1468.87,777.86 C1472.20,775.48 1473.92,773.39 1474.42,772.24 C1474.42,772.24 1473.96,771.10 1473.96,771.10 C1471.38,770.71 1466.71,771.93 1463.98,772.95 C1459.12,774.80 1445.18,781.98 1439.07,785.76 C1432.72,789.78 1422.13,796.84 1415.54,801.59 C1407.37,807.79 1383.30,827.95 1370.63,839.61 C1360.28,849.53 1338.83,871.16 1328.10,882.54 C1317.60,894.05 1297.46,917.39 1288.27,928.64 C1280.97,937.92 1257.73,970.10 1252.29,978.95 C1248.68,985.01 1242.04,997.24 1238.81,1003.37 C1235.40,1010.41 1229.06,1023.91 1226.44,1029.99 C1220.52,1044.42 1215.70,1061.85 1215.18,1065.92 C1219.45,1052.74 1230.55,1025.71 1236.63,1010.68 C1242.44,998.17 1248.46,985.18 1249.07,983.52" fill="none" stroke="rgb(0, 0, 0)" stroke-width="30.00" stroke-opacity="1.00" stroke-linejoin="round"/>
<path d="M693.15,763.84 C692.67,763.15 692.40,762.47 692.21,761.13 C692.07,760.12 691.93,759.10 691.79,758.09 C691.79,758.09 692.55,757.41 692.55,757.41 C697.04,758.49 705.58,762.32 715.20,767.42 C722.18,771.29 734.16,778.52 741.24,783.17 C752.77,791.24 778.35,810.49 790.83,820.50 C802.55,830.21 824.98,849.93 836.69,860.87 C851.35,874.86 868.14,892.22 878.38,903.05 C889.60,915.68 906.88,937.22 913.13,945.71 C923.37,960.06 939.32,984.78 944.95,995.48 C947.24,999.83 954.33,1014.97 957.22,1022.60 C961.14,1033.23 966.39,1055.01 966.70,1059.12 C966.95,1062.80 966.44,1063.99 965.66,1064.72 C963.87,1063.35 962.24,1060.44 960.73,1057.40 C953.74,1043.15 941.40,1018.40 933.00,1003.08 C925.35,989.51 908.06,960.91 900.40,950.21 C890.51,936.89 880.01,924.23 863.32,906.07 C840.14,881.30 825.33,868.51 823.17,866.80" fill="none" stroke="rgb(0, 0, 0)" stroke-width="30.00" stroke-opacity="1.00" stroke-linejoin="round"/>
<path d="M1466.85,763.84 C1467.33,763.15 1467.60,762.47 1467.79,761.13 C1467.93,760.12 1468.07,759.10 1468.21,758.09 C1468.21,758.09 1467.45,757.41 1467.45,757.41 C1462.96,758.49 1454.42,762.32 1444.80,767.42 C1437.82,771.29 1425.84,778.52 1418.76,783.17 C1407.23,791.24 1381.65,810.49 1369.17,820.50 C1357.45,830.21 1335.02,849.93 1323.31,860.87 C1308.65,874.86 1291.86,892.22 1281.62,903.05 C1270.40,915.68 1253.12,937.22 1246.87,945.71 C1236.63,960.06 1220.68,984.78 1215.05,995.48 C1212.76,999.83 1205.67,1014.97 1202.78,1022.60 C1198.86,1033.23 1193.61,1055.01 1193.30,1059.12 C1193.05,1062.80 1193.56,1063.99 1194.34,1064.72 C1196.13,1063.35 1197.76,1060.44 1199.27,1057.40 C1206.26,1043.15 1218.60,1018.40 1227.00,1003.08 C1234.65,989.51 1251.94,960.91 1259.60,950.21 C1269.49,936.89 1279.99,924.23 1296.68,906.07 C1319.86,881.30 1334.67,868.51 1336.83,866.80" fill="none" stroke="rgb(0, 0, 0)" stroke-width="30.00" stroke-opacity="1.00" stroke-linejoin="round"/>
<path d="M724.18,768.51 C716.04,762.45 709.59,757.21 705.15,752.10 C703.62,750.33 703.20,749.40 703.38,748.64 C707.47,749.24 719.49,754.59 724.42,757.36 C730.70,760.89 760.32,779.75 774.38,789.67 C786.61,798.72 811.53,817.67 823.04,826.97 C836.23,838.06 856.85,856.96 867.90,867.60 C878.46,878.26 897.66,899.86 906.42,910.85 C909.57,914.92 919.24,928.27 923.35,934.20 C928.87,942.50 935.01,952.76 938.74,959.38 C941.45,964.30 948.70,979.16 951.42,985.18 C954.93,993.31 959.84,1006.06 962.47,1013.36 C964.95,1020.68 969.74,1036.45 970.75,1040.51 C972.15,1046.33 973.87,1056.36 973.75,1058.73 C973.73,1059.16 973.62,1059.59 973.41,1060.01" fill="none" stroke="rgb(0, 0, 0)" stroke-width="30.00" stroke-opacity="1.00" stroke-linejoin="round"/>
<path d="M1435.82,768.51 C1443.96,762.45 1450.41,757.21 1454.85,752.10 C1456.38,750.33 1456.80,749.40 1456.62,748.64 C1452.53,749.24 1440.51,754.59 1435.58,757.36 C1429.30,760.89 1399.68,779.75 1385.62,789.67 C1373.39,798.72 1348.47,817.67 1336.96,826.97 C1323.77,838.06 1303.15,856.96 1292.10,867.60 C1281.54,878.26 1262.34,899.86 1253.58,910.85 C1250.43,914.92 1240.76,928.27 1236.65,934.20 C1231.13,942.50 1224.99,952.76 1221.26,959.38 C1218.55,964.30 1211.30,979.16 1208.58,985.18 C1205.07,993.31 1200.16,1006.06 1197.53,1013.36 C1195.05,1020.68 1190.26,1036.45 1189.25,1040.51 C1187.85,1046.33 1186.13,1056.36 1186.25,1058.73 C1186.27,1059.16 1186.38,1059.59 1186.59,1060.01" fill="none" stroke="rgb(0, 0, 0)" stroke-width="30.00" stroke-opacity="1.00" stroke-linejoin="round"/>
<path d="M709.47,736.88 C711.77,736.81 715.89,738.28 719.22,739.90 C727.76,744.12 736.40,749.41 743.86,754.55 C750.85,759.53 756.63,764.21 758.70,766.03 C743.84,750.34 732.57,736.42 731.53,734.43 C741.49,743.44 763.20,762.67 775.69,773.00 C791.19,785.24 812.80,800.68 824.77,809.05 C830.51,813.25 842.12,821.87 848.38,827.24 C859.24,837.14 880.69,857.11 889.95,866.44 C895.00,871.71 904.84,882.17 909.61,887.52 C916.70,895.85 922.89,903.88 927.43,910.76 C934.49,921.87 948.92,945.30 956.30,957.61 C960.94,965.85 975.27,996.94 980.89,1010.19 C983.40,1016.47 988.74,1031.03 990.10,1035.38 C991.54,1040.01 997.15,1062.00 997.95,1064.34 C997.41,1060.07 987.90,1016.83 985.49,1009.84 C983.50,1004.25 976.53,986.29 975.01,982.94 C973.29,979.19 965.94,965.98 962.20,961.06 C953.26,949.42 945.61,946.26 944.96,946.35" fill="none" stroke="rgb(0, 0, 0)" stroke-width="30.00" stroke-opacity="1.00" stroke-linejoin="round"/>
<path d="M1450.53,736.88 C1448.23,736.81 1444.11,738.28 1440.78,739.90 C1432.24,744.12 1423.60,749.41 1416.14,754.55 C1409.15,759.53 1403.37,764.21 1401.30,766.03 C1416.16,750.34 1427.43,736.42 1428.47,734.43 C1418.51,743.44 1396.80,762.67 1384.31,773.00 C1368.81,785.24 1347.20,800.68 1335.23,809.05 C1329.49,813.25 1317.88,821.87 1311.62,827.24 C1300.76,837.14 1279.31,857.11 1270.05,866.44 C1265.00,871.71 1255.16,882.17 1250.39,887.52 C1243.30,895.85 1237.11,903.88 1232.57,910.76 C1225.51,921.87 1211.08,945.30 1203.70,957.61 C1199.06,965.85 1184.73,996.94 1179.11,1010.19 C1176.60,1016.47 1171.26,1031.03 1169.90,1035.38 C1168.46,1040.01 1162.85,1062.00 1162.05,1064.34 C1162.59,1060.07 1172.10,1016.83 1174.51,1009.84 C1176.50,1004.25 1183.47,986.29 1184.99,982.94 C1186.71,979.19 1194.06,965.98 1197.80,961.06 C1206.74,949.42 1214.39,946.26 1215.04,946.35" fill="none" stroke="rgb(0, 0, 0)" stroke-width="30.00" stroke-opacity="1.00" stroke-linejoin="round"/>
</g>
<g stroke-linecap="round" id="Clock">
<path d="M561.43,169.23 L495.32,62.89" fill="none" stroke="rgb(0, 0, 0)" stroke-width="15.00" stroke-opacity="1.00" stroke-linejoin="round"/>
<path d="M1598.57,169.23 L1664.68,62.89" fill="none" stroke="rgb(0, 0, 0)" stroke-width="15.00" stroke-opacity="1.00" stroke-linejoin="round"/>
<path d="M495.32,62.89 L1077.27,59.82" fill="none" stroke="rgb(0, 0, 0)" stroke-width="15.00" stroke-opacity="1.00" stroke-linejoin="round"/>
<path d="M1664.68,62.89 L1082.73,59.82" fill="none" stroke="rgb(0, 0, 0)" stroke-width="15.00" stroke-opacity="1.00" stroke-linejoin="round"/>
<path d="M561.98,168.57 L1079.10,165.90" fill="none" stroke="rgb(0, 0, 0)" stroke-width="15.00" stroke-opacity="1.00" stroke-linejoin="round"/>
<path d="M1598.02,168.57 L1080.90,165.90" fill="none" stroke="rgb(0, 0, 0)" stroke-width="15.00" stroke-opacity="1.00" stroke-linejoin="round"/>
<path d="M561.98,216.57 L1079.10,213.90" fill="none" stroke="rgb(0, 0, 0)" stroke-width="15.00" stroke-opacity="1.00" stroke-linejoin="round"/>
<path d="M1598.02,216.57 L1080.90,213.90" fill="none" stroke="rgb(0, 0, 0)" stroke-width="15.00" stroke-opacity="1.00" stroke-linejoin="round"/>
<path d="M590.82,284.53 L592.52,287.67" fill="none" stroke="rgb(0, 0, 0)" stroke-width="15.00" stroke-opacity="1.00" stroke-linejoin="round"/>
<path d="M718.06,289.77 L1079.10,287.90" fill="none" stroke="rgb(0, 0, 0)" stroke-width="15.00" stroke-opacity="1.00" stroke-linejoin="round"/>
<path d="M1566.33,287.22 L1564.14,296.92" fill="none" stroke="rgb(0, 0, 0)" stroke-width="15.00" stroke-opacity="1.00" stroke-linejoin="round"/>
<path d="M1441.94,289.77 L1080.90,287.90" fill="none" stroke="rgb(0, 0, 0)" stroke-width="15.00" stroke-opacity="1.00" stroke-linejoin="round"/>
<path d="M710.83,288.50 C712.92,310.18 716.19,375.94 717.73,409.01 C719.30,440.69 722.80,505.68 724.74,538.99 C727.38,574.83 732.48,638.64 734.93,666.61 C735.90,675.39 737.89,691.97 738.84,698.42 C740.17,706.85 742.65,717.86 744.93,723.21 C747.43,729.00 749.35,732.92 750.63,734.60 C753.28,738.06 766.45,749.73 773.01,754.55 C785.16,763.08 809.78,780.86 822.26,790.11 C837.11,801.48 855.65,816.91 867.12,826.96 C878.99,837.68 900.65,858.73 910.17,868.68 C919.78,879.20 940.82,903.79 947.84,912.77 C958.23,926.69 973.68,949.69 981.01,962.54 C985.79,971.35 990.84,981.91 993.74,988.47 C996.46,994.96 1001.13,1008.20 1003.24,1014.87 C1007.67,1029.77 1012.10,1053.38 1013.50,1061.53" fill="none" stroke="rgb(0, 0, 0)" stroke-width="15.00" stroke-opacity="1.00" stroke-linejoin="round"/>
<path d="M1449.17,288.50 C1447.08,310.18 1443.81,375.94 1442.27,409.01 C1440.70,440.69 1437.20,505.68 1435.26,538.99 C1432.62,574.83 1427.52,638.64 1425.07,666.61 C1424.10,675.39 1422.11,691.97 1421.16,698.42 C1419.83,706.85 1417.35,717.86 1415.07,723.21 C1412.57,729.00 1410.65,732.92 1409.37,734.60 C1406.72,738.06 1393.55,749.73 1386.99,754.55 C1374.84,763.08 1350.22,780.86 1337.74,790.11 C1322.89,801.48 1304.35,816.91 1292.88,826.96 C1281.01,837.68 1259.35,858.73 1249.83,868.68 C1240.22,879.20 1219.18,903.79 1212.16,912.77 C1201.77,926.69 1186.32,949.69 1178.99,962.54 C1174.21,971.35 1169.16,981.91 1166.26,988.47 C1163.54,994.96 1158.87,1008.21 1156.76,1014.87 C1152.30,1029.84 1147.86,1053.68 1146.43,1062.06" fill="none" stroke="rgb(0, 0, 0)" stroke-width="15.00" stroke-opacity="1.00" stroke-linejoin="round"/>
<path d="M710.83,288.50 C712.92,310.18 716.19,375.94 717.73,409.01 C719.30,440.69 722.80,505.68 724.74,538.99 C727.38,574.83 732.48,638.64 734.93,666.61 C735.90,675.39 737.89,691.97 738.84,698.42 C740.17,706.85 742.65,717.86 744.93,723.21 C747.43,729.00 749.35,732.92 750.63,734.60 C753.28,738.06 766.45,749.73 773.01,754.55 C785.16,763.08 809.78,780.86 822.26,790.11 C837.11,801.48 855.65,816.91 867.12,826.96 C878.99,837.68 900.65,858.73 910.17,868.68 C919.78,879.20 940.82,903.79 947.84,912.77 C958.23,926.69 973.68,949.69 981.01,962.54 C985.79,971.35 990.84,981.91 993.74,988.47 C996.46,994.96 1001.14,1008.23 1003.24,1014.89 C1004.80,1020.12 1009.21,1037.58 1010.73,1045.44 C1012.08,1053.33 1013.85,1063.76 1014.23,1066.73 C1014.23,1066.73 1014.75,1071.62 1014.75,1071.62" fill="none" stroke="rgb(0, 0, 0)" stroke-width="15.00" stroke-opacity="1.00" stroke-linejoin="round"/>
<path d="M598.17,314.52 C597.16,315.14 596.93,315.79 597.17,317.74 C597.21,318.04 601.39,366.09 602.21,379.01 C603.65,410.93 606.53,472.31 607.96,501.78 C609.83,535.73 614.16,604.95 616.62,640.23 C618.03,657.24 620.66,688.25 621.88,702.23 C622.93,713.61 627.41,750.47 629.01,757.60 C630.65,764.86 636.82,779.21 638.63,781.60 C641.28,785.06 654.45,796.73 661.01,801.55 C673.16,810.08 697.78,827.86 710.26,837.11 C725.11,848.48 743.65,863.91 755.12,873.96 C766.99,884.68 788.65,905.73 798.17,915.68 C807.78,926.20 828.82,950.79 835.84,959.77 C846.23,973.69 861.63,996.62 868.95,1009.35 C875.20,1020.71 885.70,1044.92 888.81,1054.57" fill="none" stroke="rgb(0, 0, 0)" stroke-width="15.00" stroke-opacity="1.00" stroke-linejoin="round"/>
<path d="M1561.83,310.52 C1562.84,311.14 1563.07,311.79 1562.83,313.74 C1562.79,314.04 1558.61,362.09 1557.79,375.01 C1556.35,406.93 1553.47,468.31 1552.04,497.78 C1550.17,531.73 1545.84,600.95 1543.38,636.23 C1541.97,653.24 1539.34,684.25 1538.12,698.23 C1537.07,709.61 1532.59,746.47 1530.99,753.60 C1529.35,760.86 1523.18,775.21 1521.37,777.60 C1518.72,781.06 1505.55,792.73 1498.99,797.55 C1486.84,806.08 1462.22,823.86 1449.74,833.11 C1434.89,844.48 1416.35,859.91 1404.88,869.96 C1393.01,880.68 1371.35,901.73 1361.83,911.68 C1352.22,922.20 1331.18,946.79 1324.16,955.77 C1313.77,969.69 1298.32,992.69 1290.99,1005.54 C1286.63,1013.57 1280.05,1027.15 1278.33,1031.20 C1274.89,1039.30 1267.08,1063.29 1265.77,1068.70" fill="none" stroke="rgb(0, 0, 0)" stroke-width="15.00" stroke-opacity="1.00" stroke-linejoin="round"/>
<path d="M596.75,314.38" fill="none" stroke="rgb(0, 0, 0)" stroke-width="12.00" stroke-opacity="1.00" stroke-linejoin="round"/>
<path d="M1563.25,314.38" fill="none" stroke="rgb(0, 0, 0)" stroke-width="12.00" stroke-opacity="1.00" stroke-linejoin="round"/>
<path d="M596.75,314.38 L595.59,291.65" fill="none" stroke="rgb(0, 0, 0)" stroke-width="12.00" stroke-opacity="1.00" stroke-linejoin="round"/>
<path d="M595.59,291.65" fill="none" stroke="rgb(0, 0, 0)" stroke-width="12.00" stroke-opacity="1.00" stroke-linejoin="round"/>
<path d="M1563.25,314.38 L1564.41,291.65" fill="none" stroke="rgb(0, 0, 0)" stroke-width="12.00" stroke-opacity="1.00" stroke-linejoin="round"/>
<path d="M1564.41,291.65" fill="none" stroke="rgb(0, 0, 0)" stroke-width="12.00" stroke-opacity="1.00" stroke-linejoin="round"/>
<path d="M594.09,291.14" fill="none" stroke="rgb(0, 0, 0)" stroke-width="12.00" stroke-opacity="1.00" stroke-linejoin="round"/>
<path d="M1565.91,291.14" fill="none" stroke="rgb(0, 0, 0)" stroke-width="12.00" stroke-opacity="1.00" stroke-linejoin="round"/>
<path d="M594.09,291.14 L560.91,216.82" fill="none" stroke="rgb(0, 0, 0)" stroke-width="12.00" stroke-opacity="1.00" stroke-linejoin="round"/>
<path d="M560.91,216.82" fill="none" stroke="rgb(0, 0, 0)" stroke-width="12.00" stroke-opacity="1.00" stroke-linejoin="round"/>
<path d="M1565.91,291.14 L1599.09,216.82" fill="none" stroke="rgb(0, 0, 0)" stroke-width="12.00" stroke-opacity="1.00" stroke-linejoin="round"/>
<path d="M1599.09,216.82" fill="none" stroke="rgb(0, 0, 0)" stroke-width="12.00" stroke-opacity="1.00" stroke-linejoin="round"/>
<path d="M561.43,1963.77 L495.32,2070.11" fill="none" stroke="rgb(0, 0, 0)" stroke-width="15.00" stroke-opacity="1.00" stroke-linejoin="round"/>
<path d="M1598.57,1963.77 L1664.68,2070.11" fill="none" stroke="rgb(0, 0, 0)" stroke-width="15.00" stroke-opacity="1.00" stroke-linejoin="round"/>
<path d="M495.32,2070.11 L1077.27,2073.18" fill="none" stroke="rgb(0, 0, 0)" stroke-width="15.00" stroke-opacity="1.00" stroke-linejoin="round"/>
<path d="M1664.68,2070.11 L1082.73,2073.18" fill="none" stroke="rgb(0, 0, 0)" stroke-width="15.00" stroke-opacity="1.00" stroke-linejoin="round"/>
<path d="M561.98,1964.43 L1079.10,1967.10" fill="none" stroke="rgb(0, 0, 0)" stroke-width="15.00" stroke-opacity="1.00" stroke-linejoin="round"/>
<path d="M1598.02,1964.43 L1080.90,1967.10" fill="none" stroke="rgb(0, 0, 0)" stroke-width="15.00" stroke-opacity="1.00" stroke-linejoin="round"/>
<path d="M561.98,1916.43 L1079.10,1919.10" fill="none" stroke="rgb(0, 0, 0)" stroke-width="15.00" stroke-opacity="1.00" stroke-linejoin="round"/>
<path d="M1598.02,1916.43 L1080.90,1919.10" fill="none" stroke="rgb(0, 0, 0)" stroke-width="15.00" stroke-opacity="1.00" stroke-linejoin="round"/>
<path d="M590.82,1848.47 L592.52,1845.33" fill="none" stroke="rgb(0, 0, 0)" stroke-width="15.00" stroke-opacity="1.00" stroke-linejoin="round"/>
<path d="M718.06,1843.23 L843.04,1843.88" fill="none" stroke="rgb(0, 0, 0)" stroke-width="15.00" stroke-opacity="1.00" stroke-linejoin="round"/>
<path d="M1566.33,1845.78 L1564.14,1836.08" fill="none" stroke="rgb(0, 0, 0)" stroke-width="15.00" stroke-opacity="1.00" stroke-linejoin="round"/>
<path d="M1441.94,1843.23 L1322.81,1843.85" fill="none" stroke="rgb(0, 0, 0)" stroke-width="15.00" stroke-opacity="1.00" stroke-linejoin="round"/>
<path d="M710.83,1844.50 C712.92,1822.82 716.19,1757.06 717.73,1723.99 C719.30,1692.31 722.80,1627.32 724.74,1594.01 C727.38,1558.17 732.48,1494.36 734.93,1466.39 C735.90,1457.61 737.89,1441.03 738.84,1434.58 C740.17,1426.15 742.65,1415.14 744.93,1409.79 C747.43,1404.00 749.35,1400.08 750.63,1398.40 C753.28,1394.94 766.45,1383.27 773.01,1378.45 C785.16,1369.92 809.78,1352.14 822.26,1342.89 C837.11,1331.52 855.65,1316.09 867.12,1306.04 C878.99,1295.32 900.65,1274.27 910.17,1264.32 C919.78,1253.80 940.82,1229.21 947.84,1220.23 C958.23,1206.31 973.68,1183.31 981.01,1170.46 C985.79,1161.65 990.84,1151.09 993.74,1144.53 C996.46,1138.04 1001.14,1124.77 1003.24,1118.11 C1004.61,1113.64 1009.53,1093.71 1010.70,1087.77 C1013.95,1069.92 1015.24,1057.02 1015.34,1056.02 C1015.34,1056.02 1014.79,1054.40 1014.79,1054.40 C1014.79,1054.40 1012.83,1047.80 1012.83,1047.80" fill="none" stroke="rgb(0, 0, 0)" stroke-width="15.00" stroke-opacity="1.00" stroke-linejoin="round"/>
<path d="M1449.17,1844.50 C1447.08,1822.82 1443.81,1757.06 1442.27,1723.99 C1440.70,1692.31 1437.20,1627.32 1435.26,1594.01 C1432.62,1558.17 1427.52,1494.36 1425.07,1466.39 C1424.10,1457.61 1422.11,1441.03 1421.16,1434.58 C1419.83,1426.15 1417.35,1415.14 1415.07,1409.79 C1412.57,1404.00 1410.65,1400.08 1409.37,1398.40 C1406.72,1394.94 1393.55,1383.27 1386.99,1378.45 C1374.84,1369.92 1350.22,1352.14 1337.74,1342.89 C1322.89,1331.52 1304.35,1316.09 1292.88,1306.04 C1281.01,1295.32 1259.35,1274.27 1249.83,1264.32 C1240.22,1253.80 1219.18,1229.21 1212.16,1220.23 C1201.77,1206.31 1186.32,1183.31 1178.99,1170.46 C1174.21,1161.65 1169.16,1151.09 1166.26,1144.53 C1163.55,1138.06 1158.89,1124.93 1156.77,1118.22 C1152.17,1102.93 1148.82,1085.36 1147.72,1078.71" fill="none" stroke="rgb(0, 0, 0)" stroke-width="15.00" stroke-opacity="1.00" stroke-linejoin="round"/>
<path d="M710.83,1844.50 C712.92,1822.82 716.19,1757.06 717.73,1723.99 C719.30,1692.31 722.80,1627.32 724.74,1594.01 C727.38,1558.17 732.48,1494.36 734.93,1466.39 C735.90,1457.61 737.89,1441.03 738.84,1434.58 C740.17,1426.15 742.65,1415.14 744.93,1409.79 C747.43,1404.00 749.35,1400.08 750.63,1398.40 C753.28,1394.94 766.45,1383.27 773.01,1378.45 C785.16,1369.92 809.78,1352.14 822.26,1342.89 C837.11,1331.52 855.65,1316.09 867.12,1306.04 C878.99,1295.32 900.65,1274.27 910.17,1264.32 C919.78,1253.80 940.82,1229.21 947.84,1220.23 C958.23,1206.31 973.68,1183.31 981.01,1170.46 C985.79,1161.65 990.84,1151.09 993.74,1144.53 C996.46,1138.04 1001.14,1124.77 1003.24,1118.11 C1004.60,1113.66 1009.08,1095.51 1010.75,1087.81 C1012.96,1076.85 1014.33,1065.84 1013.48,1056.71 C1013.41,1055.93 1013.34,1055.16 1013.27,1054.38 C1013.27,1054.38 1013.44,1049.84 1013.44,1049.84" fill="none" stroke="rgb(0, 0, 0)" stroke-width="15.00" stroke-opacity="1.00" stroke-linejoin="round"/>
<path d="M598.17,1818.48 C597.16,1817.86 596.93,1817.21 597.17,1815.26 C597.21,1814.96 601.39,1766.91 602.21,1753.99 C603.65,1722.07 606.53,1660.69 607.96,1631.22 C609.83,1597.27 614.16,1528.05 616.62,1492.77 C618.03,1475.76 620.66,1444.75 621.88,1430.77 C622.93,1419.39 627.41,1382.53 629.01,1375.40 C630.65,1368.14 636.82,1353.79 638.63,1351.40 C641.28,1347.94 654.45,1336.27 661.01,1331.45 C673.16,1322.92 697.78,1305.14 710.26,1295.89 C725.11,1284.52 743.65,1269.09 755.12,1259.04 C766.99,1248.32 788.65,1227.27 798.17,1217.32 C807.78,1206.80 828.82,1182.21 835.84,1173.23 C846.23,1159.31 861.68,1136.31 869.01,1123.46 C873.34,1115.48 879.97,1101.86 881.65,1097.89 C885.04,1089.88 892.24,1067.79 892.98,1065.15" fill="none" stroke="rgb(0, 0, 0)" stroke-width="15.00" stroke-opacity="1.00" stroke-linejoin="round"/>
<path d="M1561.83,1822.48 C1562.84,1821.86 1563.07,1821.21 1562.83,1819.26 C1562.79,1818.96 1558.61,1770.91 1557.79,1757.99 C1556.35,1726.07 1553.47,1664.69 1552.04,1635.22 C1550.17,1601.27 1545.84,1532.05 1543.38,1496.77 C1541.97,1479.76 1539.34,1448.75 1538.12,1434.77 C1537.07,1423.39 1532.59,1386.53 1530.99,1379.40 C1529.35,1372.14 1523.18,1357.79 1521.37,1355.40 C1518.72,1351.94 1505.55,1340.27 1498.99,1335.45 C1486.84,1326.92 1462.22,1309.14 1449.74,1299.89 C1434.89,1288.52 1416.35,1273.09 1404.88,1263.04 C1393.01,1252.32 1371.35,1231.27 1361.83,1221.32 C1352.22,1210.80 1331.18,1186.21 1324.16,1177.23 C1313.77,1163.31 1298.35,1140.35 1291.02,1127.58 C1286.70,1119.59 1281.09,1107.91 1278.15,1101.27 C1274.72,1093.09 1271.28,1082.76 1269.89,1078.49" fill="none" stroke="rgb(0, 0, 0)" stroke-width="15.00" stroke-opacity="1.00" stroke-linejoin="round"/>
<path d="M596.75,1818.62" fill="none" stroke="rgb(0, 0, 0)" stroke-width="12.00" stroke-opacity="1.00" stroke-linejoin="round"/>
<path d="M1563.25,1818.62" fill="none" stroke="rgb(0, 0, 0)" stroke-width="12.00" stroke-opacity="1.00" stroke-linejoin="round"/>
<path d="M596.75,1818.62 L595.59,1841.35" fill="none" stroke="rgb(0, 0, 0)" stroke-width="12.00" stroke-opacity="1.00" stroke-linejoin="round"/>
<path d="M595.59,1841.35" fill="none" stroke="rgb(0, 0, 0)" stroke-width="12.00" stroke-opacity="1.00" stroke-linejoin="round"/>
<path d="M1563.25,1818.62 L1564.41,1841.35" fill="none" stroke="rgb(0, 0, 0)" stroke-width="12.00" stroke-opacity="1.00" stroke-linejoin="round"/>
<path d="M1564.41,1841.35" fill="none" stroke="rgb(0, 0, 0)" stroke-width="12.00" stroke-opacity="1.00" stroke-linejoin="round"/>
<path d="M594.09,1841.86" fill="none" stroke="rgb(0, 0, 0)" stroke-width="12.00" stroke-opacity="1.00" stroke-linejoin="round"/>
<path d="M1565.91,1841.86" fill="none" stroke="rgb(0, 0, 0)" stroke-width="12.00" stroke-opacity="1.00" stroke-linejoin="round"/>
<path d="M594.09,1841.86 L560.91,1916.18" fill="none" stroke="rgb(0, 0, 0)" stroke-width="12.00" stroke-opacity="1.00" stroke-linejoin="round"/>
<path d="M560.91,1916.18" fill="none" stroke="rgb(0, 0, 0)" stroke-width="12.00" stroke-opacity="1.00" stroke-linejoin="round"/>
<path d="M1565.91,1841.86 L1599.09,1916.18" fill="none" stroke="rgb(0, 0, 0)" stroke-width="12.00" stroke-opacity="1.00" stroke-linejoin="round"/>
<path d="M1599.09,1916.18" fill="none" stroke="rgb(0, 0, 0)" stroke-width="12.00" stroke-opacity="1.00" stroke-linejoin="round"/>
<path d="M844.05,1841.51 C844.05,1841.85 844.05,1842.18 844.05,1842.51 C844.05,1842.75 844.05,1842.98 844.05,1843.22 C843.91,1829.08 846.04,1794.27 847.33,1782.39 C849.18,1768.09 854.29,1737.16 857.37,1721.99 C860.72,1706.71 867.86,1678.60 871.86,1664.52 C876.57,1649.16 888.00,1616.28 892.11,1605.78 C897.63,1592.28 909.49,1565.68 915.95,1552.37 C922.60,1539.35 940.29,1508.05 946.48,1498.21 C950.75,1491.71 959.32,1479.00 963.63,1472.78 C972.41,1460.96 988.17,1441.16 1000.39,1427.29 C1010.07,1416.77 1029.26,1398.40 1043.11,1386.46 C1054.95,1376.57 1069.25,1366.66 1074.66,1362.98" fill="none" stroke="rgb(0, 0, 0)" stroke-width="15.00" stroke-opacity="1.00" stroke-linejoin="round"/>
<path d="M1315.95,1841.51 C1315.95,1841.85 1315.95,1842.18 1315.95,1842.51 C1315.95,1842.75 1315.95,1842.98 1315.95,1843.22 C1316.09,1829.08 1313.96,1794.27 1312.67,1782.39 C1310.82,1768.09 1305.71,1737.16 1302.63,1721.99 C1299.28,1706.71 1292.14,1678.60 1288.14,1664.52 C1283.43,1649.16 1272.00,1616.28 1267.89,1605.78 C1262.37,1592.28 1250.51,1565.68 1244.05,1552.37 C1237.40,1539.35 1219.71,1508.05 1213.52,1498.21 C1209.25,1491.71 1200.68,1479.00 1196.37,1472.78 C1187.59,1460.96 1171.83,1441.16 1159.61,1427.29 C1149.93,1416.77 1130.74,1398.41 1116.87,1386.45 C1105.16,1376.65 1083.49,1361.66 1079.45,1359.31" fill="none" stroke="rgb(0, 0, 0)" stroke-width="15.00" stroke-opacity="1.00" stroke-linejoin="round"/>
<path d="M844.24,1838.79 C844.24,1838.79 844.24,1838.89 844.24,1838.89" fill="none" stroke="rgb(0, 0, 0)" stroke-width="15.00" stroke-opacity="1.00" stroke-linejoin="round"/>
<path d="M1315.76,1838.89 C1315.76,1838.89 1315.64,1845.17 1315.64,1845.17" fill="none" stroke="rgb(0, 0, 0)" stroke-width="15.00" stroke-opacity="1.00" stroke-linejoin="round"/>
</g>
</svg>
