<?xml version="1.0" encoding="UTF-8" standalone="no"?>
<!DOCTYPE svg PUBLIC "-//W3C//DTD SVG 1.1//EN" "http://www.w3.org/Graphics/SVG/1.1/DTD/svg11.dtd">
<svg width="129.60" height="129.60" viewBox="0.00 0.00 2160.00 2160.00" xmlns="http://www.w3.org/2000/svg" xmlns:xlink="http://www.w3.org/1999/xlink">
<g stroke-linecap="round" id="Fill_Copy_15">
<path d="M1429.00,500.50 C1429.00,500.50 1428.50,500.50 1428.50,500.50" fill="none" stroke="rgb(0, 0, 0)" stroke-width="12.00" stroke-opacity="1.00" stroke-linejoin="round"/>
<path d="M731.00,500.50 C731.00,500.50 731.50,500.50 731.50,500.50" fill="none" stroke="rgb(0, 0, 0)" stroke-width="12.00" stroke-opacity="1.00" stroke-linejoin="round"/>
<path d="M1428.50,500.50 L1328.50,86.50" fill="none" stroke="rgb(0, 0, 0)" stroke-width="12.00" stroke-opacity="1.00" stroke-linejoin="round"/>
<path d="M1328.50,86.50" fill="none" stroke="rgb(0, 0, 0)" stroke-width="12.00" stroke-opacity="1.00" stroke-linejoin="round"/>
<path d="M731.50,500.50 L831.50,86.50" fill="none" stroke="rgb(0, 0, 0)" stroke-width="12.00" stroke-opacity="1.00" stroke-linejoin="round"/>
<path d="M831.50,86.50" fill="none" stroke="rgb(0, 0, 0)" stroke-width="12.00" stroke-opacity="1.00" stroke-linejoin="round"/>
<path d="M1328.50,86.50 L1301.50,90.00" fill="none" stroke="rgb(0, 0, 0)" stroke-width="12.00" stroke-opacity="1.00" stroke-linejoin="round"/>
<path d="M1301.50,90.00" fill="none" stroke="rgb(0, 0, 0)" stroke-width="12.00" stroke-opacity="1.00" stroke-linejoin="round"/>
<path d="M831.50,86.50 L858.50,90.00" fill="none" stroke="rgb(0, 0, 0)" stroke-width="12.00" stroke-opacity="1.00" stroke-linejoin="round"/>
<path d="M858.50,90.00" fill="none" stroke="rgb(0, 0, 0)" stroke-width="12.00" stroke-opacity="1.00" stroke-linejoin="round"/>
<path d="M1301.50,90.00 L1405.00,414.50" fill="none" stroke="rgb(0, 0, 0)" stroke-width="12.00" stroke-opacity="1.00" stroke-linejoin="round"/>
<path d="M1405.00,414.50" fill="none" stroke="rgb(0, 0, 0)" stroke-width="12.00" stroke-opacity="1.00" stroke-linejoin="round"/>
<path d="M858.50,90.00 L755.00,414.50" fill="none" stroke="rgb(0, 0, 0)" stroke-width="12.00" stroke-opacity="1.00" stroke-linejoin="round"/>
<path d="M755.00,414.50" fill="none" stroke="rgb(0, 0, 0)" stroke-width="12.00" stroke-opacity="1.00" stroke-linejoin="round"/>
<path d="M1371.50,295.00 C1371.50,295.00 1371.00,292.25 1371.00,292.25 C1371.00,292.25 1370.00,290.50 1370.00,290.50" fill="none" stroke="rgb(0, 0, 0)" stroke-width="30.00" stroke-opacity="1.00" stroke-linejoin="round"/>
<path d="M788.50,295.00 C788.50,295.00 789.00,292.25 789.00,292.25 C789.00,292.25 790.00,290.50 790.00,290.50" fill="none" stroke="rgb(0, 0, 0)" stroke-width="30.00" stroke-opacity="1.00" stroke-linejoin="round"/>
<path d="M1370.00,290.50 L1318.00,93.50" fill="none" stroke="rgb(0, 0, 0)" stroke-width="30.00" stroke-opacity="1.00" stroke-linejoin="round"/>
<path d="M1318.00,93.50" fill="none" stroke="rgb(0, 0, 0)" stroke-width="30.00" stroke-opacity="1.00" stroke-linejoin="round"/>
<path d="M790.00,290.50 L842.00,93.50" fill="none" stroke="rgb(0, 0, 0)" stroke-width="30.00" stroke-opacity="1.00" stroke-linejoin="round"/>
<path d="M842.00,93.50" fill="none" stroke="rgb(0, 0, 0)" stroke-width="30.00" stroke-opacity="1.00" stroke-linejoin="round"/>
<path d="M1344.85,678.81" fill="none" stroke="rgb(0, 0, 0)" stroke-width="15.00" stroke-opacity="1.00" stroke-linejoin="round"/>
<path d="M815.15,678.81" fill="none" stroke="rgb(0, 0, 0)" stroke-width="15.00" stroke-opacity="1.00" stroke-linejoin="round"/>
<path d="M1344.85,678.81 L1962.22,684.44" fill="none" stroke="rgb(0, 0, 0)" stroke-width="15.00" stroke-opacity="1.00" stroke-linejoin="round"/>
<path d="M1962.22,684.44" fill="none" stroke="rgb(0, 0, 0)" stroke-width="15.00" stroke-opacity="1.00" stroke-linejoin="round"/>
<path d="M815.15,678.81 L197.78,684.44" fill="none" stroke="rgb(0, 0, 0)" stroke-width="15.00" stroke-opacity="1.00" stroke-linejoin="round"/>
<path d="M197.78,684.44" fill="none" stroke="rgb(0, 0, 0)" stroke-width="15.00" stroke-opacity="1.00" stroke-linejoin="round"/>
<path d="M1962.22,684.44 L1975.96,663.16" fill="none" stroke="rgb(0, 0, 0)" stroke-width="15.00" stroke-opacity="1.00" stroke-linejoin="round"/>
<path d="M1975.96,663.16 C1975.96,663.16 1975.71,662.66 1975.71,662.66 C1975.71,662.66 1973.45,662.66 1973.45,662.66" fill="none" stroke="rgb(0, 0, 0)" stroke-width="15.00" stroke-opacity="1.00" stroke-linejoin="round"/>
<path d="M197.78,684.44 L184.04,663.16" fill="none" stroke="rgb(0, 0, 0)" stroke-width="15.00" stroke-opacity="1.00" stroke-linejoin="round"/>
<path d="M184.04,663.16 C184.04,663.16 184.29,662.66 184.29,662.66 C184.29,662.66 186.55,662.66 186.55,662.66" fill="none" stroke="rgb(0, 0, 0)" stroke-width="15.00" stroke-opacity="1.00" stroke-linejoin="round"/>
<path d="M1973.45,662.66 L1957.93,650.64" fill="none" stroke="rgb(0, 0, 0)" stroke-width="15.00" stroke-opacity="1.00" stroke-linejoin="round"/>
<path d="M1957.93,650.64" fill="none" stroke="rgb(0, 0, 0)" stroke-width="15.00" stroke-opacity="1.00" stroke-linejoin="round"/>
<path d="M186.55,662.66 L202.07,650.64" fill="none" stroke="rgb(0, 0, 0)" stroke-width="15.00" stroke-opacity="1.00" stroke-linejoin="round"/>
<path d="M202.07,650.64" fill="none" stroke="rgb(0, 0, 0)" stroke-width="15.00" stroke-opacity="1.00" stroke-linejoin="round"/>
<path d="M1957.93,650.64 L1448.03,676.68" fill="none" stroke="rgb(0, 0, 0)" stroke-width="15.00" stroke-opacity="1.00" stroke-linejoin="round"/>
<path d="M1448.03,676.68" fill="none" stroke="rgb(0, 0, 0)" stroke-width="15.00" stroke-opacity="1.00" stroke-linejoin="round"/>
<path d="M202.07,650.64 L711.97,676.68" fill="none" stroke="rgb(0, 0, 0)" stroke-width="15.00" stroke-opacity="1.00" stroke-linejoin="round"/>
<path d="M711.97,676.68" fill="none" stroke="rgb(0, 0, 0)" stroke-width="15.00" stroke-opacity="1.00" stroke-linejoin="round"/>
<path d="M1631.86,680.19 C1631.86,680.19 1631.86,679.69 1631.86,679.69" fill="none" stroke="rgb(0, 0, 0)" stroke-width="30.00" stroke-opacity="1.00" stroke-linejoin="round"/>
<path d="M528.14,680.19 C528.14,680.19 528.14,679.69 528.14,679.69" fill="none" stroke="rgb(0, 0, 0)" stroke-width="30.00" stroke-opacity="1.00" stroke-linejoin="round"/>
<path d="M1631.86,679.69 L1958.93,667.67" fill="none" stroke="rgb(0, 0, 0)" stroke-width="30.00" stroke-opacity="1.00" stroke-linejoin="round"/>
<path d="M1958.93,667.67 C1958.93,667.67 1958.93,667.17 1958.93,667.17" fill="none" stroke="rgb(0, 0, 0)" stroke-width="30.00" stroke-opacity="1.00" stroke-linejoin="round"/>
<path d="M528.14,679.69 L201.07,667.67" fill="none" stroke="rgb(0, 0, 0)" stroke-width="30.00" stroke-opacity="1.00" stroke-linejoin="round"/>
<path d="M201.07,667.67 C201.07,667.67 201.07,667.17 201.07,667.17" fill="none" stroke="rgb(0, 0, 0)" stroke-width="30.00" stroke-opacity="1.00" stroke-linejoin="round"/>
<path d="M1423.00,950.00" fill="none" stroke="rgb(0, 0, 0)" stroke-width="15.00" stroke-opacity="1.00" stroke-linejoin="round"/>
<path d="M737.00,950.00" fill="none" stroke="rgb(0, 0, 0)" stroke-width="15.00" stroke-opacity="1.00" stroke-linejoin="round"/>
<path d="M1423.00,950.00 L1208.11,1868.14" fill="none" stroke="rgb(0, 0, 0)" stroke-width="15.00" stroke-opacity="1.00" stroke-linejoin="round"/>
<path d="M1208.11,1868.14 C1208.11,1868.14 1208.11,1866.64 1208.11,1866.64" fill="none" stroke="rgb(0, 0, 0)" stroke-width="15.00" stroke-opacity="1.00" stroke-linejoin="round"/>
<path d="M737.00,950.00 L951.89,1868.14" fill="none" stroke="rgb(0, 0, 0)" stroke-width="15.00" stroke-opacity="1.00" stroke-linejoin="round"/>
<path d="M951.89,1868.14 C951.89,1868.14 951.89,1866.64 951.89,1866.64" fill="none" stroke="rgb(0, 0, 0)" stroke-width="15.00" stroke-opacity="1.00" stroke-linejoin="round"/>
<path d="M1208.11,1866.64 L1271.98,1773.85" fill="none" stroke="rgb(0, 0, 0)" stroke-width="15.00" stroke-opacity="1.00" stroke-linejoin="round"/>
<path d="M1271.98,1773.85" fill="none" stroke="rgb(0, 0, 0)" stroke-width="15.00" stroke-opacity="1.00" stroke-linejoin="round"/>
<path d="M951.89,1866.64 L888.02,1773.85" fill="none" stroke="rgb(0, 0, 0)" stroke-width="15.00" stroke-opacity="1.00" stroke-linejoin="round"/>
<path d="M888.02,1773.85" fill="none" stroke="rgb(0, 0, 0)" stroke-width="15.00" stroke-opacity="1.00" stroke-linejoin="round"/>
<path d="M1271.98,1773.85 L1391.00,1110.00" fill="none" stroke="rgb(0, 0, 0)" stroke-width="15.00" stroke-opacity="1.00" stroke-linejoin="round"/>
<path d="M1391.00,1110.00" fill="none" stroke="rgb(0, 0, 0)" stroke-width="15.00" stroke-opacity="1.00" stroke-linejoin="round"/>
<path d="M888.02,1773.85 L769.00,1110.00" fill="none" stroke="rgb(0, 0, 0)" stroke-width="15.00" stroke-opacity="1.00" stroke-linejoin="round"/>
<path d="M769.00,1110.00" fill="none" stroke="rgb(0, 0, 0)" stroke-width="15.00" stroke-opacity="1.00" stroke-linejoin="round"/>
<path d="M1350.62,1277.37" fill="none" stroke="rgb(0, 0, 0)" stroke-width="25.00" stroke-opacity="1.00" stroke-linejoin="round"/>
<path d="M809.38,1277.37" fill="none" stroke="rgb(0, 0, 0)" stroke-width="25.00" stroke-opacity="1.00" stroke-linejoin="round"/>
<path d="M1350.62,1277.37 L1229.63,1826.34" fill="none" stroke="rgb(0, 0, 0)" stroke-width="25.00" stroke-opacity="1.00" stroke-linejoin="round"/>
<path d="M1229.63,1826.34" fill="none" stroke="rgb(0, 0, 0)" stroke-width="25.00" stroke-opacity="1.00" stroke-linejoin="round"/>
<path d="M809.38,1277.37 L930.37,1826.34" fill="none" stroke="rgb(0, 0, 0)" stroke-width="25.00" stroke-opacity="1.00" stroke-linejoin="round"/>
<path d="M930.37,1826.34" fill="none" stroke="rgb(0, 0, 0)" stroke-width="25.00" stroke-opacity="1.00" stroke-linejoin="round"/>
<path d="M1310.29,1494.65" fill="none" stroke="rgb(0, 0, 0)" stroke-width="25.00" stroke-opacity="1.00" stroke-linejoin="round"/>
<path d="M849.71,1494.65" fill="none" stroke="rgb(0, 0, 0)" stroke-width="25.00" stroke-opacity="1.00" stroke-linejoin="round"/>
<path d="M1310.29,1494.65 L1255.14,1785.19" fill="none" stroke="rgb(0, 0, 0)" stroke-width="25.00" stroke-opacity="1.00" stroke-linejoin="round"/>
<path d="M1255.14,1785.19" fill="none" stroke="rgb(0, 0, 0)" stroke-width="25.00" stroke-opacity="1.00" stroke-linejoin="round"/>
<path d="M849.71,1494.65 L904.86,1785.19" fill="none" stroke="rgb(0, 0, 0)" stroke-width="25.00" stroke-opacity="1.00" stroke-linejoin="round"/>
<path d="M904.86,1785.19" fill="none" stroke="rgb(0, 0, 0)" stroke-width="25.00" stroke-opacity="1.00" stroke-linejoin="round"/>
</g>
<g stroke-linecap="round" id="Currency2">
<path d="M1080.77,2091.66" fill="none" stroke="rgb(0, 0, 0)" stroke-width="20.00" stroke-opacity="1.00" stroke-linejoin="round"/>
<path d="M1079.23,2091.66" fill="none" stroke="rgb(0, 0, 0)" stroke-width="20.00" stroke-opacity="1.00" stroke-linejoin="round"/>
<path d="M1080.77,2091.66 L171.21,659.09" fill="none" stroke="rgb(0, 0, 0)" stroke-width="20.00" stroke-opacity="1.00" stroke-linejoin="round"/>
<path d="M171.21,659.09" fill="none" stroke="rgb(0, 0, 0)" stroke-width="20.00" stroke-opacity="1.00" stroke-linejoin="round"/>
<path d="M1079.23,2091.66 L1988.79,659.09" fill="none" stroke="rgb(0, 0, 0)" stroke-width="20.00" stroke-opacity="1.00" stroke-linejoin="round"/>
<path d="M1988.79,659.09" fill="none" stroke="rgb(0, 0, 0)" stroke-width="20.00" stroke-opacity="1.00" stroke-linejoin="round"/>
<path d="M171.21,659.09 L822.04,79.34" fill="none" stroke="rgb(0, 0, 0)" stroke-width="20.00" stroke-opacity="1.00" stroke-linejoin="round"/>
<path d="M822.04,79.34" fill="none" stroke="rgb(0, 0, 0)" stroke-width="20.00" stroke-opacity="1.00" stroke-linejoin="round"/>
<path d="M1988.79,659.09 L1337.96,79.34" fill="none" stroke="rgb(0, 0, 0)" stroke-width="20.00" stroke-opacity="1.00" stroke-linejoin="round"/>
<path d="M1337.96,79.34" fill="none" stroke="rgb(0, 0, 0)" stroke-width="20.00" stroke-opacity="1.00" stroke-linejoin="round"/>
<path d="M822.04,79.34 L1079.34,75.48" fill="none" stroke="rgb(0, 0, 0)" stroke-width="20.00" stroke-opacity="1.00" stroke-linejoin="round"/>
<path d="M1079.34,75.48" fill="none" stroke="rgb(0, 0, 0)" stroke-width="20.00" stroke-opacity="1.00" stroke-linejoin="round"/>
<path d="M1337.96,79.34 L1080.66,75.48" fill="none" stroke="rgb(0, 0, 0)" stroke-width="20.00" stroke-opacity="1.00" stroke-linejoin="round"/>
<path d="M1080.66,75.48" fill="none" stroke="rgb(0, 0, 0)" stroke-width="20.00" stroke-opacity="1.00" stroke-linejoin="round"/>
<path d="M176.93,663.79" fill="none" stroke="rgb(0, 0, 0)" stroke-width="15.00" stroke-opacity="1.00" stroke-linejoin="round"/>
<path d="M1983.07,663.79" fill="none" stroke="rgb(0, 0, 0)" stroke-width="15.00" stroke-opacity="1.00" stroke-linejoin="round"/>
<path d="M229.75,604.96" fill="none" stroke="rgb(0, 0, 0)" stroke-width="12.00" stroke-opacity="1.00" stroke-linejoin="round"/>
<path d="M1930.25,604.96" fill="none" stroke="rgb(0, 0, 0)" stroke-width="12.00" stroke-opacity="1.00" stroke-linejoin="round"/>
<path d="M211.57,716.53 C211.57,716.53 211.57,716.12 211.57,716.12 C211.57,716.12 212.40,715.70 212.40,715.70" fill="none" stroke="rgb(0, 0, 0)" stroke-width="12.00" stroke-opacity="1.00" stroke-linejoin="round"/>
<path d="M1948.43,716.53 C1948.43,716.53 1948.43,716.12 1948.43,716.12 C1948.43,716.12 1947.60,715.70 1947.60,715.70" fill="none" stroke="rgb(0, 0, 0)" stroke-width="12.00" stroke-opacity="1.00" stroke-linejoin="round"/>
<path d="M1026.57,2010.11" fill="none" stroke="rgb(0, 0, 0)" stroke-width="12.00" stroke-opacity="1.00" stroke-linejoin="round"/>
<path d="M1133.43,2010.11" fill="none" stroke="rgb(0, 0, 0)" stroke-width="12.00" stroke-opacity="1.00" stroke-linejoin="round"/>
<path d="M1026.57,2010.11 L1021.45,1998.23" fill="none" stroke="rgb(0, 0, 0)" stroke-width="12.00" stroke-opacity="1.00" stroke-linejoin="round"/>
<path d="M1133.43,2010.11 L1138.55,1998.23" fill="none" stroke="rgb(0, 0, 0)" stroke-width="12.00" stroke-opacity="1.00" stroke-linejoin="round"/>
<path d="M823.63,79.09" fill="none" stroke="rgb(0, 0, 0)" stroke-width="12.00" stroke-opacity="1.00" stroke-linejoin="round"/>
<path d="M1336.37,79.09" fill="none" stroke="rgb(0, 0, 0)" stroke-width="12.00" stroke-opacity="1.00" stroke-linejoin="round"/>
<path d="M823.63,79.09 L690.00,649.09" fill="none" stroke="rgb(0, 0, 0)" stroke-width="12.00" stroke-opacity="1.00" stroke-linejoin="round"/>
<path d="M690.00,649.09" fill="none" stroke="rgb(0, 0, 0)" stroke-width="12.00" stroke-opacity="1.00" stroke-linejoin="round"/>
<path d="M1336.37,79.09 L1470.00,649.09" fill="none" stroke="rgb(0, 0, 0)" stroke-width="12.00" stroke-opacity="1.00" stroke-linejoin="round"/>
<path d="M1470.00,649.09" fill="none" stroke="rgb(0, 0, 0)" stroke-width="12.00" stroke-opacity="1.00" stroke-linejoin="round"/>
<path d="M690.00,649.09 L867.27,84.55" fill="none" stroke="rgb(0, 0, 0)" stroke-width="12.00" stroke-opacity="1.00" stroke-linejoin="round"/>
<path d="M867.27,84.55" fill="none" stroke="rgb(0, 0, 0)" stroke-width="12.00" stroke-opacity="1.00" stroke-linejoin="round"/>
<path d="M1470.00,649.09 L1292.73,84.55" fill="none" stroke="rgb(0, 0, 0)" stroke-width="12.00" stroke-opacity="1.00" stroke-linejoin="round"/>
<path d="M1292.73,84.55" fill="none" stroke="rgb(0, 0, 0)" stroke-width="12.00" stroke-opacity="1.00" stroke-linejoin="round"/>
<path d="M195.00,640.91" fill="none" stroke="rgb(0, 0, 0)" stroke-width="12.00" stroke-opacity="1.00" stroke-linejoin="round"/>
<path d="M1965.00,640.91" fill="none" stroke="rgb(0, 0, 0)" stroke-width="12.00" stroke-opacity="1.00" stroke-linejoin="round"/>
<path d="M195.00,640.91 L980.47,681.31" fill="none" stroke="rgb(0, 0, 0)" stroke-width="12.00" stroke-opacity="1.00" stroke-linejoin="round"/>
<path d="M980.47,681.31" fill="none" stroke="rgb(0, 0, 0)" stroke-width="12.00" stroke-opacity="1.00" stroke-linejoin="round"/>
<path d="M1965.00,640.91 L1179.53,681.31" fill="none" stroke="rgb(0, 0, 0)" stroke-width="12.00" stroke-opacity="1.00" stroke-linejoin="round"/>
<path d="M1179.53,681.31" fill="none" stroke="rgb(0, 0, 0)" stroke-width="12.00" stroke-opacity="1.00" stroke-linejoin="round"/>
<path d="M980.47,681.31 L193.63,694.62" fill="none" stroke="rgb(0, 0, 0)" stroke-width="12.00" stroke-opacity="1.00" stroke-linejoin="round"/>
<path d="M193.63,694.62" fill="none" stroke="rgb(0, 0, 0)" stroke-width="12.00" stroke-opacity="1.00" stroke-linejoin="round"/>
<path d="M1179.53,681.31 L1966.37,694.62" fill="none" stroke="rgb(0, 0, 0)" stroke-width="12.00" stroke-opacity="1.00" stroke-linejoin="round"/>
<path d="M1966.37,694.62" fill="none" stroke="rgb(0, 0, 0)" stroke-width="12.00" stroke-opacity="1.00" stroke-linejoin="round"/>
<path d="M797.11,1643.80" fill="none" stroke="rgb(0, 0, 0)" stroke-width="12.00" stroke-opacity="1.00" stroke-linejoin="round"/>
<path d="M1362.89,1643.80" fill="none" stroke="rgb(0, 0, 0)" stroke-width="12.00" stroke-opacity="1.00" stroke-linejoin="round"/>
<path d="M973.70,1929.37 C973.70,1929.37 971.45,1929.37 971.45,1929.37" fill="none" stroke="rgb(0, 0, 0)" stroke-width="12.00" stroke-opacity="1.00" stroke-linejoin="round"/>
<path d="M1186.30,1929.37 C1186.30,1929.37 1188.55,1929.37 1188.55,1929.37" fill="none" stroke="rgb(0, 0, 0)" stroke-width="12.00" stroke-opacity="1.00" stroke-linejoin="round"/>
<path d="M971.45,1929.37 L685.20,700.98" fill="none" stroke="rgb(0, 0, 0)" stroke-width="12.00" stroke-opacity="1.00" stroke-linejoin="round"/>
<path d="M685.20,700.98" fill="none" stroke="rgb(0, 0, 0)" stroke-width="12.00" stroke-opacity="1.00" stroke-linejoin="round"/>
<path d="M1188.55,1929.37 L1474.80,700.98" fill="none" stroke="rgb(0, 0, 0)" stroke-width="12.00" stroke-opacity="1.00" stroke-linejoin="round"/>
<path d="M1474.80,700.98" fill="none" stroke="rgb(0, 0, 0)" stroke-width="12.00" stroke-opacity="1.00" stroke-linejoin="round"/>
<path d="M685.20,700.98 L886.23,1777.45" fill="none" stroke="rgb(0, 0, 0)" stroke-width="12.00" stroke-opacity="1.00" stroke-linejoin="round"/>
<path d="M1474.80,700.98 L1273.77,1777.45" fill="none" stroke="rgb(0, 0, 0)" stroke-width="12.00" stroke-opacity="1.00" stroke-linejoin="round"/>
</g>
<g stroke-linecap="round" id="Extra_Copy">
<path d="M1100.44,2040.30 L229.21,668.09" fill="none" stroke="rgb(0, 0, 0)" stroke-width="20.00" stroke-opacity="1.00" stroke-linejoin="round"/>
<path d="M229.21,668.09 L880.04,88.34" fill="none" stroke="rgb(0, 0, 0)" stroke-width="20.00" stroke-opacity="1.00" stroke-linejoin="round"/>
<path d="M1060.11,2041.16 L1933.79,665.09" fill="none" stroke="rgb(0, 0, 0)" stroke-width="20.00" stroke-opacity="1.00" stroke-linejoin="round"/>
<path d="M1933.79,665.09 L1282.96,85.34" fill="none" stroke="rgb(0, 0, 0)" stroke-width="20.00" stroke-opacity="1.00" stroke-linejoin="round"/>
<path d="M1337.96,138.34 L1080.66,134.48" fill="none" stroke="rgb(0, 0, 0)" stroke-width="20.00" stroke-opacity="1.00" stroke-linejoin="round"/>
<path d="M822.04,138.34 L1079.34,134.48" fill="none" stroke="rgb(0, 0, 0)" stroke-width="20.00" stroke-opacity="1.00" stroke-linejoin="round"/>
<path d="M865.33,108.00 C865.33,108.00 865.33,107.33 865.33,107.33" fill="none" stroke="rgb(0, 0, 0)" stroke-width="60.00" stroke-opacity="1.00" stroke-linejoin="round"/>
<path d="M865.33,107.33 L1317.33,108.00" fill="none" stroke="rgb(0, 0, 0)" stroke-width="60.00" stroke-opacity="1.00" stroke-linejoin="round"/>
<path d="M1317.33,108.00" fill="none" stroke="rgb(0, 0, 0)" stroke-width="60.00" stroke-opacity="1.00" stroke-linejoin="round"/>
<path d="M1342.00,114.67" fill="none" stroke="rgb(0, 0, 0)" stroke-width="40.00" stroke-opacity="1.00" stroke-linejoin="round"/>
<path d="M1342.00,114.67 L1955.33,655.33" fill="none" stroke="rgb(0, 0, 0)" stroke-width="40.00" stroke-opacity="1.00" stroke-linejoin="round"/>
<path d="M1955.33,655.33" fill="none" stroke="rgb(0, 0, 0)" stroke-width="40.00" stroke-opacity="1.00" stroke-linejoin="round"/>
<path d="M1936.67,700.67" fill="none" stroke="rgb(0, 0, 0)" stroke-width="40.00" stroke-opacity="1.00" stroke-linejoin="round"/>
<path d="M1936.67,700.67 L1112.00,1994.67" fill="none" stroke="rgb(0, 0, 0)" stroke-width="40.00" stroke-opacity="1.00" stroke-linejoin="round"/>
<path d="M1112.00,1994.67" fill="none" stroke="rgb(0, 0, 0)" stroke-width="40.00" stroke-opacity="1.00" stroke-linejoin="round"/>
<path d="M1032.67,1970.67" fill="none" stroke="rgb(0, 0, 0)" stroke-width="40.00" stroke-opacity="1.00" stroke-linejoin="round"/>
<path d="M1032.67,1970.67 L204.67,666.00" fill="none" stroke="rgb(0, 0, 0)" stroke-width="40.00" stroke-opacity="1.00" stroke-linejoin="round"/>
<path d="M204.67,666.00" fill="none" stroke="rgb(0, 0, 0)" stroke-width="40.00" stroke-opacity="1.00" stroke-linejoin="round"/>
<path d="M215.33,658.67" fill="none" stroke="rgb(0, 0, 0)" stroke-width="40.00" stroke-opacity="1.00" stroke-linejoin="round"/>
<path d="M215.33,658.67 L837.72,96.17" fill="none" stroke="rgb(0, 0, 0)" stroke-width="40.00" stroke-opacity="1.00" stroke-linejoin="round"/>
<path d="M837.72,96.17" fill="none" stroke="rgb(0, 0, 0)" stroke-width="40.00" stroke-opacity="1.00" stroke-linejoin="round"/>
<path d="M1026.45,1988.43 C1026.45,1988.43 1030.79,1990.50 1030.79,1990.50 C1030.79,1990.50 1033.68,1992.15 1033.68,1992.15 C1033.68,1992.15 1034.92,1992.98 1034.92,1992.98 C1034.92,1992.98 1038.22,1995.45 1038.22,1995.45 C1038.22,1995.45 1039.46,1995.87 1039.46,1995.87 C1039.46,1995.87 1040.08,1996.90 1040.08,1996.90 C1040.08,1996.90 1041.12,1997.52 1041.12,1997.52 C1041.12,1997.52 1042.56,1997.31 1042.56,1997.31 C1042.56,1997.31 1042.15,1991.12 1042.15,1991.12 C1042.15,1991.12 1045.25,1996.07 1045.25,1996.07 C1045.25,1996.07 1047.52,1999.38 1047.52,1999.38 C1047.52,1999.38 1048.55,2000.00 1048.55,2000.00 C1048.55,2000.00 1052.48,2006.40 1052.48,2006.40 C1052.48,2006.40 1055.37,2010.95 1055.37,2010.95 C1055.37,2010.95 1056.20,2012.19 1056.20,2012.19 C1056.20,2012.19 1057.02,2014.67 1057.02,2014.67 C1057.02,2014.67 1058.68,2017.15 1058.68,2017.15 C1058.68,2017.15 1059.50,2018.80 1059.50,2018.80 C1059.50,2018.80 1059.92,2020.04 1059.92,2020.04 C1059.92,2020.04 1062.40,2024.17 1062.40,2024.17 C1062.40,2024.17 1062.81,2025.41 1062.81,2025.41 C1062.81,2025.41 1064.46,2027.07 1064.46,2027.07 C1064.46,2027.07 1065.91,2029.13 1065.91,2029.13 C1065.91,2029.13 1066.53,2029.96 1066.53,2029.96 C1066.53,2029.96 1067.77,2033.26 1067.77,2033.26 C1067.77,2033.26 1068.60,2035.74 1068.60,2035.74 C1068.60,2035.74 1069.01,2037.81 1069.01,2037.81 C1069.01,2037.81 1069.83,2039.05 1069.83,2039.05 C1069.83,2039.05 1070.25,2040.29 1070.25,2040.29 C1070.25,2040.29 1070.66,2042.36 1070.66,2042.36 C1070.66,2042.36 1071.49,2043.60 1071.49,2043.60 C1071.49,2043.60 1071.90,2046.49 1071.90,2046.49 C1071.90,2046.49 1072.73,2047.73 1072.73,2047.73 C1072.73,2047.73 1073.14,2048.97 1073.14,2048.97 C1073.14,2048.97 1073.55,2050.21 1073.55,2050.21 C1073.55,2050.21 1073.97,2051.45 1073.97,2051.45 C1073.97,2051.45 1074.79,2052.27 1074.79,2052.27 C1074.79,2052.27 1076.45,2054.34 1076.45,2054.34 C1076.45,2054.34 1076.65,2055.37 1076.65,2055.37 C1076.65,2055.37 1077.48,2056.20 1077.48,2056.20 C1077.48,2056.20 1077.69,2054.75 1077.69,2054.75 C1077.69,2054.75 1078.10,2053.51 1078.10,2053.51 C1078.10,2053.51 1078.51,2052.27 1078.51,2052.27 C1078.51,2052.27 1079.13,2051.03 1079.13,2051.03 C1079.13,2051.03 1082.44,2046.28 1082.44,2046.28 C1082.44,2046.28 1083.47,2045.25 1083.47,2045.25 C1083.47,2045.25 1083.68,2044.01 1083.68,2044.01 C1083.68,2044.01 1090.91,2035.74 1090.91,2035.74 C1090.91,2035.74 1092.98,2033.26 1092.98,2033.26 C1092.98,2033.26 1094.83,2031.61 1094.83,2031.61 C1094.83,2031.61 1099.59,2026.24 1099.59,2026.24 C1099.59,2026.24 1100.41,2025.00 1100.41,2025.00 C1100.41,2025.00 1102.89,2022.11 1102.89,2022.11 C1102.89,2022.11 1103.72,2020.87 1103.72,2020.87 C1103.72,2020.87 1104.96,2017.98 1104.96,2017.98 C1104.96,2017.98 1105.99,2017.36 1105.99,2017.36 C1105.99,2017.36 1106.61,2016.32 1106.61,2016.32 C1106.61,2016.32 1107.44,2015.08 1107.44,2015.08 C1107.44,2015.08 1107.85,2013.43 1107.85,2013.43 C1107.85,2013.43 1108.26,2012.40 1108.26,2012.40" fill="none" stroke="rgb(0, 0, 0)" stroke-width="40.00" stroke-opacity="1.00" stroke-linejoin="round"/>
</g>
</svg>
