<?xml version="1.0" encoding="UTF-8" standalone="no"?>
<!DOCTYPE svg PUBLIC "-//W3C//DTD SVG 1.1//EN" "http://www.w3.org/Graphics/SVG/1.1/DTD/svg11.dtd">
<svg width="129.60" height="129.60" viewBox="0.00 0.00 2160.00 2160.00" xmlns="http://www.w3.org/2000/svg" xmlns:xlink="http://www.w3.org/1999/xlink">
<g stroke-linecap="round" id="Fill">
<path d="M767.20,1057.13" fill="none" stroke="rgb(0, 0, 0)" stroke-width="15.00" stroke-opacity="1.00" stroke-linejoin="round"/>
<path d="M767.20,1063.92" fill="none" stroke="rgb(0, 0, 0)" stroke-width="15.00" stroke-opacity="1.00" stroke-linejoin="round"/>
<path d="M767.20,1057.13 L32.84,166.52" fill="none" stroke="rgb(0, 0, 0)" stroke-width="15.00" stroke-opacity="1.00" stroke-linejoin="round"/>
<path d="M32.84,166.52" fill="none" stroke="rgb(0, 0, 0)" stroke-width="15.00" stroke-opacity="1.00" stroke-linejoin="round"/>
<path d="M767.20,1063.92 L32.84,1954.53" fill="none" stroke="rgb(0, 0, 0)" stroke-width="15.00" stroke-opacity="1.00" stroke-linejoin="round"/>
<path d="M32.84,1954.53" fill="none" stroke="rgb(0, 0, 0)" stroke-width="15.00" stroke-opacity="1.00" stroke-linejoin="round"/>
<path d="M32.84,166.52 L658.59,164.31" fill="none" stroke="rgb(0, 0, 0)" stroke-width="15.00" stroke-opacity="1.00" stroke-linejoin="round"/>
<path d="M658.59,164.31" fill="none" stroke="rgb(0, 0, 0)" stroke-width="15.00" stroke-opacity="1.00" stroke-linejoin="round"/>
<path d="M32.84,1954.53 L658.59,1956.74" fill="none" stroke="rgb(0, 0, 0)" stroke-width="15.00" stroke-opacity="1.00" stroke-linejoin="round"/>
<path d="M658.59,1956.74" fill="none" stroke="rgb(0, 0, 0)" stroke-width="15.00" stroke-opacity="1.00" stroke-linejoin="round"/>
<path d="M658.59,164.31 L1349.77,1060.68" fill="none" stroke="rgb(0, 0, 0)" stroke-width="15.00" stroke-opacity="1.00" stroke-linejoin="round"/>
<path d="M1349.77,1060.68" fill="none" stroke="rgb(0, 0, 0)" stroke-width="15.00" stroke-opacity="1.00" stroke-linejoin="round"/>
<path d="M658.59,1956.74 L1349.77,1060.37" fill="none" stroke="rgb(0, 0, 0)" stroke-width="15.00" stroke-opacity="1.00" stroke-linejoin="round"/>
<path d="M1349.77,1060.37" fill="none" stroke="rgb(0, 0, 0)" stroke-width="15.00" stroke-opacity="1.00" stroke-linejoin="round"/>
<path d="M1349.77,1060.68 L772.15,1063.45" fill="none" stroke="rgb(0, 0, 0)" stroke-width="15.00" stroke-opacity="1.00" stroke-linejoin="round"/>
<path d="M772.15,1063.11" fill="none" stroke="rgb(0, 0, 0)" stroke-width="15.00" stroke-opacity="1.00" stroke-linejoin="round"/>
<path d="M1349.77,1060.37 L772.15,1057.60" fill="none" stroke="rgb(0, 0, 0)" stroke-width="15.00" stroke-opacity="1.00" stroke-linejoin="round"/>
<path d="M772.15,1057.94" fill="none" stroke="rgb(0, 0, 0)" stroke-width="15.00" stroke-opacity="1.00" stroke-linejoin="round"/>
<path d="M772.15,1063.11 L48.33,1946.67" fill="none" stroke="rgb(0, 0, 0)" stroke-width="15.00" stroke-opacity="1.00" stroke-linejoin="round"/>
<path d="M48.33,1946.67" fill="none" stroke="rgb(0, 0, 0)" stroke-width="15.00" stroke-opacity="1.00" stroke-linejoin="round"/>
<path d="M772.15,1057.94 L48.33,174.38" fill="none" stroke="rgb(0, 0, 0)" stroke-width="15.00" stroke-opacity="1.00" stroke-linejoin="round"/>
<path d="M48.33,174.38" fill="none" stroke="rgb(0, 0, 0)" stroke-width="15.00" stroke-opacity="1.00" stroke-linejoin="round"/>
<path d="M48.33,1946.67 L657.22,1948.89" fill="none" stroke="rgb(0, 0, 0)" stroke-width="15.00" stroke-opacity="1.00" stroke-linejoin="round"/>
<path d="M657.22,1948.89" fill="none" stroke="rgb(0, 0, 0)" stroke-width="15.00" stroke-opacity="1.00" stroke-linejoin="round"/>
<path d="M48.33,174.38 L657.22,172.16" fill="none" stroke="rgb(0, 0, 0)" stroke-width="15.00" stroke-opacity="1.00" stroke-linejoin="round"/>
<path d="M657.22,172.16" fill="none" stroke="rgb(0, 0, 0)" stroke-width="15.00" stroke-opacity="1.00" stroke-linejoin="round"/>
<path d="M657.22,1948.89 L1335.84,1067.37" fill="none" stroke="rgb(0, 0, 0)" stroke-width="15.00" stroke-opacity="1.00" stroke-linejoin="round"/>
<path d="M1335.84,1067.37" fill="none" stroke="rgb(0, 0, 0)" stroke-width="15.00" stroke-opacity="1.00" stroke-linejoin="round"/>
<path d="M657.22,172.16 L1335.84,1053.68" fill="none" stroke="rgb(0, 0, 0)" stroke-width="15.00" stroke-opacity="1.00" stroke-linejoin="round"/>
<path d="M1335.84,1053.68" fill="none" stroke="rgb(0, 0, 0)" stroke-width="15.00" stroke-opacity="1.00" stroke-linejoin="round"/>
<path d="M1335.84,1067.37 L775.36,1072.88" fill="none" stroke="rgb(0, 0, 0)" stroke-width="25.00" stroke-opacity="1.00" stroke-linejoin="round"/>
<path d="M775.36,1072.88" fill="none" stroke="rgb(0, 0, 0)" stroke-width="25.00" stroke-opacity="1.00" stroke-linejoin="round"/>
<path d="M1335.84,1053.68 L775.36,1048.17" fill="none" stroke="rgb(0, 0, 0)" stroke-width="25.00" stroke-opacity="1.00" stroke-linejoin="round"/>
<path d="M775.36,1048.17" fill="none" stroke="rgb(0, 0, 0)" stroke-width="25.00" stroke-opacity="1.00" stroke-linejoin="round"/>
<path d="M775.36,1072.88 L66.76,1936.90" fill="none" stroke="rgb(0, 0, 0)" stroke-width="25.00" stroke-opacity="1.00" stroke-linejoin="round"/>
<path d="M66.76,1936.90" fill="none" stroke="rgb(0, 0, 0)" stroke-width="25.00" stroke-opacity="1.00" stroke-linejoin="round"/>
<path d="M775.36,1048.17 L66.76,184.15" fill="none" stroke="rgb(0, 0, 0)" stroke-width="25.00" stroke-opacity="1.00" stroke-linejoin="round"/>
<path d="M66.76,184.15" fill="none" stroke="rgb(0, 0, 0)" stroke-width="25.00" stroke-opacity="1.00" stroke-linejoin="round"/>
<path d="M66.76,1936.90 L652.03,1938.73" fill="none" stroke="rgb(0, 0, 0)" stroke-width="25.00" stroke-opacity="1.00" stroke-linejoin="round"/>
<path d="M652.03,1938.73" fill="none" stroke="rgb(0, 0, 0)" stroke-width="25.00" stroke-opacity="1.00" stroke-linejoin="round"/>
<path d="M66.76,184.15 L652.03,182.32" fill="none" stroke="rgb(0, 0, 0)" stroke-width="25.00" stroke-opacity="1.00" stroke-linejoin="round"/>
<path d="M652.03,182.32" fill="none" stroke="rgb(0, 0, 0)" stroke-width="25.00" stroke-opacity="1.00" stroke-linejoin="round"/>
<path d="M652.03,1938.73 L1311.00,1080.00" fill="none" stroke="rgb(0, 0, 0)" stroke-width="25.00" stroke-opacity="1.00" stroke-linejoin="round"/>
<path d="M1311.00,1080.00" fill="none" stroke="rgb(0, 0, 0)" stroke-width="25.00" stroke-opacity="1.00" stroke-linejoin="round"/>
<path d="M652.03,182.32 L1311.00,1041.05" fill="none" stroke="rgb(0, 0, 0)" stroke-width="25.00" stroke-opacity="1.00" stroke-linejoin="round"/>
<path d="M1311.00,1041.05" fill="none" stroke="rgb(0, 0, 0)" stroke-width="25.00" stroke-opacity="1.00" stroke-linejoin="round"/>
<path d="M1311.00,1080.00 L778.50,1083.00" fill="none" stroke="rgb(0, 0, 0)" stroke-width="25.00" stroke-opacity="1.00" stroke-linejoin="round"/>
<path d="M778.50,1083.00" fill="none" stroke="rgb(0, 0, 0)" stroke-width="25.00" stroke-opacity="1.00" stroke-linejoin="round"/>
<path d="M1311.00,1041.05 L778.50,1038.05" fill="none" stroke="rgb(0, 0, 0)" stroke-width="25.00" stroke-opacity="1.00" stroke-linejoin="round"/>
<path d="M778.50,1038.05" fill="none" stroke="rgb(0, 0, 0)" stroke-width="25.00" stroke-opacity="1.00" stroke-linejoin="round"/>
<path d="M778.50,1083.00 L106.50,1921.50" fill="none" stroke="rgb(0, 0, 0)" stroke-width="50.00" stroke-opacity="1.00" stroke-linejoin="round"/>
<path d="M106.50,1921.50" fill="none" stroke="rgb(0, 0, 0)" stroke-width="50.00" stroke-opacity="1.00" stroke-linejoin="round"/>
<path d="M778.50,1038.05 L106.50,199.55" fill="none" stroke="rgb(0, 0, 0)" stroke-width="50.00" stroke-opacity="1.00" stroke-linejoin="round"/>
<path d="M106.50,199.55" fill="none" stroke="rgb(0, 0, 0)" stroke-width="50.00" stroke-opacity="1.00" stroke-linejoin="round"/>
<path d="M106.50,1921.50 L649.50,1915.50" fill="none" stroke="rgb(0, 0, 0)" stroke-width="50.00" stroke-opacity="1.00" stroke-linejoin="round"/>
<path d="M649.50,1915.50" fill="none" stroke="rgb(0, 0, 0)" stroke-width="50.00" stroke-opacity="1.00" stroke-linejoin="round"/>
<path d="M106.50,199.55 L649.50,205.55" fill="none" stroke="rgb(0, 0, 0)" stroke-width="50.00" stroke-opacity="1.00" stroke-linejoin="round"/>
<path d="M649.50,205.55" fill="none" stroke="rgb(0, 0, 0)" stroke-width="50.00" stroke-opacity="1.00" stroke-linejoin="round"/>
<path d="M649.50,1915.50 L1284.00,1084.50" fill="none" stroke="rgb(0, 0, 0)" stroke-width="50.00" stroke-opacity="1.00" stroke-linejoin="round"/>
<path d="M1284.00,1084.50" fill="none" stroke="rgb(0, 0, 0)" stroke-width="50.00" stroke-opacity="1.00" stroke-linejoin="round"/>
<path d="M649.50,205.55 L1284.00,1036.55" fill="none" stroke="rgb(0, 0, 0)" stroke-width="50.00" stroke-opacity="1.00" stroke-linejoin="round"/>
<path d="M1284.00,1036.55" fill="none" stroke="rgb(0, 0, 0)" stroke-width="50.00" stroke-opacity="1.00" stroke-linejoin="round"/>
<path d="M1284.00,1084.50 L799.50,1104.00" fill="none" stroke="rgb(0, 0, 0)" stroke-width="50.00" stroke-opacity="1.00" stroke-linejoin="round"/>
<path d="M799.50,1104.00 C799.50,1104.00 801.00,1102.50 801.00,1102.50" fill="none" stroke="rgb(0, 0, 0)" stroke-width="50.00" stroke-opacity="1.00" stroke-linejoin="round"/>
<path d="M1284.00,1036.55 L799.50,1017.05" fill="none" stroke="rgb(0, 0, 0)" stroke-width="50.00" stroke-opacity="1.00" stroke-linejoin="round"/>
<path d="M799.50,1017.05 C799.50,1017.05 801.00,1018.55 801.00,1018.55" fill="none" stroke="rgb(0, 0, 0)" stroke-width="50.00" stroke-opacity="1.00" stroke-linejoin="round"/>
<path d="M801.00,1102.50 L157.50,1897.50" fill="none" stroke="rgb(0, 0, 0)" stroke-width="50.00" stroke-opacity="1.00" stroke-linejoin="round"/>
<path d="M157.50,1897.50" fill="none" stroke="rgb(0, 0, 0)" stroke-width="50.00" stroke-opacity="1.00" stroke-linejoin="round"/>
<path d="M801.00,1018.55 L157.50,223.55" fill="none" stroke="rgb(0, 0, 0)" stroke-width="50.00" stroke-opacity="1.00" stroke-linejoin="round"/>
<path d="M157.50,223.55" fill="none" stroke="rgb(0, 0, 0)" stroke-width="50.00" stroke-opacity="1.00" stroke-linejoin="round"/>
<path d="M157.50,1897.50 L634.50,1888.50" fill="none" stroke="rgb(0, 0, 0)" stroke-width="50.00" stroke-opacity="1.00" stroke-linejoin="round"/>
<path d="M634.50,1888.50" fill="none" stroke="rgb(0, 0, 0)" stroke-width="50.00" stroke-opacity="1.00" stroke-linejoin="round"/>
<path d="M157.50,223.55 L634.50,232.55" fill="none" stroke="rgb(0, 0, 0)" stroke-width="50.00" stroke-opacity="1.00" stroke-linejoin="round"/>
<path d="M634.50,232.55" fill="none" stroke="rgb(0, 0, 0)" stroke-width="50.00" stroke-opacity="1.00" stroke-linejoin="round"/>
<path d="M634.50,1888.50 L1239.00,1108.50" fill="none" stroke="rgb(0, 0, 0)" stroke-width="50.00" stroke-opacity="1.00" stroke-linejoin="round"/>
<path d="M1239.00,1108.50" fill="none" stroke="rgb(0, 0, 0)" stroke-width="50.00" stroke-opacity="1.00" stroke-linejoin="round"/>
<path d="M634.50,232.55 L1239.00,1012.55" fill="none" stroke="rgb(0, 0, 0)" stroke-width="50.00" stroke-opacity="1.00" stroke-linejoin="round"/>
<path d="M1239.00,1012.55" fill="none" stroke="rgb(0, 0, 0)" stroke-width="50.00" stroke-opacity="1.00" stroke-linejoin="round"/>
<path d="M1239.00,1108.50 L808.50,1128.00" fill="none" stroke="rgb(0, 0, 0)" stroke-width="50.00" stroke-opacity="1.00" stroke-linejoin="round"/>
<path d="M808.50,1128.00 C808.50,1128.00 810.00,1128.00 810.00,1128.00" fill="none" stroke="rgb(0, 0, 0)" stroke-width="50.00" stroke-opacity="1.00" stroke-linejoin="round"/>
<path d="M1239.00,1012.55 L808.50,993.05" fill="none" stroke="rgb(0, 0, 0)" stroke-width="50.00" stroke-opacity="1.00" stroke-linejoin="round"/>
<path d="M808.50,993.05 C808.50,993.05 810.00,993.05 810.00,993.05" fill="none" stroke="rgb(0, 0, 0)" stroke-width="50.00" stroke-opacity="1.00" stroke-linejoin="round"/>
<path d="M810.00,1128.00 L210.00,1863.00" fill="none" stroke="rgb(0, 0, 0)" stroke-width="80.00" stroke-opacity="1.00" stroke-linejoin="round"/>
<path d="M210.00,1863.00" fill="none" stroke="rgb(0, 0, 0)" stroke-width="80.00" stroke-opacity="1.00" stroke-linejoin="round"/>
<path d="M810.00,993.05 L210.00,258.05" fill="none" stroke="rgb(0, 0, 0)" stroke-width="80.00" stroke-opacity="1.00" stroke-linejoin="round"/>
<path d="M210.00,258.05" fill="none" stroke="rgb(0, 0, 0)" stroke-width="80.00" stroke-opacity="1.00" stroke-linejoin="round"/>
<path d="M210.00,1863.00 L618.00,1861.50" fill="none" stroke="rgb(0, 0, 0)" stroke-width="80.00" stroke-opacity="1.00" stroke-linejoin="round"/>
<path d="M618.00,1861.50 C620.34,1861.19 621.66,1860.31 622.50,1858.50" fill="none" stroke="rgb(0, 0, 0)" stroke-width="80.00" stroke-opacity="1.00" stroke-linejoin="round"/>
<path d="M210.00,258.05 L618.00,259.55" fill="none" stroke="rgb(0, 0, 0)" stroke-width="80.00" stroke-opacity="1.00" stroke-linejoin="round"/>
<path d="M618.00,259.55 C620.34,259.86 621.66,260.74 622.50,262.55" fill="none" stroke="rgb(0, 0, 0)" stroke-width="80.00" stroke-opacity="1.00" stroke-linejoin="round"/>
<path d="M622.50,1858.50 L1164.00,1141.50" fill="none" stroke="rgb(0, 0, 0)" stroke-width="80.00" stroke-opacity="1.00" stroke-linejoin="round"/>
<path d="M1164.00,1141.50" fill="none" stroke="rgb(0, 0, 0)" stroke-width="80.00" stroke-opacity="1.00" stroke-linejoin="round"/>
<path d="M622.50,262.55 L1164.00,979.55" fill="none" stroke="rgb(0, 0, 0)" stroke-width="80.00" stroke-opacity="1.00" stroke-linejoin="round"/>
<path d="M1164.00,979.55" fill="none" stroke="rgb(0, 0, 0)" stroke-width="80.00" stroke-opacity="1.00" stroke-linejoin="round"/>
<path d="M1164.00,1141.50 L838.50,1162.50" fill="none" stroke="rgb(0, 0, 0)" stroke-width="80.00" stroke-opacity="1.00" stroke-linejoin="round"/>
<path d="M838.50,1162.50" fill="none" stroke="rgb(0, 0, 0)" stroke-width="80.00" stroke-opacity="1.00" stroke-linejoin="round"/>
<path d="M1164.00,979.55 L838.50,958.55" fill="none" stroke="rgb(0, 0, 0)" stroke-width="80.00" stroke-opacity="1.00" stroke-linejoin="round"/>
<path d="M838.50,958.55" fill="none" stroke="rgb(0, 0, 0)" stroke-width="80.00" stroke-opacity="1.00" stroke-linejoin="round"/>
<path d="M838.50,1162.50 L298.50,1831.50" fill="none" stroke="rgb(0, 0, 0)" stroke-width="80.00" stroke-opacity="1.00" stroke-linejoin="round"/>
<path d="M298.50,1831.50" fill="none" stroke="rgb(0, 0, 0)" stroke-width="80.00" stroke-opacity="1.00" stroke-linejoin="round"/>
<path d="M838.50,958.55 L298.50,289.55" fill="none" stroke="rgb(0, 0, 0)" stroke-width="80.00" stroke-opacity="1.00" stroke-linejoin="round"/>
<path d="M298.50,289.55" fill="none" stroke="rgb(0, 0, 0)" stroke-width="80.00" stroke-opacity="1.00" stroke-linejoin="round"/>
<path d="M298.50,1831.50 L604.50,1825.50" fill="none" stroke="rgb(0, 0, 0)" stroke-width="80.00" stroke-opacity="1.00" stroke-linejoin="round"/>
<path d="M604.50,1825.50 C604.50,1825.50 604.50,1824.00 604.50,1824.00" fill="none" stroke="rgb(0, 0, 0)" stroke-width="80.00" stroke-opacity="1.00" stroke-linejoin="round"/>
<path d="M298.50,289.55 L604.50,295.55" fill="none" stroke="rgb(0, 0, 0)" stroke-width="80.00" stroke-opacity="1.00" stroke-linejoin="round"/>
<path d="M604.50,295.55 C604.50,295.55 604.50,297.05 604.50,297.05" fill="none" stroke="rgb(0, 0, 0)" stroke-width="80.00" stroke-opacity="1.00" stroke-linejoin="round"/>
<path d="M604.50,1824.00 L1068.00,1183.50" fill="none" stroke="rgb(0, 0, 0)" stroke-width="80.00" stroke-opacity="1.00" stroke-linejoin="round"/>
<path d="M1068.00,1183.50 C1068.00,1183.50 1069.50,1182.00 1069.50,1182.00" fill="none" stroke="rgb(0, 0, 0)" stroke-width="80.00" stroke-opacity="1.00" stroke-linejoin="round"/>
<path d="M604.50,297.05 L1068.00,937.55" fill="none" stroke="rgb(0, 0, 0)" stroke-width="80.00" stroke-opacity="1.00" stroke-linejoin="round"/>
<path d="M1068.00,937.55 C1068.00,937.55 1069.50,939.05 1069.50,939.05" fill="none" stroke="rgb(0, 0, 0)" stroke-width="80.00" stroke-opacity="1.00" stroke-linejoin="round"/>
<path d="M1069.50,1182.00 L862.50,1206.00" fill="none" stroke="rgb(0, 0, 0)" stroke-width="80.00" stroke-opacity="1.00" stroke-linejoin="round"/>
<path d="M862.50,1206.00 C862.50,1206.00 862.50,1204.50 862.50,1204.50" fill="none" stroke="rgb(0, 0, 0)" stroke-width="80.00" stroke-opacity="1.00" stroke-linejoin="round"/>
<path d="M1069.50,939.05 L862.50,915.05" fill="none" stroke="rgb(0, 0, 0)" stroke-width="80.00" stroke-opacity="1.00" stroke-linejoin="round"/>
<path d="M862.50,915.05 C862.50,915.05 862.50,916.55 862.50,916.55" fill="none" stroke="rgb(0, 0, 0)" stroke-width="80.00" stroke-opacity="1.00" stroke-linejoin="round"/>
<path d="M862.50,1204.50 L387.00,1786.50" fill="none" stroke="rgb(0, 0, 0)" stroke-width="80.00" stroke-opacity="1.00" stroke-linejoin="round"/>
<path d="M387.00,1786.50" fill="none" stroke="rgb(0, 0, 0)" stroke-width="80.00" stroke-opacity="1.00" stroke-linejoin="round"/>
<path d="M862.50,916.55 L387.00,334.55" fill="none" stroke="rgb(0, 0, 0)" stroke-width="80.00" stroke-opacity="1.00" stroke-linejoin="round"/>
<path d="M387.00,334.55" fill="none" stroke="rgb(0, 0, 0)" stroke-width="80.00" stroke-opacity="1.00" stroke-linejoin="round"/>
<path d="M387.00,1786.50 L571.50,1788.00" fill="none" stroke="rgb(0, 0, 0)" stroke-width="80.00" stroke-opacity="1.00" stroke-linejoin="round"/>
<path d="M571.50,1788.00" fill="none" stroke="rgb(0, 0, 0)" stroke-width="80.00" stroke-opacity="1.00" stroke-linejoin="round"/>
<path d="M387.00,334.55 L571.50,333.05" fill="none" stroke="rgb(0, 0, 0)" stroke-width="80.00" stroke-opacity="1.00" stroke-linejoin="round"/>
<path d="M571.50,333.05" fill="none" stroke="rgb(0, 0, 0)" stroke-width="80.00" stroke-opacity="1.00" stroke-linejoin="round"/>
<path d="M571.50,1788.00 L985.50,1233.00" fill="none" stroke="rgb(0, 0, 0)" stroke-width="80.00" stroke-opacity="1.00" stroke-linejoin="round"/>
<path d="M985.50,1233.00 C985.50,1233.00 985.50,1231.50 985.50,1231.50" fill="none" stroke="rgb(0, 0, 0)" stroke-width="80.00" stroke-opacity="1.00" stroke-linejoin="round"/>
<path d="M571.50,333.05 L985.50,888.05" fill="none" stroke="rgb(0, 0, 0)" stroke-width="80.00" stroke-opacity="1.00" stroke-linejoin="round"/>
<path d="M985.50,888.05 C985.50,888.05 985.50,889.55 985.50,889.55" fill="none" stroke="rgb(0, 0, 0)" stroke-width="80.00" stroke-opacity="1.00" stroke-linejoin="round"/>
<path d="M985.50,1231.50 L898.50,1240.50" fill="none" stroke="rgb(0, 0, 0)" stroke-width="80.00" stroke-opacity="1.00" stroke-linejoin="round"/>
<path d="M898.50,1240.50" fill="none" stroke="rgb(0, 0, 0)" stroke-width="80.00" stroke-opacity="1.00" stroke-linejoin="round"/>
<path d="M985.50,889.55 L898.50,880.55" fill="none" stroke="rgb(0, 0, 0)" stroke-width="80.00" stroke-opacity="1.00" stroke-linejoin="round"/>
<path d="M898.50,880.55" fill="none" stroke="rgb(0, 0, 0)" stroke-width="80.00" stroke-opacity="1.00" stroke-linejoin="round"/>
<path d="M898.50,1240.50 L489.00,1758.00" fill="none" stroke="rgb(0, 0, 0)" stroke-width="80.00" stroke-opacity="1.00" stroke-linejoin="round"/>
<path d="M489.00,1758.00" fill="none" stroke="rgb(0, 0, 0)" stroke-width="80.00" stroke-opacity="1.00" stroke-linejoin="round"/>
<path d="M898.50,880.55 L489.00,363.05" fill="none" stroke="rgb(0, 0, 0)" stroke-width="80.00" stroke-opacity="1.00" stroke-linejoin="round"/>
<path d="M489.00,363.05" fill="none" stroke="rgb(0, 0, 0)" stroke-width="80.00" stroke-opacity="1.00" stroke-linejoin="round"/>
<path d="M489.00,1758.00 L556.50,1744.50" fill="none" stroke="rgb(0, 0, 0)" stroke-width="80.00" stroke-opacity="1.00" stroke-linejoin="round"/>
<path d="M556.50,1744.50 C556.50,1744.50 558.00,1743.00 558.00,1743.00" fill="none" stroke="rgb(0, 0, 0)" stroke-width="80.00" stroke-opacity="1.00" stroke-linejoin="round"/>
<path d="M489.00,363.05 L556.50,376.55" fill="none" stroke="rgb(0, 0, 0)" stroke-width="80.00" stroke-opacity="1.00" stroke-linejoin="round"/>
<path d="M556.50,376.55 C556.50,376.55 558.00,378.05 558.00,378.05" fill="none" stroke="rgb(0, 0, 0)" stroke-width="80.00" stroke-opacity="1.00" stroke-linejoin="round"/>
<path d="M558.00,1743.00 L799.50,1408.50" fill="none" stroke="rgb(0, 0, 0)" stroke-width="80.00" stroke-opacity="1.00" stroke-linejoin="round"/>
<path d="M799.50,1408.50" fill="none" stroke="rgb(0, 0, 0)" stroke-width="80.00" stroke-opacity="1.00" stroke-linejoin="round"/>
<path d="M558.00,378.05 L799.50,712.55" fill="none" stroke="rgb(0, 0, 0)" stroke-width="80.00" stroke-opacity="1.00" stroke-linejoin="round"/>
<path d="M799.50,712.55" fill="none" stroke="rgb(0, 0, 0)" stroke-width="80.00" stroke-opacity="1.00" stroke-linejoin="round"/>
<path d="M1645.68,1059.77" fill="none" stroke="rgb(0, 0, 0)" stroke-width="15.00" stroke-opacity="1.00" stroke-linejoin="round"/>
<path d="M1645.68,1061.28" fill="none" stroke="rgb(0, 0, 0)" stroke-width="15.00" stroke-opacity="1.00" stroke-linejoin="round"/>
<path d="M1645.68,1059.77 L1046.83,276.48" fill="none" stroke="rgb(0, 0, 0)" stroke-width="15.00" stroke-opacity="1.00" stroke-linejoin="round"/>
<path d="M1046.83,276.48" fill="none" stroke="rgb(0, 0, 0)" stroke-width="15.00" stroke-opacity="1.00" stroke-linejoin="round"/>
<path d="M1645.68,1061.28 L1046.83,1844.57" fill="none" stroke="rgb(0, 0, 0)" stroke-width="15.00" stroke-opacity="1.00" stroke-linejoin="round"/>
<path d="M1046.83,1844.57" fill="none" stroke="rgb(0, 0, 0)" stroke-width="15.00" stroke-opacity="1.00" stroke-linejoin="round"/>
<path d="M1046.83,276.48 L1556.59,276.62" fill="none" stroke="rgb(0, 0, 0)" stroke-width="15.00" stroke-opacity="1.00" stroke-linejoin="round"/>
<path d="M1556.59,276.62 C1556.59,276.62 1556.59,275.94 1556.59,275.94" fill="none" stroke="rgb(0, 0, 0)" stroke-width="15.00" stroke-opacity="1.00" stroke-linejoin="round"/>
<path d="M1046.83,1844.57 L1556.59,1844.43" fill="none" stroke="rgb(0, 0, 0)" stroke-width="15.00" stroke-opacity="1.00" stroke-linejoin="round"/>
<path d="M1556.59,1844.43 C1556.59,1844.43 1556.59,1845.11 1556.59,1845.11" fill="none" stroke="rgb(0, 0, 0)" stroke-width="15.00" stroke-opacity="1.00" stroke-linejoin="round"/>
<path d="M1556.59,275.94 L2126.90,1060.38" fill="none" stroke="rgb(0, 0, 0)" stroke-width="15.00" stroke-opacity="1.00" stroke-linejoin="round"/>
<path d="M2126.90,1060.38" fill="none" stroke="rgb(0, 0, 0)" stroke-width="15.00" stroke-opacity="1.00" stroke-linejoin="round"/>
<path d="M1556.59,1845.11 L2126.90,1060.67" fill="none" stroke="rgb(0, 0, 0)" stroke-width="15.00" stroke-opacity="1.00" stroke-linejoin="round"/>
<path d="M2126.90,1060.67" fill="none" stroke="rgb(0, 0, 0)" stroke-width="15.00" stroke-opacity="1.00" stroke-linejoin="round"/>
<path d="M2126.90,1060.38 L1649.13,1058.60" fill="none" stroke="rgb(0, 0, 0)" stroke-width="15.00" stroke-opacity="1.00" stroke-linejoin="round"/>
<path d="M1649.13,1058.60" fill="none" stroke="rgb(0, 0, 0)" stroke-width="15.00" stroke-opacity="1.00" stroke-linejoin="round"/>
<path d="M2126.90,1060.67 L1649.13,1062.45" fill="none" stroke="rgb(0, 0, 0)" stroke-width="15.00" stroke-opacity="1.00" stroke-linejoin="round"/>
<path d="M1649.13,1062.45" fill="none" stroke="rgb(0, 0, 0)" stroke-width="15.00" stroke-opacity="1.00" stroke-linejoin="round"/>
<path d="M1649.13,1058.60 L1068.59,283.95" fill="none" stroke="rgb(0, 0, 0)" stroke-width="25.00" stroke-opacity="1.00" stroke-linejoin="round"/>
<path d="M1068.59,283.95" fill="none" stroke="rgb(0, 0, 0)" stroke-width="25.00" stroke-opacity="1.00" stroke-linejoin="round"/>
<path d="M1649.13,1062.45 L1068.59,1837.10" fill="none" stroke="rgb(0, 0, 0)" stroke-width="25.00" stroke-opacity="1.00" stroke-linejoin="round"/>
<path d="M1068.59,1837.10" fill="none" stroke="rgb(0, 0, 0)" stroke-width="25.00" stroke-opacity="1.00" stroke-linejoin="round"/>
<path d="M1068.59,283.95 L1562.42,289.44" fill="none" stroke="rgb(0, 0, 0)" stroke-width="25.00" stroke-opacity="1.00" stroke-linejoin="round"/>
<path d="M1562.42,289.44" fill="none" stroke="rgb(0, 0, 0)" stroke-width="25.00" stroke-opacity="1.00" stroke-linejoin="round"/>
<path d="M1068.59,1837.10 L1562.42,1831.61" fill="none" stroke="rgb(0, 0, 0)" stroke-width="25.00" stroke-opacity="1.00" stroke-linejoin="round"/>
<path d="M1562.42,1831.61" fill="none" stroke="rgb(0, 0, 0)" stroke-width="25.00" stroke-opacity="1.00" stroke-linejoin="round"/>
<path d="M1562.42,289.44 L2105.63,1054.87" fill="none" stroke="rgb(0, 0, 0)" stroke-width="25.00" stroke-opacity="1.00" stroke-linejoin="round"/>
<path d="M2105.63,1054.87" fill="none" stroke="rgb(0, 0, 0)" stroke-width="25.00" stroke-opacity="1.00" stroke-linejoin="round"/>
<path d="M1562.42,1831.61 L2105.63,1066.18" fill="none" stroke="rgb(0, 0, 0)" stroke-width="25.00" stroke-opacity="1.00" stroke-linejoin="round"/>
<path d="M2105.63,1066.18" fill="none" stroke="rgb(0, 0, 0)" stroke-width="25.00" stroke-opacity="1.00" stroke-linejoin="round"/>
<path d="M2105.63,1054.87 L1659.81,1050.76" fill="none" stroke="rgb(0, 0, 0)" stroke-width="25.00" stroke-opacity="1.00" stroke-linejoin="round"/>
<path d="M1659.81,1050.76" fill="none" stroke="rgb(0, 0, 0)" stroke-width="25.00" stroke-opacity="1.00" stroke-linejoin="round"/>
<path d="M2105.63,1066.18 L1659.81,1070.29" fill="none" stroke="rgb(0, 0, 0)" stroke-width="25.00" stroke-opacity="1.00" stroke-linejoin="round"/>
<path d="M1659.81,1070.29" fill="none" stroke="rgb(0, 0, 0)" stroke-width="25.00" stroke-opacity="1.00" stroke-linejoin="round"/>
<path d="M1659.81,1050.76 L1096.02,299.04" fill="none" stroke="rgb(0, 0, 0)" stroke-width="25.00" stroke-opacity="1.00" stroke-linejoin="round"/>
<path d="M1096.02,299.04" fill="none" stroke="rgb(0, 0, 0)" stroke-width="25.00" stroke-opacity="1.00" stroke-linejoin="round"/>
<path d="M1659.81,1070.29 L1096.02,1822.01" fill="none" stroke="rgb(0, 0, 0)" stroke-width="25.00" stroke-opacity="1.00" stroke-linejoin="round"/>
<path d="M1096.02,1822.01" fill="none" stroke="rgb(0, 0, 0)" stroke-width="25.00" stroke-opacity="1.00" stroke-linejoin="round"/>
<path d="M1096.02,299.04 L1556.93,300.41" fill="none" stroke="rgb(0, 0, 0)" stroke-width="25.00" stroke-opacity="1.00" stroke-linejoin="round"/>
<path d="M1556.93,300.41" fill="none" stroke="rgb(0, 0, 0)" stroke-width="25.00" stroke-opacity="1.00" stroke-linejoin="round"/>
<path d="M1096.02,1822.01 L1556.93,1820.64" fill="none" stroke="rgb(0, 0, 0)" stroke-width="25.00" stroke-opacity="1.00" stroke-linejoin="round"/>
<path d="M1556.93,1820.64" fill="none" stroke="rgb(0, 0, 0)" stroke-width="25.00" stroke-opacity="1.00" stroke-linejoin="round"/>
<path d="M1556.93,300.41 L2079.56,1041.15" fill="none" stroke="rgb(0, 0, 0)" stroke-width="25.00" stroke-opacity="1.00" stroke-linejoin="round"/>
<path d="M2079.56,1041.15" fill="none" stroke="rgb(0, 0, 0)" stroke-width="25.00" stroke-opacity="1.00" stroke-linejoin="round"/>
<path d="M1556.93,1820.64 L2079.56,1079.90" fill="none" stroke="rgb(0, 0, 0)" stroke-width="25.00" stroke-opacity="1.00" stroke-linejoin="round"/>
<path d="M2079.56,1079.90" fill="none" stroke="rgb(0, 0, 0)" stroke-width="25.00" stroke-opacity="1.00" stroke-linejoin="round"/>
<path d="M2079.56,1041.15 L1658.44,1037.04" fill="none" stroke="rgb(0, 0, 0)" stroke-width="25.00" stroke-opacity="1.00" stroke-linejoin="round"/>
<path d="M1658.44,1037.04" fill="none" stroke="rgb(0, 0, 0)" stroke-width="25.00" stroke-opacity="1.00" stroke-linejoin="round"/>
<path d="M2079.56,1079.90 L1658.44,1084.01" fill="none" stroke="rgb(0, 0, 0)" stroke-width="25.00" stroke-opacity="1.00" stroke-linejoin="round"/>
<path d="M1658.44,1084.01" fill="none" stroke="rgb(0, 0, 0)" stroke-width="25.00" stroke-opacity="1.00" stroke-linejoin="round"/>
<path d="M1658.44,1037.04 L1123.46,310.01" fill="none" stroke="rgb(0, 0, 0)" stroke-width="25.00" stroke-opacity="1.00" stroke-linejoin="round"/>
<path d="M1123.46,310.01" fill="none" stroke="rgb(0, 0, 0)" stroke-width="25.00" stroke-opacity="1.00" stroke-linejoin="round"/>
<path d="M1658.44,1084.01 L1123.46,1811.04" fill="none" stroke="rgb(0, 0, 0)" stroke-width="25.00" stroke-opacity="1.00" stroke-linejoin="round"/>
<path d="M1123.46,1811.04" fill="none" stroke="rgb(0, 0, 0)" stroke-width="25.00" stroke-opacity="1.00" stroke-linejoin="round"/>
<path d="M1123.46,310.01 L1548.70,314.13" fill="none" stroke="rgb(0, 0, 0)" stroke-width="50.00" stroke-opacity="1.00" stroke-linejoin="round"/>
<path d="M1548.70,314.13" fill="none" stroke="rgb(0, 0, 0)" stroke-width="50.00" stroke-opacity="1.00" stroke-linejoin="round"/>
<path d="M1123.46,1811.04 L1548.70,1806.92" fill="none" stroke="rgb(0, 0, 0)" stroke-width="50.00" stroke-opacity="1.00" stroke-linejoin="round"/>
<path d="M1548.70,1806.92" fill="none" stroke="rgb(0, 0, 0)" stroke-width="50.00" stroke-opacity="1.00" stroke-linejoin="round"/>
<path d="M1548.70,314.13 L2046.64,1027.44" fill="none" stroke="rgb(0, 0, 0)" stroke-width="50.00" stroke-opacity="1.00" stroke-linejoin="round"/>
<path d="M2046.64,1027.44 C2046.64,1027.44 2045.27,1027.44 2045.27,1027.44" fill="none" stroke="rgb(0, 0, 0)" stroke-width="50.00" stroke-opacity="1.00" stroke-linejoin="round"/>
<path d="M1548.70,1806.92 L2046.64,1093.61" fill="none" stroke="rgb(0, 0, 0)" stroke-width="50.00" stroke-opacity="1.00" stroke-linejoin="round"/>
<path d="M2046.64,1093.61 C2046.64,1093.61 2045.27,1093.61 2045.27,1093.61" fill="none" stroke="rgb(0, 0, 0)" stroke-width="50.00" stroke-opacity="1.00" stroke-linejoin="round"/>
<path d="M2045.27,1027.44 L1657.07,1016.46" fill="none" stroke="rgb(0, 0, 0)" stroke-width="50.00" stroke-opacity="1.00" stroke-linejoin="round"/>
<path d="M1657.07,1016.46 C1657.07,1016.46 1661.18,1015.09 1661.18,1015.09" fill="none" stroke="rgb(0, 0, 0)" stroke-width="50.00" stroke-opacity="1.00" stroke-linejoin="round"/>
<path d="M2045.27,1093.61 L1657.07,1104.59" fill="none" stroke="rgb(0, 0, 0)" stroke-width="50.00" stroke-opacity="1.00" stroke-linejoin="round"/>
<path d="M1657.07,1104.59 C1657.07,1104.59 1661.18,1105.96 1661.18,1105.96" fill="none" stroke="rgb(0, 0, 0)" stroke-width="50.00" stroke-opacity="1.00" stroke-linejoin="round"/>
<path d="M1661.18,1015.09 L1160.50,329.22" fill="none" stroke="rgb(0, 0, 0)" stroke-width="50.00" stroke-opacity="1.00" stroke-linejoin="round"/>
<path d="M1160.50,329.22" fill="none" stroke="rgb(0, 0, 0)" stroke-width="50.00" stroke-opacity="1.00" stroke-linejoin="round"/>
<path d="M1661.18,1105.96 L1160.50,1791.83" fill="none" stroke="rgb(0, 0, 0)" stroke-width="50.00" stroke-opacity="1.00" stroke-linejoin="round"/>
<path d="M1160.50,1791.83" fill="none" stroke="rgb(0, 0, 0)" stroke-width="50.00" stroke-opacity="1.00" stroke-linejoin="round"/>
<path d="M1160.50,329.22 L1539.10,345.68" fill="none" stroke="rgb(0, 0, 0)" stroke-width="50.00" stroke-opacity="1.00" stroke-linejoin="round"/>
<path d="M1539.10,345.68 C1539.10,345.68 1537.72,345.68 1537.72,345.68" fill="none" stroke="rgb(0, 0, 0)" stroke-width="50.00" stroke-opacity="1.00" stroke-linejoin="round"/>
<path d="M1160.50,1791.83 L1539.10,1775.37" fill="none" stroke="rgb(0, 0, 0)" stroke-width="50.00" stroke-opacity="1.00" stroke-linejoin="round"/>
<path d="M1539.10,1775.37 C1539.10,1775.37 1537.72,1775.37 1537.72,1775.37" fill="none" stroke="rgb(0, 0, 0)" stroke-width="50.00" stroke-opacity="1.00" stroke-linejoin="round"/>
<path d="M1537.72,345.68 L1983.54,991.77" fill="none" stroke="rgb(0, 0, 0)" stroke-width="80.00" stroke-opacity="1.00" stroke-linejoin="round"/>
<path d="M1983.54,991.77" fill="none" stroke="rgb(0, 0, 0)" stroke-width="80.00" stroke-opacity="1.00" stroke-linejoin="round"/>
<path d="M1537.72,1775.37 L1983.54,1129.28" fill="none" stroke="rgb(0, 0, 0)" stroke-width="80.00" stroke-opacity="1.00" stroke-linejoin="round"/>
<path d="M1983.54,1129.28" fill="none" stroke="rgb(0, 0, 0)" stroke-width="80.00" stroke-opacity="1.00" stroke-linejoin="round"/>
<path d="M1983.54,991.77 L1670.78,986.28" fill="none" stroke="rgb(0, 0, 0)" stroke-width="80.00" stroke-opacity="1.00" stroke-linejoin="round"/>
<path d="M1670.78,986.28" fill="none" stroke="rgb(0, 0, 0)" stroke-width="80.00" stroke-opacity="1.00" stroke-linejoin="round"/>
<path d="M1983.54,1129.28 L1670.78,1134.77" fill="none" stroke="rgb(0, 0, 0)" stroke-width="80.00" stroke-opacity="1.00" stroke-linejoin="round"/>
<path d="M1670.78,1134.77" fill="none" stroke="rgb(0, 0, 0)" stroke-width="80.00" stroke-opacity="1.00" stroke-linejoin="round"/>
<path d="M1670.78,986.28 L1234.57,349.79" fill="none" stroke="rgb(0, 0, 0)" stroke-width="80.00" stroke-opacity="1.00" stroke-linejoin="round"/>
<path d="M1234.57,349.79" fill="none" stroke="rgb(0, 0, 0)" stroke-width="80.00" stroke-opacity="1.00" stroke-linejoin="round"/>
<path d="M1670.78,1134.77 L1234.57,1771.25" fill="none" stroke="rgb(0, 0, 0)" stroke-width="80.00" stroke-opacity="1.00" stroke-linejoin="round"/>
<path d="M1234.57,1771.25" fill="none" stroke="rgb(0, 0, 0)" stroke-width="80.00" stroke-opacity="1.00" stroke-linejoin="round"/>
<path d="M1234.57,349.79 L1493.83,377.23" fill="none" stroke="rgb(0, 0, 0)" stroke-width="80.00" stroke-opacity="1.00" stroke-linejoin="round"/>
<path d="M1493.83,377.23 C1493.83,377.23 1495.20,375.86 1495.20,375.86" fill="none" stroke="rgb(0, 0, 0)" stroke-width="80.00" stroke-opacity="1.00" stroke-linejoin="round"/>
<path d="M1234.57,1771.25 L1493.83,1743.82" fill="none" stroke="rgb(0, 0, 0)" stroke-width="80.00" stroke-opacity="1.00" stroke-linejoin="round"/>
<path d="M1493.83,1743.82 C1493.83,1743.82 1495.20,1745.19 1495.20,1745.19" fill="none" stroke="rgb(0, 0, 0)" stroke-width="80.00" stroke-opacity="1.00" stroke-linejoin="round"/>
<path d="M1495.20,375.86 L1882.03,947.88" fill="none" stroke="rgb(0, 0, 0)" stroke-width="120.00" stroke-opacity="1.00" stroke-linejoin="round"/>
<path d="M1882.03,947.88 C1882.03,947.88 1882.03,946.50 1882.03,946.50" fill="none" stroke="rgb(0, 0, 0)" stroke-width="120.00" stroke-opacity="1.00" stroke-linejoin="round"/>
<path d="M1495.20,1745.19 L1882.03,1173.17" fill="none" stroke="rgb(0, 0, 0)" stroke-width="120.00" stroke-opacity="1.00" stroke-linejoin="round"/>
<path d="M1882.03,1173.17 C1882.03,1173.17 1882.03,1174.55 1882.03,1174.55" fill="none" stroke="rgb(0, 0, 0)" stroke-width="120.00" stroke-opacity="1.00" stroke-linejoin="round"/>
<path d="M1882.03,946.50 L1711.94,945.13" fill="none" stroke="rgb(0, 0, 0)" stroke-width="120.00" stroke-opacity="1.00" stroke-linejoin="round"/>
<path d="M1711.94,945.13" fill="none" stroke="rgb(0, 0, 0)" stroke-width="120.00" stroke-opacity="1.00" stroke-linejoin="round"/>
<path d="M1882.03,1174.55 L1711.94,1175.92" fill="none" stroke="rgb(0, 0, 0)" stroke-width="120.00" stroke-opacity="1.00" stroke-linejoin="round"/>
<path d="M1711.94,1175.92" fill="none" stroke="rgb(0, 0, 0)" stroke-width="120.00" stroke-opacity="1.00" stroke-linejoin="round"/>
<path d="M1711.94,945.13 L1344.31,393.69" fill="none" stroke="rgb(0, 0, 0)" stroke-width="120.00" stroke-opacity="1.00" stroke-linejoin="round"/>
<path d="M1344.31,393.69" fill="none" stroke="rgb(0, 0, 0)" stroke-width="120.00" stroke-opacity="1.00" stroke-linejoin="round"/>
<path d="M1711.94,1175.92 L1344.31,1727.36" fill="none" stroke="rgb(0, 0, 0)" stroke-width="120.00" stroke-opacity="1.00" stroke-linejoin="round"/>
<path d="M1344.31,1727.36" fill="none" stroke="rgb(0, 0, 0)" stroke-width="120.00" stroke-opacity="1.00" stroke-linejoin="round"/>
<path d="M1344.31,393.69 L1444.45,406.04" fill="none" stroke="rgb(0, 0, 0)" stroke-width="120.00" stroke-opacity="1.00" stroke-linejoin="round"/>
<path d="M1444.45,406.04" fill="none" stroke="rgb(0, 0, 0)" stroke-width="120.00" stroke-opacity="1.00" stroke-linejoin="round"/>
<path d="M1344.31,1727.36 L1444.45,1715.01" fill="none" stroke="rgb(0, 0, 0)" stroke-width="120.00" stroke-opacity="1.00" stroke-linejoin="round"/>
<path d="M1444.45,1715.01" fill="none" stroke="rgb(0, 0, 0)" stroke-width="120.00" stroke-opacity="1.00" stroke-linejoin="round"/>
<path d="M1444.45,406.04 L1770.92,898.49" fill="none" stroke="rgb(0, 0, 0)" stroke-width="120.00" stroke-opacity="1.00" stroke-linejoin="round"/>
<path d="M1770.92,898.49 C1770.92,898.49 1775.04,895.75 1775.04,895.75" fill="none" stroke="rgb(0, 0, 0)" stroke-width="120.00" stroke-opacity="1.00" stroke-linejoin="round"/>
<path d="M1444.45,1715.01 L1770.92,1222.56" fill="none" stroke="rgb(0, 0, 0)" stroke-width="120.00" stroke-opacity="1.00" stroke-linejoin="round"/>
<path d="M1770.92,1222.56 C1770.92,1222.56 1775.04,1225.30 1775.04,1225.30" fill="none" stroke="rgb(0, 0, 0)" stroke-width="120.00" stroke-opacity="1.00" stroke-linejoin="round"/>
</g>
</svg>
