<?xml version="1.0" encoding="UTF-8" standalone="no"?>
<!DOCTYPE svg PUBLIC "-//W3C//DTD SVG 1.1//EN" "http://www.w3.org/Graphics/SVG/1.1/DTD/svg11.dtd">
<svg width="129.60" height="129.60" viewBox="0.00 0.00 2160.00 2160.00" xmlns="http://www.w3.org/2000/svg" xmlns:xlink="http://www.w3.org/1999/xlink">
<g stroke-linecap="round" id="File">
<path d="M1742.11,512.16 L1576.25,1869.40 L359.34,1869.40" fill="none" stroke="rgb(0, 0, 0)" stroke-width="29.63" stroke-opacity="1.00" stroke-linejoin="miter"/>
<path d="M315.43,1794.17 L552.84,136.91 L1466.53,138.04" fill="none" stroke="rgb(0, 0, 0)" stroke-width="29.63" stroke-opacity="1.00" stroke-linejoin="miter"/>
<path d="M687.96,377.14" fill="none" stroke="rgb(0, 0, 0)" stroke-width="29.63" stroke-opacity="1.00" stroke-linejoin="round"/>
<path d="M687.96,377.14 L1447.93,365.41" fill="none" stroke="rgb(0, 0, 0)" stroke-width="29.63" stroke-opacity="1.00" stroke-linejoin="round"/>
<path d="M651.19,638.95 L1536.01,625.24" fill="none" stroke="rgb(0, 0, 0)" stroke-width="29.63" stroke-opacity="1.00" stroke-linejoin="round"/>
<path d="M612.03,917.79 L1500.93,903.95" fill="none" stroke="rgb(0, 0, 0)" stroke-width="29.63" stroke-opacity="1.00" stroke-linejoin="round"/>
<path d="M574.59,1184.34 L1458.53,1170.37" fill="none" stroke="rgb(0, 0, 0)" stroke-width="29.63" stroke-opacity="1.00" stroke-linejoin="round"/>
<path d="M1473.52,136.36 C1489.10,158.34 1520.56,202.15 1536.43,223.99 C1557.56,252.98 1600.87,312.33 1623.07,342.68 C1641.60,367.82 1685.15,426.23 1710.17,459.49 C1721.53,474.04 1743.75,501.56 1746.34,504.78" fill="none" stroke="rgb(0, 0, 0)" stroke-width="88.90" stroke-opacity="1.00" stroke-linejoin="round"/>
<path d="M534.72,1468.23 L980.75,1461.60" fill="none" stroke="rgb(0, 0, 0)" stroke-width="29.63" stroke-opacity="1.00" stroke-linejoin="round"/>
<path d="M1476.41,128.85 C1475.42,134.58 1473.03,149.12 1472.55,156.46 C1470.82,181.66 1466.78,241.84 1464.48,276.82 C1461.86,317.51 1457.13,390.85 1455.01,423.50 C1453.07,452.73 1450.15,494.45 1449.19,506.94" fill="none" stroke="rgb(0, 0, 0)" stroke-width="88.90" stroke-opacity="1.00" stroke-linejoin="round"/>
<path d="M1744.90,517.34 C1744.90,517.34 1745.65,517.02 1745.65,517.02 C1745.65,517.02 1745.75,515.77 1745.75,515.77" fill="none" stroke="rgb(0, 0, 0)" stroke-width="88.90" stroke-opacity="1.00" stroke-linejoin="round"/>
<path d="M1667.80,515.19 C1641.59,514.96 1575.01,514.36 1534.65,513.99 C1500.89,513.69 1455.91,513.29 1444.68,513.18" fill="none" stroke="rgb(0, 0, 0)" stroke-width="88.90" stroke-opacity="1.00" stroke-linejoin="round"/>
<path d="M1894.69,552.47 L1716.26,2052.19 L334.62,2052.19 L339.93,2014.92" fill="none" stroke="rgb(0, 0, 0)" stroke-width="29.63" stroke-opacity="1.00" stroke-linejoin="miter"/>
<path d="M361.74,1874.79 C360.31,1877.73 359.42,1882.96 358.86,1886.86 C357.02,1899.87 351.98,1931.23 349.00,1946.77 C347.22,1955.56 343.79,1972.39 342.13,1980.42 C339.22,1994.26 336.12,2008.98 335.94,2009.87" fill="none" stroke="rgb(0, 0, 0)" stroke-width="88.90" stroke-opacity="1.00" stroke-linejoin="round"/>
<path d="M1602.00,154.49 L1487.58,152.03" fill="none" stroke="rgb(0, 0, 0)" stroke-width="30.00" stroke-opacity="1.00" stroke-linejoin="round"/>
<path d="M1487.58,152.03" fill="none" stroke="rgb(0, 0, 0)" stroke-width="30.00" stroke-opacity="1.00" stroke-linejoin="round"/>
<path d="M335.84,2050.71" fill="none" stroke="rgb(0, 0, 0)" stroke-width="30.00" stroke-opacity="1.00" stroke-linejoin="round"/>
<path d="M335.84,2050.71 L359.50,1873.78" fill="none" stroke="rgb(0, 0, 0)" stroke-width="30.00" stroke-opacity="1.00" stroke-linejoin="round"/>
<path d="M359.50,1873.78" fill="none" stroke="rgb(0, 0, 0)" stroke-width="30.00" stroke-opacity="1.00" stroke-linejoin="round"/>
<path d="M665.96,460.14 L1437.75,447.50" fill="none" stroke="rgb(0, 0, 0)" stroke-width="29.63" stroke-opacity="1.00" stroke-linejoin="round"/>
<path d="M629.19,721.95 L1514.01,708.24" fill="none" stroke="rgb(0, 0, 0)" stroke-width="29.63" stroke-opacity="1.00" stroke-linejoin="round"/>
<path d="M590.03,1000.79 L1478.93,986.95" fill="none" stroke="rgb(0, 0, 0)" stroke-width="29.63" stroke-opacity="1.00" stroke-linejoin="round"/>
<path d="M552.59,1267.34 L1445.39,1253.37" fill="none" stroke="rgb(0, 0, 0)" stroke-width="29.63" stroke-opacity="1.00" stroke-linejoin="round"/>
<path d="M512.72,1551.23 L963.52,1544.15" fill="none" stroke="rgb(0, 0, 0)" stroke-width="29.63" stroke-opacity="1.00" stroke-linejoin="round"/>
<path d="M1895.50,541.33" fill="none" stroke="rgb(0, 0, 0)" stroke-width="30.00" stroke-opacity="1.00" stroke-linejoin="round"/>
<path d="M1895.50,541.33 L1601.50,154.75" fill="none" stroke="rgb(0, 0, 0)" stroke-width="30.00" stroke-opacity="1.00" stroke-linejoin="round"/>
<path d="M1601.50,154.75" fill="none" stroke="rgb(0, 0, 0)" stroke-width="30.00" stroke-opacity="1.00" stroke-linejoin="round"/>
<path d="M1661.24,531.29 L1507.25,1791.40 L332.62,1791.40" fill="none" stroke="rgb(0, 0, 0)" stroke-width="29.63" stroke-opacity="1.00" stroke-linejoin="miter"/>
<path d="M1894.70,542.28 L1872.70,738.10" fill="none" stroke="rgb(0, 0, 0)" stroke-width="29.63" stroke-opacity="1.00" stroke-linejoin="miter"/>
<path d="M508.98,1550.06 L520.50,1469.63" fill="none" stroke="rgb(0, 0, 0)" stroke-width="29.63" stroke-opacity="1.00" stroke-linejoin="miter"/>
<path d="M549.65,1266.15 L561.17,1185.74" fill="none" stroke="rgb(0, 0, 0)" stroke-width="29.63" stroke-opacity="1.00" stroke-linejoin="miter"/>
<path d="M587.83,999.60 L599.35,919.18" fill="none" stroke="rgb(0, 0, 0)" stroke-width="29.63" stroke-opacity="1.00" stroke-linejoin="miter"/>
<path d="M627.78,720.75 L639.30,640.33" fill="none" stroke="rgb(0, 0, 0)" stroke-width="29.63" stroke-opacity="1.00" stroke-linejoin="miter"/>
<path d="M665.29,458.92 L676.81,378.50" fill="none" stroke="rgb(0, 0, 0)" stroke-width="29.63" stroke-opacity="1.00" stroke-linejoin="miter"/>
<path d="M967.70,1541.82 L976.33,1476.77 L986.66,1467.68" fill="none" stroke="rgb(0, 0, 0)" stroke-width="29.63" stroke-opacity="1.00" stroke-linejoin="miter"/>
<path d="M1149.55,369.76 L1150.24,369.15" fill="none" stroke="rgb(0, 0, 0)" stroke-width="29.63" stroke-opacity="1.00" stroke-linejoin="miter"/>
<path d="M1446.94,1252.10 L1456.65,1175.47" fill="none" stroke="rgb(0, 0, 0)" stroke-width="29.63" stroke-opacity="1.00" stroke-linejoin="miter"/>
<path d="M1485.12,985.61 L1494.61,919.33" fill="none" stroke="rgb(0, 0, 0)" stroke-width="29.63" stroke-opacity="1.00" stroke-linejoin="miter"/>
<path d="M1525.06,706.82 L1536.57,626.43" fill="none" stroke="rgb(0, 0, 0)" stroke-width="29.63" stroke-opacity="1.00" stroke-linejoin="miter"/>
</g>
</svg>
