<?xml version="1.0" encoding="UTF-8" standalone="no"?>
<!DOCTYPE svg PUBLIC "-//W3C//DTD SVG 1.1//EN" "http://www.w3.org/Graphics/SVG/1.1/DTD/svg11.dtd">
<svg width="129.60" height="129.60" viewBox="0.00 0.00 2160.00 2160.00" xmlns="http://www.w3.org/2000/svg" xmlns:xlink="http://www.w3.org/1999/xlink">
<g stroke-linecap="round" id="ListView">
<path d="M260.25,86.67 Q329.39,86.67 398.53,86.67 Q429.64,86.67 429.64,116.67 Q429.64,1090.00 429.64,2063.33 Q429.64,2093.33 398.53,2093.33 Q329.39,2093.33 260.25,2093.33 Q229.14,2093.33 229.14,2063.33 Q229.14,1090.00 229.14,116.67 Q229.14,86.67 260.25,86.67 Z" fill="none" stroke="rgb(0, 0, 0)" stroke-width="15.00" stroke-opacity="1.00" stroke-linejoin="round"/>
<path d="M610.81,112.16 Q1278.26,112.16 1945.71,112.16 Q1981.25,112.16 1981.25,147.70 Q1981.25,217.90 1981.25,288.10 Q1981.25,323.65 1945.71,323.65 Q1278.26,323.65 610.81,323.65 Q575.27,323.65 575.27,288.10 Q575.27,217.90 575.27,147.70 Q575.27,112.16 610.81,112.16 Z" fill="none" stroke="rgb(0, 0, 0)" stroke-width="15.00" stroke-opacity="1.00" stroke-linejoin="round"/>
<path d="M610.81,1271.89 Q1278.26,1271.89 1945.71,1271.89 Q1981.25,1271.89 1981.25,1307.43 Q1981.25,1377.63 1981.25,1447.84 Q1981.25,1483.38 1945.71,1483.38 Q1278.26,1483.38 610.81,1483.38 Q575.27,1483.38 575.27,1447.84 Q575.27,1377.63 575.27,1307.43 Q575.27,1271.89 610.81,1271.89 Z" fill="none" stroke="rgb(0, 0, 0)" stroke-width="15.00" stroke-opacity="1.00" stroke-linejoin="round"/>
<path d="M610.81,694.16 Q1278.26,694.16 1945.71,694.16 Q1981.25,694.16 1981.25,729.70 Q1981.25,799.90 1981.25,870.10 Q1981.25,905.65 1945.71,905.65 Q1278.26,905.65 610.81,905.65 Q575.27,905.65 575.27,870.10 Q575.27,799.90 575.27,729.70 Q575.27,694.16 610.81,694.16 Z" fill="none" stroke="rgb(0, 0, 0)" stroke-width="15.00" stroke-opacity="1.00" stroke-linejoin="round"/>
<path d="M610.81,1853.89 Q1278.26,1853.89 1945.71,1853.89 Q1981.25,1853.89 1981.25,1889.43 Q1981.25,1959.63 1981.25,2029.84 Q1981.25,2065.38 1945.71,2065.38 Q1278.26,2065.38 610.81,2065.38 Q575.27,2065.38 575.27,2029.84 Q575.27,1959.63 575.27,1889.43 Q575.27,1853.89 610.81,1853.89 Z" fill="none" stroke="rgb(0, 0, 0)" stroke-width="15.00" stroke-opacity="1.00" stroke-linejoin="round"/>
</g>
</svg>
