<svg
   viewBox="0 0 32.448338 75.192291"
   xmlns="http://www.w3.org/2000/svg"
   xmlns:svg="http://www.w3.org/2000/svg">
   <g
      transform="translate(-18.073137,29.569123)">
      <path
         d="M 32.913476,45.211509 C 32.521749,44.972193 29.263308,42.586842 25.672494,39.910714 22.08168,37.234639 18.903365,34.916519 18.609572,34.759356 L 18.075401,34.473527 V 21.085213 c 0,-15.6807423 -0.169581,-14.7318935 2.426677,-13.5769873 1.370706,0.6097058 11.315898,6.2119663 11.699171,6.5902683 0.1353,0.133561 0.289711,2.399453 0.35901,5.268092 0.0669,2.768547 0.208706,5.21245 0.315138,5.430864 0.28539,0.585655 -0.653495,1.459706 -1.335498,1.243224 -0.285107,-0.09049 -1.748594,-0.935884 -3.252224,-1.878621 -3.144387,-1.97149 -3.16471,-1.966145 -3.040404,0.805709 l 0.06911,1.541516 3.901892,2.346668 c 3.272258,1.968051 3.980971,2.308252 4.39207,2.108465 0.2696,-0.130995 1.985854,-1.397317 3.813905,-2.814029 l 3.32373,-2.575824 0.06381,-5.243195 c 0.04886,-4.014788 -0.0066,-5.298864 -0.23741,-5.480871 C 40.408722,14.719735 37.655724,13.253388 34.456634,11.591937 31.257546,9.9304596 28.506568,8.3997657 28.343346,8.1903744 28.121371,7.9056034 28.046587,6.0589176 28.046587,0.86263327 c 0,-4.55773887 -0.09005,-7.14467597 -0.261816,-7.52170717 -0.190092,-0.4171686 -0.190521,-0.7079192 -0.0021,-1.0608998 0.195128,-0.3646488 5.142641,-4.3247733 9.71241,-7.7741193 0.03924,-0.02963 -1.609609,-2.817231 -3.664122,-6.194716 -2.054516,-3.377486 -3.778488,-6.364394 -3.831053,-6.637576 -0.123663,-0.642593 0.590272,-1.3521 1.236311,-1.228619 0.612039,0.116999 18.805323,14.539145 19.147573,15.178616 0.133352,0.249211 0.17758,0.657516 0.09829,0.907362 -0.0793,0.249873 -2.652146,2.547144 -5.717429,5.1050565 l -5.573254,4.6507664 0.06581,3.35293222 0.06581,3.35298518 4.92052,2.2757606 c 3.593354,1.6619802 5.06363,2.4631385 5.451107,2.9703977 L 50.22525,8.9334832 50.1531,20.924902 c -0.06443,10.711392 -0.114122,12.050025 -0.465513,12.540562 -0.39538,0.551921 -14.194718,11.390762 -15.159214,11.906938 -0.676307,0.361924 -0.775952,0.352055 -1.615406,-0.160893 z"
      />
   </g>
</svg>